<?xml version="1.0" encoding="UTF-8"?>
<svg id="Calque_1" data-name="Calque 1" xmlns="http://www.w3.org/2000/svg" viewBox="0 0 974.5 1159.5">
  <defs>
    <style>
      .cls-1 {
        fill: #3b193d;
      }

      .cls-2 {
        fill: none;
        stroke: #3b193d;
        stroke-width: 4px;
      }

      .cls-3 {
        fill: #de4632;
      }

      .cls-4 {
        fill: #e8e4e8;
      }
    </style>
  </defs>
  <path id="Rectangle_2" data-name="Rectangle 2" class="cls-1" d="M244.8,35.8l211.4-26c44.1-5.4,84.3,26,89.7,70.1h0c5.4,44.1-26,84.3-70.1,89.7l-211.4,26c-44.1,5.4-84.3-26-89.7-70.1h0c-5.4-44.1,26-84.3,70.1-89.7h0Z"/>
  <path id="Rectangle_2-2" data-name="Rectangle 2-2" class="cls-1" d="M164.7,648.3l478-33.5c44.4-3.1,82.9,30.3,86,74.7h0c3.1,44.4-30.3,82.9-74.7,86l-478,33.5c-44.4,3.1-82.9-30.3-86-74.7h0c-3.1-44.4,30.3-82.9,74.7-86Z"/>
  <path id="Tracé_155" data-name="Tracé 155" class="cls-2" d="M536.1,74.3c153.2-25.7,220.3,155.6,150.1,142.6s25.8-157.6,131.6-72.3c96.5,77.8-42.4,232.6-42.4,232.6"/>
  <path id="Tracé_156" data-name="Tracé 156" class="cls-2" d="M280.8,467.1c-84.6,45.3-99,133.8-41.1,196.1"/>
  <path id="Tracé_157" data-name="Tracé 157" class="cls-2" d="M715.8,694.7c92.6,27.6,20.9,219.4-21.2,192.3-36.7-23.6,53.9-105,104.3-44.9,50.4,60.1-.6,151.3-62.5,164.2"/>
  <rect id="Rectangle_2-4" data-name="Rectangle 2-4" class="cls-1" x="350.83" y="-66.63" width="281.1" height="948.4" rx="126.1" ry="126.1" transform="translate(50.53 869.33) rotate(-86)"/>
  <rect class="cls-3" x="388.33" y="654.39" width="198.8" height="720.9" rx="62.4" ry="62.4" transform="translate(-574.5 1388.26) rotate(-83.7)"/>
  <g>
    <path class="cls-4" d="M281.53,114.75l-2.63-21.7,8-.97,2.73,22.54c.31,2.56.21,4.85-.3,6.87-.51,2.01-1.36,3.76-2.57,5.25-1.2,1.49-2.67,2.75-4.39,3.8-1.72,1.04-3.64,1.87-5.74,2.49-2.1.62-4.33,1.07-6.7,1.36-2.45.3-4.79.4-7.04.3-2.25-.09-4.33-.44-6.26-1.04-1.92-.6-3.63-1.48-5.11-2.65-1.48-1.16-2.71-2.66-3.69-4.49-.97-1.83-1.62-4.03-1.93-6.6l-2.73-22.54,8-.97,2.63,21.7c.37,3.05,1.25,5.29,2.64,6.72,1.39,1.44,3.18,2.32,5.35,2.65,2.17.33,4.6.33,7.29,0,2.6-.32,4.9-.89,6.9-1.72,1.99-.83,3.5-2.11,4.54-3.84,1.03-1.73,1.36-4.12.99-7.17Z"/>
    <path class="cls-4" d="M296.22,100.11l7.82-.95,3.62,29.88-7.82.95-3.62-29.88ZM317.84,96.82c1.84-.22,3.58-.19,5.2.1,1.62.29,3.07.87,4.36,1.73,1.28.86,2.34,2.03,3.17,3.49.83,1.47,1.37,3.26,1.63,5.38l2.21,18.27-7.81.95-2.04-16.89c-.31-2.53-1.14-4.3-2.51-5.34-1.37-1.03-3.43-1.38-6.2-1.05-2.08.25-3.92.88-5.5,1.89-1.59,1.01-2.83,2.18-3.72,3.53-.9,1.35-1.34,2.69-1.34,4.03l-.43-3.06c.03-1.43.33-2.85.89-4.26.56-1.41,1.39-2.74,2.48-3.99,1.09-1.25,2.44-2.3,4.04-3.14,1.61-.84,3.47-1.4,5.59-1.65Z"/>
    <path class="cls-4" d="M359.93,80.2l4.14,34.21c.16,1.28.26,2.66.32,4.14s.08,2.68.07,3.62l-7.27.88-5.07-41.9,7.81-.95ZM379.09,121.06c-2.65.32-4.97.12-6.96-.59-2-.71-3.67-1.77-5.02-3.17-1.35-1.4-2.41-2.98-3.2-4.74-.78-1.76-1.28-3.51-1.49-5.28-.27-2.2-.24-4.28.07-6.23.31-1.95.96-3.71,1.95-5.27.99-1.56,2.38-2.86,4.17-3.89,1.79-1.03,4.02-1.71,6.71-2.03,3.09-.37,5.9-.05,8.44.96,2.54,1.01,4.65,2.6,6.31,4.76,1.66,2.16,2.69,4.82,3.07,7.99.37,3.09,0,5.89-1.12,8.4-1.12,2.51-2.8,4.57-5.05,6.16-2.25,1.59-4.87,2.57-7.88,2.94ZM375.84,115.36c2.12-.26,3.92-.88,5.39-1.87,1.47-.99,2.54-2.25,3.23-3.78.69-1.53.92-3.25.68-5.18-.35-2.89-1.54-5.1-3.58-6.64-2.04-1.54-4.72-2.11-8.04-1.71-2.32.28-4.3.91-5.93,1.88-1.63.97-2.83,2.22-3.6,3.76-.77,1.54-1.03,3.33-.78,5.37.23,1.88.89,3.49,1.99,4.82s2.55,2.29,4.38,2.89c1.82.59,3.91.75,6.28.46Z"/>
    <path class="cls-4" d="M415.34,116.67c-2.97.36-5.74.03-8.32-.98-2.58-1.01-4.73-2.6-6.43-4.77-1.71-2.17-2.75-4.8-3.12-7.89-.38-3.17,0-6,1.17-8.5,1.16-2.5,2.9-4.55,5.2-6.15,2.31-1.6,5.02-2.59,8.15-2.97,3.45-.42,6.31-.06,8.58,1.07,2.27,1.13,4.03,2.82,5.28,5.06,1.25,2.25,2.05,4.84,2.4,7.76.21,1.76.15,3.59-.19,5.48-.34,1.89-1,3.68-1.97,5.36-.98,1.68-2.35,3.11-4.12,4.28-1.77,1.17-3.98,1.92-6.62,2.24ZM417.14,110.36c2.36-.29,4.36-.93,5.99-1.94,1.63-1.01,2.81-2.29,3.56-3.85.75-1.55,1.01-3.27.78-5.16-.25-2.04-.93-3.72-2.04-5.03-1.11-1.31-2.57-2.23-4.36-2.77-1.79-.54-3.87-.66-6.24-.37-3.33.4-5.81,1.59-7.44,3.55-1.63,1.97-2.27,4.39-1.92,7.28.23,1.92.88,3.54,1.93,4.86,1.05,1.32,2.42,2.28,4.1,2.89,1.68.61,3.56.79,5.65.54ZM425.65,84.44l7.82-.95,3.62,29.88-7.27.88c-.39-1.54-.7-2.9-.92-4.1-.23-1.19-.41-2.37-.55-3.53l-2.68-22.18Z"/>
    <path class="cls-4" d="M478.22,96.44c.11,2.63-.45,4.97-1.68,7.03-1.24,2.06-3.08,3.74-5.52,5.03-2.45,1.29-5.43,2.15-8.96,2.58-3.69.45-7.05.25-10.1-.58-3.05-.83-5.54-2.3-7.49-4.4-1.94-2.1-3.12-4.86-3.53-8.26-.41-3.41.07-6.37,1.45-8.9,1.38-2.53,3.45-4.57,6.21-6.12,2.76-1.55,5.98-2.55,9.67-3,3.53-.43,6.61-.3,9.26.38,2.64.68,4.81,1.85,6.49,3.51,1.69,1.67,2.81,3.79,3.36,6.36l-7.15.87c-.92-1.92-2.38-3.33-4.36-4.23-1.98-.9-4.27-1.19-6.88-.88-2.08.25-3.93.84-5.55,1.77-1.62.93-2.85,2.17-3.7,3.71-.85,1.55-1.14,3.4-.88,5.56.26,2.13.97,3.84,2.15,5.14,1.17,1.3,2.67,2.2,4.47,2.69,1.81.49,3.75.61,5.84.36,2.8-.34,5.03-1.18,6.68-2.52,1.65-1.34,2.67-3.09,3.05-5.25l7.15-.87Z"/>
  </g>
  <g>
    <path class="cls-4" d="M226.79,309.5l-2.73,39.02-7.85-.55,2.29-32.68,2.3,1.01-19.55,19.09-.96-2.74,17.88,1.25-.42,6.04-23.86-1.67.42-6.04,24.63-23.29,7.85.55ZM223.66,340.36l.42-6.04,7.91.55-.42,6.04-7.91-.55Z"/>
    <path class="cls-4" d="M266.79,343.37c-2.98-.21-5.64-1.05-7.99-2.53-2.35-1.48-4.15-3.45-5.41-5.9-1.27-2.46-1.79-5.23-1.57-8.33.22-3.18,1.14-5.89,2.75-8.12,1.61-2.23,3.7-3.92,6.27-5.05,2.57-1.13,5.42-1.59,8.56-1.37,3.46.24,6.2,1.13,8.22,2.67,2.02,1.54,3.43,3.53,4.23,5.97.8,2.44,1.1,5.13.89,8.07-.12,1.77-.53,3.55-1.22,5.35-.69,1.79-1.68,3.42-2.95,4.89-1.28,1.47-2.89,2.61-4.85,3.42-1.96.81-4.27,1.13-6.93.94ZM269.75,337.51c2.38.17,4.46-.09,6.25-.78,1.79-.68,3.2-1.72,4.22-3.1,1.03-1.38,1.61-3.02,1.74-4.92.14-2.05-.21-3.83-1.05-5.32-.85-1.5-2.1-2.68-3.76-3.54-1.66-.86-3.68-1.38-6.05-1.55-3.34-.23-6,.46-7.98,2.08-1.98,1.62-3.06,3.88-3.27,6.78-.14,1.93.19,3.65.98,5.14.79,1.49,1.95,2.7,3.48,3.61,1.53.92,3.35,1.45,5.44,1.59ZM283.01,313.67l7.85.55-2.1,30.02-7.31-.51c-.09-1.58-.14-2.98-.13-4.2,0-1.21.05-2.4.13-3.57l1.56-22.29Z"/>
    <path class="cls-4" d="M297.99,314.72l7.85.55-2.1,30.02-7.85-.55,2.1-30.02ZM319.85,315.58c1.85.13,3.55.49,5.08,1.08,1.54.59,2.85,1.43,3.95,2.52,1.1,1.09,1.91,2.43,2.45,4.03.54,1.6.73,3.46.58,5.59l-1.28,18.36-7.85-.55,1.19-16.97c.18-2.54-.31-4.44-1.45-5.72-1.15-1.27-3.11-2.01-5.89-2.2-2.09-.15-4.01.12-5.76.81-1.75.69-3.19,1.61-4.32,2.76-1.13,1.16-1.83,2.39-2.08,3.71l.15-3.08c.3-1.4.86-2.73,1.68-4.01.82-1.28,1.88-2.43,3.19-3.45,1.31-1.02,2.83-1.79,4.56-2.32,1.74-.53,3.67-.72,5.81-.57Z"/>
    <path class="cls-4" d="M339.86,317.65l7.85.55-2.1,30.02-7.85-.55,2.1-30.02ZM361.71,318.51c1.85.13,3.55.49,5.08,1.08,1.54.59,2.85,1.43,3.95,2.52,1.1,1.09,1.91,2.43,2.45,4.03.54,1.6.73,3.46.58,5.59l-1.28,18.36-7.85-.55,1.19-16.97c.18-2.54-.31-4.44-1.45-5.72-1.15-1.27-3.11-2.01-5.89-2.2-2.09-.15-4.01.12-5.76.81-1.75.69-3.19,1.61-4.32,2.76-1.13,1.15-1.83,2.39-2.08,3.71l.16-3.09c.3-1.39.86-2.73,1.68-4.01.82-1.28,1.88-2.43,3.19-3.45,1.31-1.02,2.83-1.8,4.56-2.32,1.74-.53,3.67-.72,5.81-.57Z"/>
    <path class="cls-4" d="M407.68,342.54l7.61.53c-.47,2.03-1.45,3.8-2.95,5.32-1.5,1.51-3.47,2.65-5.91,3.41-2.44.76-5.37,1.02-8.8.78-3.83-.27-7.17-1.12-10.02-2.55-2.85-1.43-5.02-3.38-6.51-5.83-1.49-2.45-2.12-5.33-1.89-8.63.23-3.3,1.23-6.07,3.01-8.32,1.78-2.24,4.15-3.89,7.11-4.93,2.97-1.05,6.38-1.44,10.25-1.17,3.95.28,7.18,1.13,9.71,2.56,2.53,1.43,4.34,3.45,5.43,6.06,1.09,2.61,1.4,5.86.93,9.75l-28.63-2c.09,1.55.57,2.98,1.43,4.29.86,1.31,2.08,2.39,3.66,3.23,1.58.84,3.5,1.34,5.75,1.5,2.5.17,4.61-.11,6.34-.86,1.73-.75,2.89-1.79,3.47-3.13ZM398.8,327.11c-2.9-.2-5.3.27-7.2,1.41-1.9,1.14-3.18,2.62-3.83,4.44l20.42,1.43c-.06-2.03-.9-3.69-2.53-5-1.63-1.31-3.91-2.06-6.85-2.27ZM395.57,315.23l8.88-8.97,10.39.73-11.78,8.77-7.49-.52Z"/>
    <path class="cls-4" d="M448.63,345.41l7.61.53c-.47,2.03-1.45,3.8-2.95,5.32-1.5,1.51-3.47,2.65-5.91,3.41-2.44.76-5.37,1.02-8.8.78-3.83-.27-7.17-1.12-10.02-2.55-2.85-1.43-5.03-3.38-6.51-5.83-1.49-2.45-2.12-5.33-1.89-8.63.23-3.3,1.23-6.07,3.01-8.32,1.77-2.24,4.15-3.89,7.11-4.93,2.97-1.05,6.38-1.44,10.25-1.17,3.95.28,7.18,1.13,9.71,2.56,2.53,1.43,4.34,3.45,5.43,6.06,1.09,2.61,1.4,5.86.93,9.75l-28.63-2c.09,1.54.57,2.97,1.43,4.29.86,1.31,2.08,2.39,3.66,3.23s3.5,1.34,5.75,1.49c2.5.17,4.61-.11,6.34-.86,1.73-.75,2.89-1.79,3.47-3.13ZM439.76,329.97c-2.9-.2-5.3.27-7.2,1.41-1.9,1.14-3.18,2.62-3.83,4.44l20.42,1.43c-.06-2.03-.9-3.69-2.53-5-1.63-1.31-3.91-2.06-6.85-2.27Z"/>
    <path class="cls-4" d="M461.02,346.27l7.25.51c.35,1.4,1.19,2.58,2.51,3.54,1.33.96,3.12,1.52,5.38,1.68,1.53.11,2.73.05,3.59-.17.87-.22,1.48-.59,1.84-1.12.36-.52.56-1.12.61-1.81.06-.85-.16-1.52-.65-2.02-.49-.5-1.27-.93-2.34-1.29-1.07-.36-2.44-.72-4.11-1.08-1.67-.4-3.28-.86-4.82-1.37-1.54-.51-2.9-1.14-4.06-1.89-1.16-.75-2.06-1.66-2.69-2.74-.63-1.08-.9-2.36-.79-3.85.1-1.45.54-2.71,1.33-3.79.78-1.08,1.84-1.96,3.16-2.63,1.32-.68,2.85-1.16,4.59-1.44,1.74-.28,3.6-.36,5.57-.22,2.98.21,5.43.81,7.34,1.82,1.91,1,3.31,2.31,4.19,3.93.88,1.62,1.25,3.44,1.11,5.45l-6.95-.49c-.22-1.51-.79-2.63-1.71-3.37-.92-.73-2.39-1.17-4.4-1.31-1.97-.14-3.49.06-4.53.59-1.05.53-1.61,1.32-1.68,2.37-.06.85.21,1.52.8,2.03.59.51,1.49.94,2.7,1.31,1.21.37,2.73.78,4.56,1.23,1.55.43,3.02.9,4.42,1.4,1.4.5,2.64,1.11,3.73,1.81,1.08.7,1.92,1.59,2.52,2.67.59,1.07.83,2.39.72,3.96-.13,1.93-.8,3.53-2,4.78-1.2,1.25-2.85,2.16-4.96,2.72-2.1.56-4.58.74-7.44.54-2.54-.18-4.7-.6-6.5-1.27-1.79-.67-3.27-1.48-4.41-2.43-1.15-.95-2.02-1.94-2.61-2.98-.6-1.03-.98-2-1.16-2.9-.18-.9-.21-1.63-.09-2.19Z"/>
    <path class="cls-4" d="M524.73,361.41c-3.02-.21-5.7-1.06-8.05-2.54-2.35-1.48-4.14-3.45-5.38-5.9-1.25-2.45-1.76-5.23-1.54-8.33.22-3.18,1.11-5.89,2.66-8.13,1.55-2.24,3.58-3.93,6.09-5.07,2.51-1.14,5.31-1.6,8.41-1.38,2.7.19,4.96.75,6.8,1.69,1.84.94,3.29,2.16,4.36,3.67,1.07,1.51,1.81,3.23,2.22,5.16.41,1.93.54,4,.39,6.22-.12,1.77-.53,3.55-1.22,5.35-.69,1.79-1.68,3.42-2.95,4.89-1.28,1.47-2.89,2.61-4.85,3.43-1.96.81-4.27,1.13-6.93.94ZM527.69,355.55c2.38.17,4.46-.09,6.25-.78,1.79-.68,3.2-1.72,4.22-3.1,1.03-1.38,1.61-3.02,1.74-4.92.14-2.05-.21-3.83-1.05-5.32-.85-1.5-2.1-2.69-3.76-3.57-1.66-.88-3.67-1.41-6.05-1.58-3.34-.23-6,.47-7.98,2.11-1.98,1.64-3.07,3.91-3.27,6.81-.14,1.93.19,3.65.98,5.14.79,1.49,1.95,2.7,3.48,3.61,1.53.92,3.35,1.45,5.44,1.59ZM541.79,319.63l7.85.55-2.94,42.1-7.31-.51c-.06-.93-.09-2.14-.11-3.62-.02-1.48.02-2.86.11-4.15l2.4-34.37Z"/>
    <path class="cls-4" d="M557.22,339.4l-.94-2.13c.67-.84,1.33-1.8,1.99-2.86.66-1.07,1.05-2.16,1.17-3.29l-3.28-.9.48-6.89,9.24.65-.35,4.95c-.2,2.82-1.03,5.06-2.5,6.71-1.47,1.66-3.41,2.91-5.82,3.75Z"/>
    <path class="cls-4" d="M596.75,355.76l7.61.53c-.47,2.03-1.45,3.8-2.95,5.32-1.5,1.51-3.47,2.65-5.91,3.41-2.44.76-5.37,1.02-8.8.78-3.83-.27-7.17-1.12-10.02-2.55-2.85-1.43-5.03-3.38-6.51-5.83-1.49-2.45-2.12-5.33-1.89-8.63.23-3.3,1.23-6.07,3.01-8.32,1.77-2.24,4.15-3.89,7.11-4.94,2.97-1.05,6.38-1.44,10.25-1.17,3.95.28,7.18,1.13,9.71,2.56,2.53,1.43,4.34,3.45,5.43,6.05,1.09,2.61,1.4,5.86.93,9.75l-28.63-2c.09,1.55.57,2.98,1.43,4.29.86,1.31,2.08,2.39,3.66,3.23,1.58.84,3.5,1.34,5.75,1.5,2.5.17,4.61-.11,6.34-.86,1.73-.75,2.89-1.79,3.47-3.13ZM587.87,340.33c-2.9-.2-5.3.27-7.2,1.41-1.9,1.14-3.18,2.62-3.83,4.44l20.42,1.43c-.06-2.03-.9-3.69-2.53-5-1.63-1.31-3.91-2.06-6.85-2.27ZM584.64,328.45l8.88-8.97,10.39.73-11.78,8.77-7.49-.52Z"/>
    <path class="cls-4" d="M609.21,336.48l23.32,1.63-.43,6.1-23.32-1.63.43-6.1ZM617.51,328.81l7.85.55-2.67,38.24-7.85-.55,2.67-38.24Z"/>
    <path class="cls-4" d="M663.75,355.96l-.08,2.06c-.12.56-.38,1.36-.77,2.4-.4,1.04-.97,2.15-1.72,3.31-.75,1.16-1.69,2.26-2.81,3.3-1.13,1.03-2.48,1.85-4.06,2.45-1.58.6-3.42.82-5.51.68-1.65-.12-3.26-.43-4.82-.94-1.56-.51-2.96-1.29-4.18-2.33s-2.16-2.39-2.81-4.05c-.65-1.66-.89-3.72-.72-6.18l1.27-18.18,7.85.55-1.18,16.85c-.14,1.93.07,3.48.62,4.63.55,1.15,1.41,1.99,2.59,2.52,1.18.53,2.59.85,4.24.96,2.17.15,4.08-.19,5.72-1.03,1.64-.84,3-1.9,4.08-3.21,1.08-1.3,1.85-2.56,2.3-3.79ZM670.17,370.91l-7.85-.55,2.1-30.02,7.85.55-2.1,30.02Z"/>
    <path class="cls-4" d="M691.87,373.1c-3.02-.21-5.7-1.06-8.05-2.54-2.35-1.48-4.14-3.45-5.38-5.9s-1.76-5.23-1.54-8.33c.22-3.18,1.11-5.89,2.66-8.13,1.55-2.24,3.58-3.93,6.09-5.07,2.51-1.14,5.31-1.6,8.41-1.38,2.7.19,4.96.75,6.8,1.69,1.84.94,3.29,2.16,4.36,3.67,1.07,1.51,1.81,3.23,2.22,5.16.41,1.93.54,4,.39,6.22-.12,1.77-.53,3.55-1.22,5.35-.69,1.79-1.68,3.42-2.95,4.89-1.28,1.47-2.89,2.61-4.85,3.43-1.96.81-4.27,1.13-6.92.94ZM694.83,367.24c2.38.17,4.46-.09,6.25-.78,1.79-.68,3.2-1.72,4.22-3.1,1.03-1.38,1.61-3.02,1.74-4.92.14-2.05-.21-3.83-1.05-5.32-.85-1.5-2.1-2.69-3.76-3.57-1.66-.88-3.67-1.41-6.05-1.58-3.34-.23-6,.47-7.98,2.11-1.98,1.64-3.07,3.91-3.27,6.81-.14,1.93.19,3.65.98,5.14.79,1.49,1.95,2.7,3.48,3.61,1.53.92,3.35,1.45,5.44,1.59ZM708.94,331.32l7.85.55-2.94,42.1-7.31-.51c-.06-.93-.09-2.14-.11-3.62-.02-1.48.02-2.86.11-4.15l2.4-34.37Z"/>
    <path class="cls-4" d="M750.36,366.51l7.61.53c-.47,2.03-1.45,3.8-2.95,5.32-1.5,1.51-3.47,2.65-5.91,3.41-2.44.76-5.37,1.02-8.8.78-3.83-.27-7.17-1.12-10.02-2.55-2.85-1.43-5.03-3.38-6.51-5.83-1.49-2.45-2.12-5.33-1.89-8.63.23-3.3,1.23-6.07,3.01-8.32,1.77-2.24,4.15-3.89,7.11-4.94,2.97-1.05,6.38-1.44,10.25-1.17,3.95.28,7.18,1.13,9.72,2.56,2.53,1.43,4.34,3.45,5.43,6.05,1.09,2.61,1.4,5.86.93,9.75l-28.63-2c.09,1.55.57,2.98,1.43,4.29.86,1.31,2.08,2.39,3.66,3.23,1.58.84,3.5,1.34,5.75,1.5,2.5.17,4.61-.11,6.34-.86,1.73-.75,2.89-1.79,3.47-3.13ZM741.49,351.08c-2.9-.2-5.3.27-7.2,1.41-1.9,1.14-3.18,2.62-3.83,4.44l20.42,1.43c-.06-2.03-.91-3.69-2.53-5-1.63-1.31-3.91-2.06-6.85-2.27Z"/>
    <path class="cls-4" d="M762.75,367.37l7.25.51c.35,1.4,1.19,2.58,2.51,3.54s3.12,1.52,5.38,1.68c1.53.11,2.73.05,3.59-.17.87-.22,1.48-.59,1.84-1.11.36-.52.56-1.12.61-1.81.06-.85-.16-1.52-.65-2.02-.49-.5-1.27-.93-2.34-1.29-1.07-.36-2.44-.72-4.11-1.08-1.67-.4-3.28-.86-4.82-1.37-1.54-.51-2.89-1.14-4.06-1.89-1.16-.75-2.06-1.66-2.69-2.74s-.9-2.36-.79-3.85c.1-1.45.54-2.71,1.33-3.79.78-1.08,1.84-1.96,3.16-2.63,1.32-.68,2.85-1.16,4.59-1.44,1.74-.28,3.6-.36,5.57-.22,2.98.21,5.43.82,7.34,1.82,1.91,1,3.31,2.31,4.19,3.93.88,1.62,1.25,3.44,1.11,5.45l-6.95-.49c-.22-1.51-.79-2.64-1.71-3.37-.92-.73-2.39-1.17-4.4-1.31-1.97-.14-3.48.06-4.53.59-1.05.53-1.61,1.32-1.68,2.37-.06.85.21,1.52.8,2.03.59.51,1.49.94,2.7,1.31,1.21.37,2.73.78,4.56,1.23,1.55.43,3.02.9,4.42,1.4,1.4.5,2.64,1.11,3.73,1.81,1.08.7,1.92,1.59,2.52,2.67.59,1.07.83,2.4.72,3.97-.14,1.93-.8,3.52-2,4.78-1.2,1.25-2.85,2.16-4.95,2.72-2.1.56-4.59.74-7.44.54-2.54-.18-4.7-.6-6.5-1.27-1.79-.67-3.27-1.48-4.41-2.43-1.15-.95-2.02-1.94-2.61-2.98-.6-1.03-.98-2-1.16-2.9s-.21-1.63-.09-2.19Z"/>
    <path class="cls-4" d="M299.43,400.13l7.25.51c.35,1.4,1.19,2.58,2.51,3.54,1.33.96,3.12,1.52,5.38,1.68,1.53.11,2.73.05,3.59-.17.87-.22,1.48-.59,1.84-1.12.36-.52.56-1.12.61-1.81.06-.85-.16-1.52-.65-2.02-.49-.5-1.27-.93-2.34-1.29-1.07-.36-2.44-.72-4.11-1.08-1.67-.4-3.28-.86-4.82-1.37-1.54-.51-2.89-1.14-4.06-1.89-1.16-.75-2.06-1.66-2.69-2.74-.63-1.08-.9-2.36-.79-3.85.1-1.45.54-2.71,1.33-3.79.78-1.08,1.84-1.96,3.16-2.63,1.32-.68,2.85-1.16,4.59-1.44,1.74-.28,3.6-.36,5.57-.22,2.98.21,5.43.81,7.34,1.82,1.91,1,3.31,2.32,4.19,3.93.88,1.62,1.25,3.44,1.11,5.45l-6.95-.49c-.22-1.51-.79-2.64-1.71-3.37s-2.39-1.17-4.4-1.31c-1.97-.14-3.48.06-4.53.59-1.05.53-1.61,1.33-1.68,2.37-.06.85.21,1.52.8,2.03.59.51,1.49.94,2.7,1.31,1.21.37,2.73.78,4.56,1.23,1.55.43,3.02.9,4.42,1.4,1.4.5,2.64,1.11,3.73,1.81,1.08.71,1.92,1.59,2.52,2.67.59,1.07.83,2.4.72,3.97-.14,1.93-.8,3.52-2,4.78-1.2,1.25-2.85,2.16-4.96,2.72-2.1.56-4.58.74-7.44.54-2.54-.18-4.7-.6-6.5-1.27-1.79-.67-3.27-1.48-4.41-2.43-1.15-.95-2.02-1.94-2.61-2.98-.59-1.03-.98-2-1.16-2.9-.18-.9-.21-1.63-.09-2.19Z"/>
    <path class="cls-4" d="M362.32,400.04l-.08,2.06c-.12.56-.38,1.36-.77,2.4-.4,1.04-.97,2.15-1.72,3.31-.75,1.16-1.69,2.26-2.81,3.29-1.13,1.04-2.48,1.85-4.06,2.45-1.58.6-3.42.82-5.51.68-1.65-.12-3.26-.43-4.82-.94-1.56-.51-2.96-1.29-4.18-2.33-1.22-1.04-2.16-2.39-2.81-4.05-.65-1.66-.89-3.72-.72-6.18l1.27-18.18,7.85.55-1.18,16.85c-.14,1.93.07,3.48.62,4.63.55,1.15,1.41,1.99,2.59,2.52,1.18.53,2.59.85,4.24.96,2.18.15,4.08-.19,5.72-1.03,1.64-.84,3-1.9,4.08-3.21,1.08-1.3,1.85-2.56,2.3-3.79ZM368.74,414.99l-7.85-.55,2.1-30.02,7.85.55-2.1,30.02Z"/>
    <path class="cls-4" d="M377.97,385.47l7.49.52-.19,8-2.39,34.13-7.85-.55,2.94-42.1ZM397.68,417.75c-2.66-.19-4.89-.82-6.7-1.89-1.81-1.08-3.24-2.43-4.3-4.06-1.06-1.63-1.81-3.39-2.24-5.29-.44-1.89-.59-3.72-.47-5.5.15-2.21.57-4.25,1.25-6.1.68-1.86,1.65-3.46,2.92-4.8,1.27-1.35,2.87-2.36,4.79-3.03,1.93-.67,4.24-.92,6.94-.73,3.02.21,5.69,1.07,8.02,2.56,2.32,1.5,4.12,3.47,5.38,5.93,1.26,2.46,1.79,5.24,1.57,8.33-.22,3.18-1.14,5.9-2.76,8.15-1.61,2.25-3.68,3.94-6.18,5.06-2.51,1.12-5.25,1.58-8.23,1.37ZM395.57,411.47c2.13.15,4.02-.12,5.67-.82,1.65-.69,2.95-1.72,3.92-3.09.96-1.37,1.52-3.02,1.65-4.95.2-2.9-.55-5.3-2.26-7.2-1.71-1.9-4.25-2.97-7.64-3.21-2.13-.15-4.1.1-5.91.74-1.81.64-3.26,1.64-4.37,3-1.11,1.36-1.73,3.07-1.88,5.12-.14,1.93.21,3.65,1.04,5.14.83,1.5,2.08,2.71,3.75,3.63,1.67.93,3.68,1.47,6.02,1.63Z"/>
    <path class="cls-4" d="M447.66,410.5l7.61.53c-.47,2.03-1.45,3.8-2.95,5.32-1.5,1.51-3.47,2.65-5.91,3.41-2.44.76-5.37,1.02-8.8.78-3.83-.27-7.17-1.12-10.02-2.55-2.85-1.43-5.02-3.38-6.51-5.83-1.49-2.45-2.12-5.33-1.89-8.63.23-3.3,1.23-6.07,3.01-8.32,1.77-2.24,4.15-3.89,7.11-4.93,2.97-1.05,6.38-1.44,10.25-1.17,3.95.28,7.18,1.13,9.71,2.56,2.53,1.43,4.34,3.45,5.43,6.06,1.09,2.61,1.4,5.85.93,9.75l-28.63-2c.09,1.55.57,2.97,1.43,4.29.86,1.32,2.08,2.39,3.66,3.23,1.58.84,3.5,1.34,5.75,1.5,2.5.17,4.61-.11,6.34-.86,1.73-.75,2.89-1.79,3.47-3.12ZM438.79,395.07c-2.9-.2-5.3.27-7.2,1.41-1.9,1.14-3.18,2.62-3.83,4.44l20.42,1.43c-.06-2.03-.9-3.69-2.53-5-1.63-1.31-3.91-2.06-6.85-2.27ZM435.55,383.19l8.88-8.97,10.39.73-11.78,8.77-7.49-.52Z"/>
    <path class="cls-4" d="M462.66,391.39l7.85.55-2.1,30.02-7.85-.55,2.1-30.02ZM481.6,399.21c-2.26-.16-4.24.14-5.95.89-1.71.75-3.12,1.72-4.21,2.89-1.09,1.18-1.88,2.34-2.37,3.48l.17-3.33c.07-.48.28-1.18.63-2.11.35-.93.84-1.92,1.48-2.99.64-1.07,1.46-2.08,2.46-3.04,1-.96,2.18-1.72,3.56-2.27,1.37-.55,2.95-.76,4.72-.64l-.5,7.13Z"/>
    <path class="cls-4" d="M487.36,393.12l7.85.55-2.1,30.02-7.85-.55,2.1-30.02ZM496.8,380.55l-.48,6.89-9.12-.64.48-6.89,9.12.64Z"/>
    <path class="cls-4" d="M529.03,416.19l7.61.53c-.47,2.03-1.45,3.8-2.95,5.32-1.5,1.51-3.47,2.65-5.91,3.41-2.44.76-5.37,1.02-8.8.78-3.83-.27-7.17-1.12-10.02-2.55-2.85-1.43-5.03-3.38-6.51-5.83-1.49-2.45-2.12-5.33-1.89-8.63.23-3.3,1.23-6.07,3.01-8.32,1.77-2.24,4.15-3.89,7.11-4.93,2.97-1.05,6.38-1.44,10.25-1.17,3.95.28,7.18,1.13,9.72,2.56,2.53,1.43,4.34,3.45,5.43,6.05,1.09,2.61,1.4,5.85.93,9.75l-28.63-2c.09,1.54.57,2.97,1.43,4.29.86,1.32,2.08,2.39,3.66,3.23,1.58.84,3.5,1.34,5.75,1.49,2.5.17,4.61-.11,6.34-.86,1.73-.75,2.89-1.79,3.47-3.13ZM520.15,400.76c-2.9-.2-5.3.27-7.2,1.41-1.9,1.14-3.18,2.62-3.83,4.44l20.42,1.43c-.06-2.03-.91-3.7-2.53-5-1.63-1.31-3.91-2.06-6.85-2.27Z"/>
    <path class="cls-4" d="M570.24,414.58l-.08,2.06c-.12.56-.38,1.36-.77,2.4-.4,1.04-.97,2.15-1.72,3.31-.75,1.16-1.69,2.26-2.81,3.29-1.12,1.04-2.48,1.85-4.06,2.45-1.58.6-3.42.82-5.51.68-1.65-.12-3.26-.43-4.82-.94-1.56-.51-2.95-1.29-4.18-2.33-1.22-1.04-2.16-2.39-2.81-4.05-.65-1.66-.89-3.72-.72-6.18l1.27-18.18,7.85.55-1.18,16.85c-.14,1.93.07,3.48.62,4.63.55,1.15,1.41,1.99,2.59,2.52,1.18.53,2.59.85,4.24.96,2.17.15,4.08-.19,5.72-1.03,1.64-.83,3-1.9,4.08-3.2,1.08-1.3,1.85-2.56,2.3-3.79ZM576.66,429.53l-7.85-.55,2.1-30.02,7.85.55-2.1,30.02Z"/>
    <path class="cls-4" d="M585.89,400.01l7.85.55-2.1,30.02-7.85-.55,2.1-30.02ZM604.82,407.83c-2.26-.16-4.24.14-5.95.89-1.71.75-3.12,1.72-4.21,2.89-1.09,1.18-1.88,2.34-2.37,3.48l.17-3.33c.07-.48.28-1.18.63-2.11.35-.93.84-1.92,1.48-2.99.64-1.07,1.46-2.08,2.46-3.04,1-.96,2.18-1.72,3.56-2.27s2.95-.77,4.72-.64l-.5,7.13Z"/>
    <path class="cls-4" d="M636.07,423.67l7.61.53c-.47,2.03-1.45,3.8-2.95,5.32-1.5,1.51-3.47,2.65-5.91,3.41-2.44.76-5.37,1.02-8.8.78-3.83-.27-7.17-1.12-10.02-2.55-2.85-1.43-5.03-3.38-6.51-5.83-1.49-2.45-2.12-5.33-1.89-8.63.23-3.3,1.23-6.07,3.01-8.32,1.77-2.24,4.15-3.89,7.11-4.93,2.97-1.05,6.38-1.44,10.25-1.17,3.95.28,7.18,1.13,9.71,2.56,2.53,1.43,4.34,3.45,5.43,6.05,1.09,2.61,1.4,5.85.93,9.75l-28.63-2c.09,1.54.57,2.97,1.43,4.29.86,1.32,2.08,2.39,3.66,3.23,1.58.84,3.5,1.34,5.75,1.49,2.5.17,4.61-.11,6.34-.86,1.73-.75,2.89-1.79,3.47-3.13ZM627.19,408.24c-2.9-.2-5.3.27-7.2,1.41-1.9,1.14-3.18,2.62-3.83,4.44l20.42,1.43c-.06-2.03-.9-3.7-2.53-5-1.63-1.31-3.91-2.06-6.85-2.27Z"/>
    <path class="cls-4" d="M648.45,424.54l7.25.51c.35,1.4,1.19,2.58,2.51,3.54,1.33.96,3.12,1.52,5.38,1.68,1.53.11,2.73.05,3.59-.17.87-.22,1.48-.59,1.84-1.12.36-.52.56-1.12.61-1.81.06-.85-.16-1.52-.65-2.02-.49-.5-1.27-.93-2.34-1.29-1.07-.36-2.44-.72-4.11-1.08-1.67-.4-3.28-.86-4.82-1.37-1.54-.51-2.89-1.14-4.06-1.89-1.16-.75-2.06-1.66-2.69-2.74s-.9-2.36-.79-3.85c.1-1.45.54-2.71,1.33-3.79.78-1.08,1.84-1.96,3.16-2.63,1.32-.68,2.85-1.16,4.59-1.44,1.74-.28,3.6-.36,5.57-.22,2.98.21,5.43.81,7.34,1.82,1.91,1,3.31,2.32,4.19,3.93.88,1.62,1.25,3.44,1.11,5.45l-6.95-.49c-.22-1.51-.79-2.64-1.71-3.37-.92-.73-2.39-1.17-4.4-1.31-1.97-.14-3.48.06-4.53.59-1.05.53-1.61,1.33-1.68,2.37-.06.85.21,1.52.8,2.03.59.51,1.49.94,2.7,1.31,1.21.37,2.73.78,4.56,1.23,1.55.43,3.02.9,4.42,1.4,1.4.5,2.64,1.11,3.73,1.81,1.08.71,1.92,1.59,2.51,2.67.59,1.07.83,2.39.72,3.96-.14,1.93-.8,3.52-2,4.78-1.2,1.25-2.85,2.16-4.96,2.72-2.1.56-4.58.74-7.44.54-2.54-.18-4.7-.6-6.5-1.27-1.8-.67-3.27-1.48-4.41-2.43-1.15-.95-2.02-1.94-2.61-2.98-.6-1.03-.98-2-1.16-2.9-.18-.9-.21-1.63-.09-2.19Z"/>
  </g>
  <g>
    <path class="cls-4" d="M84.31,455.03c.13-1.91.47-3.89,1.01-5.95.54-2.06,1.21-4.04,2.03-5.92s1.71-3.52,2.69-4.9l3.07.21c-1.03,1.77-1.94,3.63-2.74,5.57-.8,1.94-1.44,3.87-1.93,5.78-.49,1.91-.79,3.72-.91,5.43-.11,1.56-.06,3.14.14,4.75.2,1.61.56,3.33,1.09,5.15.52,1.82,1.22,3.8,2.08,5.96l-3.07-.21c-1.31-2.64-2.25-5.31-2.84-7.99-.58-2.69-.78-5.31-.6-7.87Z"/>
    <path class="cls-4" d="M96.01,466.55l1.83-26.15,4.74.33,5.29,16.95c.12.4.26.89.42,1.48.15.59.31,1.24.48,1.93.17.69.33,1.38.48,2.07.15.69.28,1.32.4,1.91l-.74-.05c.2-.53.42-1.11.67-1.76.24-.65.5-1.31.76-1.97.26-.67.52-1.3.76-1.88.24-.58.45-1.07.63-1.45l7.51-16.05,4.76.33-1.83,26.15-3.28-.23,1.04-14.93c.04-.54.08-1.15.14-1.84.05-.69.12-1.41.19-2.17s.14-1.53.21-2.31c.07-.78.14-1.54.2-2.28l.28.02c-.3.79-.62,1.59-.95,2.41-.33.82-.66,1.61-.98,2.37-.32.76-.61,1.45-.89,2.08-.28.63-.52,1.15-.71,1.56l-6.89,14.52-2.9-.2-4.89-15.35c-.13-.42-.29-.95-.47-1.59-.18-.64-.37-1.35-.58-2.14-.21-.78-.43-1.61-.65-2.48-.22-.87-.45-1.74-.68-2.61l.32.02c-.02.66-.05,1.37-.09,2.13-.04.76-.07,1.53-.12,2.31-.04.78-.08,1.53-.12,2.25-.04.72-.08,1.37-.12,1.94l-1.04,14.93-3.18-.22Z"/>
    <path class="cls-4" d="M133.55,469.64c-1.24-.09-2.35-.4-3.33-.94-.98-.54-1.74-1.28-2.27-2.22-.53-.94-.76-2.06-.67-3.34.08-1.12.36-2.02.86-2.69.49-.67,1.12-1.18,1.9-1.53.77-.35,1.61-.6,2.53-.73.92-.14,1.83-.23,2.75-.28,1.18-.07,2.14-.12,2.88-.15.74-.03,1.3-.13,1.67-.31.37-.17.57-.5.61-.98v-.11c.06-.82-.04-1.52-.3-2.11-.27-.59-.69-1.06-1.28-1.4-.59-.35-1.34-.55-2.25-.62-.94-.07-1.75.02-2.44.27-.69.25-1.25.57-1.7.98-.45.41-.79.83-1.03,1.28l-2.96-1.21c.59-1.16,1.33-2.04,2.23-2.66.9-.61,1.88-1.02,2.92-1.23,1.05-.21,2.08-.28,3.08-.21.66.05,1.4.18,2.22.39.82.22,1.61.59,2.35,1.11.75.52,1.34,1.26,1.79,2.21.44.95.61,2.2.51,3.73l-.9,12.93-3.11-.22.19-2.67h-.21c-.25.43-.65.87-1.17,1.32-.52.45-1.19.81-2,1.09-.81.27-1.77.37-2.88.29ZM134.29,466.89c1.17.08,2.17-.08,3.01-.48.84-.4,1.49-.95,1.97-1.65.47-.7.74-1.45.79-2.25l.19-2.72c-.14.14-.43.26-.87.35-.44.09-.94.17-1.51.22-.56.05-1.11.1-1.63.12-.53.03-.94.05-1.25.06-.77.04-1.49.15-2.17.33-.68.18-1.23.48-1.66.89-.43.41-.67.99-.72,1.74-.05.68.09,1.26.41,1.74.32.48.78.86,1.37,1.14.59.28,1.28.44,2.06.5Z"/>
    <path class="cls-4" d="M154.91,471.1c-1.34-.09-2.53-.37-3.55-.84-1.02-.47-1.84-1.11-2.47-1.93-.63-.82-1.02-1.8-1.17-2.94l3.05-.51c.21,1.1.68,1.92,1.42,2.48s1.7.88,2.87.96c1.37.1,2.48-.12,3.33-.65.85-.53,1.31-1.2,1.37-2,.05-.68-.15-1.26-.59-1.74-.44-.48-1.14-.87-2.1-1.16l-3.21-1c-1.75-.54-3.02-1.29-3.83-2.23-.8-.94-1.16-2.11-1.06-3.49.08-1.12.46-2.09,1.16-2.91s1.6-1.43,2.73-1.84c1.13-.41,2.39-.56,3.78-.47,1.34.09,2.47.38,3.39.85.91.47,1.64,1.08,2.18,1.83.54.75.93,1.6,1.15,2.54l-2.91.54c-.22-.72-.62-1.39-1.21-2.01-.59-.62-1.51-.97-2.77-1.06-1.17-.08-2.16.12-2.98.6-.81.48-1.25,1.14-1.31,1.95-.05.73.17,1.33.67,1.8.49.48,1.31.89,2.43,1.24l2.92.91c1.75.55,3.02,1.29,3.81,2.23.79.94,1.14,2.09,1.05,3.43-.08,1.15-.48,2.15-1.19,2.99-.71.85-1.67,1.49-2.87,1.92-1.2.43-2.57.6-4.1.49Z"/>
    <path class="cls-4" d="M176.33,452.46l-.19,2.7-10.14-.71.19-2.7,10.14.71ZM169.47,447.28l3.16.22-1.34,19.2c-.06.88.07,1.53.4,1.96.33.43.91.67,1.74.73.2.01.46,0,.77-.02.31-.03.6-.05.86-.08l.46,2.71c-.34.09-.71.16-1.13.19-.42.03-.83.03-1.24,0-1.7-.12-2.99-.66-3.87-1.62-.88-.96-1.27-2.24-1.16-3.85l1.36-19.44Z"/>
    <path class="cls-4" d="M186.86,473.33c-1.9-.13-3.5-.67-4.82-1.61-1.32-.94-2.29-2.19-2.93-3.75-.64-1.56-.89-3.35-.74-5.36.14-2.01.63-3.76,1.46-5.24.83-1.48,1.94-2.61,3.33-3.38,1.39-.77,2.97-1.1,4.75-.97,1.04.07,2.06.32,3.04.73.99.42,1.87,1.04,2.64,1.86.77.82,1.36,1.88,1.76,3.16.4,1.29.54,2.84.42,4.65l-.09,1.32-15.23-1.07.19-2.67,13.53.95-1.54.88c.09-1.29-.03-2.44-.37-3.47-.33-1.03-.88-1.85-1.63-2.48-.76-.62-1.73-.98-2.91-1.06-1.18-.08-2.21.14-3.1.66-.88.52-1.58,1.23-2.09,2.13-.51.9-.8,1.88-.88,2.95l-.12,1.77c-.1,1.45.06,2.7.5,3.75.43,1.05,1.08,1.86,1.95,2.45.87.58,1.9.92,3.1,1,.77.05,1.48,0,2.13-.19.65-.18,1.21-.48,1.7-.9.49-.42.88-.95,1.17-1.6l2.99,1.06c-.37.96-.95,1.79-1.73,2.49-.78.7-1.72,1.22-2.82,1.57-1.1.35-2.32.47-3.67.38Z"/>
    <path class="cls-4" d="M199.6,473.8l1.37-19.62,3.05.21-.21,3.02h.21c.43-.95,1.13-1.71,2.11-2.25.97-.54,2.04-.77,3.21-.68.23.02.51.04.83.08.32.03.58.06.76.09l-.22,3.18c-.09-.03-.32-.08-.69-.15-.37-.07-.77-.12-1.19-.15-.94-.07-1.79.07-2.56.41-.77.34-1.39.84-1.86,1.49-.47.65-.73,1.43-.8,2.32l-.86,12.28-3.16-.22Z"/>
    <path class="cls-4" d="M233.75,449.91l-1.83,26.15-3.28-.23,1.61-23.06h-.18s-6.65,4.23-6.65,4.23l.25-3.58,5.98-3.8,4.09.29Z"/>
    <path class="cls-4" d="M256.18,478.18c-1.9-.13-3.5-.67-4.82-1.61-1.32-.94-2.29-2.19-2.93-3.75-.64-1.56-.89-3.35-.74-5.36s.63-3.76,1.46-5.24c.83-1.48,1.94-2.61,3.33-3.38,1.39-.77,2.97-1.1,4.75-.97,1.04.07,2.06.32,3.04.73.99.42,1.87,1.04,2.64,1.86.77.82,1.36,1.88,1.76,3.16.4,1.29.54,2.84.42,4.65l-.09,1.32-15.23-1.06.19-2.67,13.53.95-1.54.88c.09-1.29-.03-2.44-.37-3.47-.33-1.03-.88-1.85-1.63-2.48-.76-.62-1.73-.98-2.91-1.06s-2.21.14-3.1.66-1.58,1.23-2.09,2.13c-.51.9-.8,1.88-.88,2.95l-.12,1.77c-.1,1.45.06,2.7.5,3.75.43,1.05,1.08,1.86,1.95,2.45.87.58,1.9.92,3.1,1,.77.05,1.48,0,2.13-.19.65-.18,1.21-.48,1.7-.9.49-.42.88-.95,1.17-1.6l3,1.06c-.37.96-.95,1.79-1.73,2.49-.78.7-1.72,1.22-2.82,1.57-1.1.35-2.32.47-3.67.38Z"/>
    <path class="cls-4" d="M272.9,467.11l-.82,11.76-3.16-.22,1.37-19.62,3.04.21-.31,4.76-.44-.03c.72-1.77,1.67-3,2.82-3.68s2.48-.97,3.97-.87c1.32.09,2.46.45,3.42,1.06s1.67,1.49,2.15,2.62c.48,1.13.66,2.53.54,4.19l-.87,12.46-3.16-.22.85-12.2c.11-1.51-.21-2.72-.94-3.63-.73-.91-1.78-1.41-3.15-1.51-.93-.07-1.79.08-2.57.44-.78.36-1.41.91-1.9,1.67-.49.75-.77,1.69-.85,2.81Z"/>
    <path class="cls-4" d="M307.58,481.77c-1.63-.11-3.04-.63-4.23-1.55-1.19-.92-2.09-2.16-2.69-3.73-.59-1.57-.82-3.4-.67-5.48.15-2.07.62-3.84,1.44-5.3.81-1.47,1.88-2.56,3.19-3.3,1.31-.73,2.78-1.04,4.4-.93,1.28.09,2.27.37,2.99.84.72.47,1.26.99,1.63,1.55.37.56.64,1.02.83,1.39l.25.02.68-9.67,3.16.22-1.83,26.15-3.05-.21.21-3.04-.35-.02c-.24.35-.58.78-1.03,1.29-.45.51-1.07.96-1.86,1.33-.78.37-1.8.52-3.05.43ZM308.25,478.98c1.19.08,2.22-.16,3.08-.73.86-.57,1.54-1.39,2.04-2.48.5-1.08.8-2.35.9-3.8.1-1.45-.02-2.73-.36-3.84-.34-1.11-.9-2-1.67-2.67-.78-.67-1.77-1.04-2.97-1.12-1.24-.09-2.3.16-3.17.75-.87.59-1.55,1.41-2.03,2.48-.49,1.07-.78,2.28-.87,3.63-.1,1.37.02,2.63.36,3.77.34,1.15.9,2.08,1.68,2.8.78.72,1.79,1.12,3,1.21Z"/>
    <path class="cls-4" d="M322.26,482.38l1.37-19.62,3.05.21-.21,3.02h.21c.43-.95,1.13-1.71,2.11-2.24s2.04-.77,3.21-.68c.23.02.51.04.83.08.32.03.58.06.76.09l-.22,3.18c-.09-.03-.32-.08-.69-.15-.37-.07-.77-.12-1.19-.15-.94-.07-1.79.07-2.56.41-.77.34-1.39.84-1.86,1.49-.47.65-.73,1.43-.8,2.32l-.86,12.28-3.16-.22Z"/>
    <path class="cls-4" d="M343.15,484.26c-1.78-.12-3.31-.65-4.59-1.59-1.28-.94-2.24-2.19-2.88-3.76-.64-1.57-.89-3.37-.75-5.38.14-2.05.64-3.81,1.5-5.28.86-1.47,1.98-2.59,3.38-3.33,1.4-.75,2.99-1.06,4.77-.94,1.79.12,3.33.66,4.61,1.59,1.29.94,2.25,2.19,2.89,3.77.64,1.58.89,3.39.75,5.44-.14,2.01-.64,3.75-1.49,5.22-.85,1.47-1.98,2.58-3.39,3.33-1.4.75-3,1.06-4.79.93ZM343.35,481.43c1.32.09,2.43-.17,3.34-.79.9-.62,1.6-1.47,2.08-2.54.49-1.08.78-2.26.87-3.55.09-1.3-.03-2.52-.36-3.67-.33-1.15-.9-2.09-1.71-2.83-.81-.74-1.87-1.16-3.19-1.25-1.31-.09-2.41.17-3.3.8-.89.63-1.58,1.48-2.07,2.56-.49,1.08-.78,2.28-.87,3.59-.09,1.29.03,2.5.36,3.63.33,1.13.9,2.07,1.69,2.81.79.74,1.85,1.15,3.16,1.24Z"/>
    <path class="cls-4" d="M356.75,484.79l1.37-19.62,3.16.22-1.37,19.62-3.16-.22ZM359.94,462.07c-.6-.04-1.1-.28-1.5-.72-.4-.44-.59-.95-.55-1.52.04-.58.29-1.06.75-1.44.46-.37.99-.54,1.59-.5.61.04,1.11.28,1.52.71.4.43.59.94.54,1.53-.04.57-.29,1.05-.75,1.43-.46.38-1,.55-1.61.5Z"/>
    <path class="cls-4" d="M374.54,466.32l-.19,2.7-10.14-.71.19-2.7,10.14.71ZM367.68,461.15l3.16.22-1.34,19.2c-.06.88.07,1.53.4,1.96.33.43.91.67,1.74.73.2.01.46,0,.77-.02.31-.03.6-.05.86-.08l.46,2.71c-.34.09-.71.16-1.13.19-.42.03-.83.03-1.24,0-1.7-.12-2.99-.66-3.87-1.62-.89-.96-1.27-2.24-1.16-3.85l1.36-19.44Z"/>
    <path class="cls-4" d="M376.24,492.48l2.24-9.84,3.62.25-3.43,9.76-2.42-.17Z"/>
    <path class="cls-4" d="M403.22,461.76l-1.83,26.15-3.33-.23,1.83-26.15,3.33.23Z"/>
    <path class="cls-4" d="M411.3,476.79l-.82,11.76-3.16-.22,1.37-19.62,3.04.21-.31,4.76-.44-.03c.72-1.77,1.67-3,2.82-3.68s2.48-.97,3.97-.87c1.32.09,2.46.45,3.42,1.06.96.61,1.67,1.49,2.15,2.62.48,1.13.66,2.53.54,4.19l-.87,12.46-3.16-.22.85-12.2c.11-1.51-.21-2.72-.94-3.63s-1.78-1.41-3.15-1.51c-.94-.07-1.79.08-2.57.44-.78.36-1.41.91-1.9,1.67-.49.75-.77,1.69-.85,2.81Z"/>
    <path class="cls-4" d="M435.19,490.7c-1.34-.09-2.53-.37-3.55-.84-1.02-.47-1.84-1.11-2.47-1.93-.63-.82-1.02-1.8-1.17-2.94l3.05-.51c.21,1.1.68,1.92,1.42,2.48.74.56,1.7.88,2.87.96,1.37.1,2.48-.12,3.33-.65.85-.53,1.31-1.2,1.37-2,.05-.68-.15-1.26-.59-1.74-.44-.48-1.14-.87-2.1-1.16l-3.21-1c-1.75-.54-3.02-1.29-3.83-2.23-.8-.94-1.16-2.11-1.06-3.49.08-1.12.46-2.09,1.16-2.91.69-.82,1.6-1.43,2.73-1.84,1.13-.41,2.39-.56,3.78-.47,1.34.09,2.47.38,3.39.85.91.47,1.64,1.08,2.18,1.83.54.75.93,1.6,1.15,2.54l-2.91.54c-.22-.72-.62-1.39-1.21-2.01-.59-.62-1.51-.97-2.77-1.06-1.17-.08-2.16.12-2.98.6-.81.48-1.25,1.14-1.31,1.95-.05.73.17,1.33.67,1.8.49.48,1.31.89,2.43,1.24l2.92.91c1.75.55,3.02,1.29,3.81,2.23.79.94,1.14,2.09,1.05,3.43-.08,1.15-.48,2.15-1.19,2.99-.71.85-1.67,1.49-2.87,1.92-1.2.43-2.57.6-4.1.49Z"/>
    <path class="cls-4" d="M456.62,472.06l-.19,2.7-10.14-.71.19-2.7,10.14.71ZM449.75,466.89l3.16.22-1.34,19.2c-.06.88.07,1.53.4,1.96.33.43.91.67,1.74.73.2.01.46,0,.77-.02.31-.02.6-.05.86-.08l.46,2.71c-.34.09-.71.16-1.13.19-.42.03-.83.03-1.24,0-1.7-.12-2.99-.66-3.87-1.62-.88-.96-1.27-2.24-1.16-3.85l1.36-19.44Z"/>
    <path class="cls-4" d="M459.28,491.96l1.37-19.62,3.16.22-1.37,19.62-3.16-.22ZM462.48,469.24c-.6-.04-1.1-.28-1.5-.72-.4-.44-.59-.95-.55-1.52.04-.58.29-1.06.75-1.44s.99-.54,1.59-.5c.61.04,1.11.28,1.52.71.4.43.59.94.54,1.53-.04.57-.29,1.05-.75,1.43-.46.38-1,.55-1.61.5Z"/>
    <path class="cls-4" d="M477.08,473.49l-.19,2.7-10.14-.71.19-2.7,10.14.71ZM470.21,468.32l3.16.22-1.34,19.2c-.06.88.07,1.53.4,1.96.33.43.91.67,1.74.73.2.01.46,0,.77-.02.31-.03.6-.05.86-.08l.46,2.71c-.34.09-.71.16-1.13.19-.42.03-.83.03-1.24,0-1.7-.12-2.99-.66-3.87-1.62-.88-.96-1.27-2.24-1.16-3.85l1.36-19.44Z"/>
    <path class="cls-4" d="M486.38,494.1c-1.32-.09-2.46-.44-3.43-1.06-.96-.61-1.68-1.49-2.16-2.63-.48-1.14-.66-2.53-.55-4.18l.87-12.46,3.16.22-.85,12.2c-.11,1.51.21,2.72.95,3.63.74.91,1.79,1.41,3.16,1.51.94.07,1.79-.08,2.56-.44.77-.36,1.4-.92,1.89-1.68.49-.76.77-1.69.85-2.81l.82-11.76,3.18.22-1.37,19.62-3.05-.21.33-4.76.42.03c-.74,1.79-1.69,3.03-2.86,3.7-1.17.67-2.47.95-3.91.85Z"/>
    <path class="cls-4" d="M510.09,475.8l-.19,2.7-10.14-.71.19-2.7,10.14.71ZM503.22,470.62l3.16.22-1.34,19.2c-.06.88.07,1.53.4,1.96.33.43.91.67,1.74.73.2.01.46,0,.77-.02.31-.03.6-.05.86-.08l.46,2.71c-.34.09-.71.16-1.13.19-.42.03-.83.03-1.24,0-1.7-.12-2.99-.66-3.87-1.62-.89-.96-1.27-2.24-1.16-3.85l1.36-19.44Z"/>
    <path class="cls-4" d="M530.18,497.34c-1.63-.11-3.04-.63-4.23-1.55-1.2-.92-2.09-2.16-2.69-3.73-.59-1.57-.82-3.4-.67-5.48.15-2.07.62-3.84,1.44-5.3.81-1.47,1.88-2.56,3.18-3.3,1.31-.73,2.78-1.04,4.4-.93,1.28.09,2.27.37,2.99.84.72.47,1.26.99,1.63,1.55.37.56.64,1.02.83,1.39l.25.02.68-9.67,3.16.22-1.83,26.15-3.05-.21.21-3.04-.35-.02c-.24.35-.58.78-1.03,1.29-.45.52-1.07.96-1.86,1.33-.78.37-1.8.52-3.05.43ZM530.85,494.55c1.19.08,2.22-.16,3.08-.73s1.54-1.39,2.04-2.48c.5-1.08.8-2.35.9-3.8.1-1.45-.02-2.73-.36-3.84-.34-1.11-.9-2-1.67-2.67-.78-.67-1.77-1.04-2.97-1.12-1.24-.09-2.29.16-3.16.75-.87.59-1.55,1.41-2.04,2.48-.49,1.06-.78,2.28-.87,3.63-.1,1.37.02,2.63.36,3.77.34,1.15.9,2.08,1.68,2.8.78.72,1.78,1.12,3,1.21Z"/>
    <path class="cls-4" d="M546.03,481.75l2.24-9.84,3.62.25-3.43,9.76-2.42-.17Z"/>
    <path class="cls-4" d="M554.62,498.63l1.83-26.15,15.93,1.11-.21,2.95-12.6-.88-.6,8.53,11.74.82-.21,2.95-11.74-.82-.61,8.77,12.76.89-.21,2.95-16.09-1.13ZM563.3,470.38l2.82-4.99,3.53.25-3.76,4.92-2.58-.18Z"/>
    <path class="cls-4" d="M584.93,481.03l-.19,2.7-10.14-.71.19-2.7,10.14.71ZM578.06,475.86l3.16.22-1.34,19.2c-.06.88.07,1.53.4,1.96.33.43.91.67,1.74.73.2.01.46,0,.77-.02.31-.02.6-.05.86-.08l.46,2.71c-.34.09-.71.16-1.13.19-.42.03-.83.03-1.24,0-1.7-.12-2.99-.66-3.87-1.62-.89-.96-1.27-2.24-1.16-3.85l1.36-19.44Z"/>
    <path class="cls-4" d="M594.23,501.64c-1.32-.09-2.46-.45-3.42-1.06-.96-.61-1.68-1.49-2.16-2.63-.48-1.14-.66-2.53-.54-4.18l.87-12.46,3.16.22-.85,12.2c-.11,1.51.21,2.72.95,3.63.73.91,1.79,1.41,3.16,1.51.94.07,1.79-.08,2.56-.44.77-.36,1.4-.92,1.89-1.68.49-.76.77-1.69.85-2.81l.82-11.76,3.18.22-1.37,19.62-3.05-.21.33-4.76.42.03c-.74,1.79-1.69,3.03-2.86,3.7-1.17.67-2.47.96-3.91.85Z"/>
    <path class="cls-4" d="M616.17,503.35c-1.63-.11-3.04-.63-4.23-1.55-1.2-.92-2.09-2.16-2.69-3.73-.59-1.57-.82-3.4-.67-5.48.15-2.07.62-3.84,1.44-5.3.81-1.47,1.88-2.56,3.18-3.3,1.31-.73,2.78-1.04,4.4-.93,1.28.09,2.27.37,2.99.84.72.47,1.26.99,1.63,1.55.37.56.64,1.02.83,1.39l.25.02.68-9.67,3.16.22-1.83,26.15-3.05-.21.21-3.04-.35-.02c-.24.35-.58.78-1.03,1.29-.45.52-1.07.96-1.86,1.33-.78.37-1.8.52-3.05.43ZM616.84,500.56c1.19.08,2.22-.16,3.08-.73.86-.57,1.54-1.39,2.04-2.48.5-1.08.8-2.35.9-3.8.1-1.45-.02-2.73-.36-3.84-.34-1.11-.9-2-1.67-2.67-.78-.67-1.77-1.04-2.97-1.12-1.24-.09-2.3.16-3.17.75s-1.55,1.41-2.03,2.48c-.49,1.06-.78,2.28-.87,3.63-.1,1.37.02,2.63.36,3.77.34,1.15.9,2.08,1.68,2.8.78.72,1.79,1.12,3,1.21Z"/>
    <path class="cls-4" d="M639.07,504.95c-1.9-.13-3.5-.67-4.82-1.61-1.32-.94-2.29-2.19-2.93-3.75-.64-1.56-.89-3.35-.75-5.36s.63-3.76,1.46-5.24c.83-1.48,1.94-2.61,3.33-3.38,1.39-.77,2.97-1.1,4.75-.97,1.04.07,2.06.32,3.04.73.99.42,1.87,1.04,2.64,1.86.77.82,1.36,1.88,1.76,3.16.4,1.29.54,2.84.42,4.65l-.09,1.32-15.23-1.07.19-2.67,13.53.95-1.54.88c.09-1.29-.03-2.44-.36-3.47-.33-1.03-.88-1.85-1.63-2.48-.76-.62-1.73-.98-2.91-1.06s-2.21.14-3.1.66c-.88.52-1.58,1.23-2.09,2.13-.51.9-.8,1.88-.88,2.95l-.12,1.77c-.1,1.45.06,2.7.5,3.75.43,1.05,1.08,1.86,1.95,2.45.87.58,1.9.92,3.1,1,.77.05,1.48,0,2.13-.19.65-.18,1.21-.48,1.7-.9.49-.42.88-.95,1.17-1.6l3,1.06c-.37.96-.95,1.79-1.73,2.49-.78.7-1.72,1.22-2.82,1.57-1.1.35-2.32.47-3.67.38Z"/>
    <path class="cls-4" d="M658.45,506.31c-1.35-.09-2.53-.37-3.55-.84-1.02-.46-1.84-1.11-2.47-1.93s-1.01-1.8-1.17-2.94l3.05-.51c.21,1.1.68,1.92,1.42,2.48s1.7.88,2.87.96c1.37.1,2.48-.12,3.33-.65.85-.53,1.31-1.2,1.37-2,.05-.68-.15-1.26-.59-1.74s-1.14-.87-2.1-1.16l-3.21-1c-1.75-.54-3.02-1.29-3.83-2.23-.8-.94-1.16-2.11-1.06-3.49.08-1.12.46-2.09,1.16-2.91.69-.82,1.6-1.43,2.73-1.84,1.13-.41,2.39-.56,3.78-.47,1.34.09,2.47.38,3.39.85.91.47,1.64,1.08,2.18,1.83.54.75.92,1.6,1.15,2.54l-2.91.54c-.22-.72-.62-1.39-1.21-2.01s-1.51-.97-2.77-1.06c-1.17-.08-2.16.12-2.98.6-.81.48-1.25,1.13-1.31,1.95-.05.73.17,1.33.67,1.8.5.48,1.31.89,2.44,1.24l2.92.91c1.75.55,3.02,1.29,3.81,2.23.79.94,1.14,2.09,1.05,3.43-.08,1.15-.48,2.14-1.19,2.99-.71.85-1.67,1.49-2.87,1.92-1.2.43-2.57.6-4.1.49Z"/>
    <path class="cls-4" d="M681.27,507.48l1.83-26.15,8.95.63c2.04.14,3.69.63,4.95,1.47,1.26.83,2.17,1.9,2.72,3.2.55,1.3.77,2.72.66,4.28-.11,1.56-.53,2.94-1.25,4.16-.73,1.22-1.77,2.16-3.13,2.81-1.36.66-3.06.91-5.1.77l-6.33-.44.21-2.93,6.18.43c1.38.1,2.51-.06,3.38-.48.88-.42,1.53-1.02,1.97-1.82.44-.8.69-1.71.77-2.74.07-1.03-.05-1.96-.38-2.8-.32-.84-.89-1.52-1.71-2.05-.82-.53-1.92-.84-3.31-.94l-5.44-.38-1.62,23.22-3.33-.23Z"/>
    <path class="cls-4" d="M711.6,510.03c-1.78-.12-3.31-.65-4.59-1.59-1.28-.94-2.24-2.19-2.89-3.76-.64-1.57-.89-3.37-.75-5.38.14-2.05.64-3.81,1.5-5.28.86-1.47,1.98-2.59,3.38-3.33,1.4-.75,2.99-1.06,4.76-.94,1.79.12,3.33.66,4.62,1.59s2.25,2.19,2.89,3.77c.64,1.58.89,3.39.75,5.44-.14,2.01-.64,3.75-1.49,5.22-.85,1.47-1.98,2.58-3.39,3.33-1.4.75-3,1.06-4.79.93ZM711.8,507.2c1.32.09,2.43-.17,3.34-.79.9-.62,1.59-1.47,2.08-2.54.49-1.08.78-2.26.87-3.55.09-1.3-.03-2.52-.36-3.67-.33-1.15-.9-2.09-1.71-2.83-.81-.74-1.87-1.16-3.19-1.25-1.31-.09-2.41.17-3.3.8-.89.62-1.58,1.48-2.07,2.56-.49,1.08-.78,2.28-.87,3.59-.09,1.29.03,2.5.36,3.63.33,1.13.9,2.07,1.69,2.81.79.74,1.85,1.15,3.16,1.24Z"/>
    <path class="cls-4" d="M730.18,484.63l-1.83,26.15-3.16-.22,1.83-26.15,3.16.22Z"/>
    <path class="cls-4" d="M733.9,511.16l1.37-19.62,3.16.22-1.37,19.62-3.16-.22ZM737.09,488.44c-.6-.04-1.1-.28-1.5-.72-.4-.44-.59-.95-.55-1.52.04-.58.29-1.06.75-1.44s.99-.54,1.59-.5c.61.04,1.11.28,1.52.71s.59.94.55,1.53c-.04.57-.29,1.05-.75,1.43-.46.38-1,.55-1.61.5Z"/>
    <path class="cls-4" d="M751.7,492.69l-.19,2.7-10.14-.71.19-2.7,10.14.71ZM744.83,487.52l3.16.22-1.34,19.2c-.06.88.07,1.53.4,1.96.33.43.91.67,1.74.73.2.01.46,0,.77-.02.31-.03.6-.05.86-.08l.46,2.71c-.34.09-.71.16-1.13.19s-.83.03-1.24,0c-1.7-.12-2.99-.66-3.87-1.62s-1.27-2.24-1.16-3.85l1.36-19.44Z"/>
    <path class="cls-4" d="M754.36,512.59l1.37-19.62,3.16.22-1.37,19.62-3.16-.22ZM757.55,489.87c-.6-.04-1.1-.28-1.5-.72-.4-.44-.59-.95-.55-1.52.04-.58.29-1.06.75-1.44.46-.37.99-.54,1.59-.5.61.04,1.11.28,1.52.71.4.43.59.94.54,1.53-.04.57-.29,1.05-.75,1.43-.46.38-1,.55-1.61.5Z"/>
    <path class="cls-4" d="M779.01,521.69l-3.16-.22.72-10.37-.25-.02c-.24.35-.58.78-1.03,1.29-.45.51-1.07.96-1.86,1.33-.78.37-1.8.52-3.05.43-1.63-.11-3.04-.63-4.23-1.55-1.19-.92-2.09-2.16-2.68-3.73-.59-1.57-.82-3.4-.68-5.48.15-2.07.63-3.84,1.44-5.3.81-1.47,1.88-2.56,3.18-3.3s2.78-1.04,4.4-.93c1.27.09,2.27.37,2.99.84.72.47,1.26.99,1.63,1.55.37.56.64,1.02.83,1.39l.35.02.22-3.14,3.05.21-1.88,26.95ZM771.06,511.34c1.19.08,2.22-.16,3.08-.73.86-.57,1.54-1.39,2.04-2.48.5-1.08.8-2.35.9-3.8.1-1.45-.02-2.73-.36-3.84-.34-1.11-.9-2-1.67-2.67-.78-.67-1.77-1.04-2.97-1.12-1.24-.09-2.29.16-3.16.75-.87.59-1.55,1.41-2.03,2.48-.49,1.06-.78,2.28-.87,3.63-.1,1.37.03,2.63.36,3.77.34,1.15.9,2.08,1.68,2.8.78.72,1.78,1.12,3,1.21Z"/>
    <path class="cls-4" d="M791.7,515.45c-1.32-.09-2.46-.44-3.42-1.06-.96-.61-1.68-1.49-2.16-2.63-.48-1.14-.66-2.53-.54-4.18l.87-12.46,3.16.22-.85,12.2c-.11,1.51.21,2.72.95,3.63.73.91,1.79,1.41,3.16,1.51.94.07,1.79-.08,2.56-.44.77-.36,1.4-.92,1.89-1.68s.77-1.69.85-2.81l.82-11.76,3.18.22-1.37,19.62-3.05-.21.33-4.76.42.03c-.74,1.79-1.69,3.03-2.86,3.7-1.17.67-2.47.96-3.91.85Z"/>
    <path class="cls-4" d="M814.54,517.22c-1.9-.13-3.5-.67-4.82-1.61-1.32-.94-2.29-2.19-2.93-3.75-.64-1.56-.89-3.35-.75-5.36s.63-3.76,1.46-5.24c.83-1.48,1.94-2.61,3.33-3.38,1.39-.77,2.97-1.1,4.75-.97,1.04.07,2.06.32,3.04.73.99.42,1.87,1.04,2.64,1.86.77.82,1.36,1.88,1.76,3.16.4,1.29.54,2.84.42,4.65l-.09,1.32-15.23-1.07.19-2.67,13.53.95-1.54.88c.09-1.29-.03-2.44-.37-3.47s-.88-1.85-1.63-2.48c-.76-.62-1.73-.98-2.91-1.06s-2.21.14-3.1.66-1.58,1.23-2.09,2.13c-.51.9-.8,1.88-.88,2.95l-.12,1.77c-.1,1.45.06,2.7.5,3.75.43,1.05,1.08,1.86,1.96,2.45.87.58,1.9.92,3.1,1,.77.05,1.48,0,2.13-.19.65-.18,1.21-.48,1.7-.9.49-.42.88-.95,1.17-1.6l3,1.06c-.37.96-.95,1.79-1.73,2.49-.78.7-1.72,1.22-2.82,1.57-1.1.35-2.32.47-3.67.38Z"/>
    <path class="cls-4" d="M833.91,518.58c-1.35-.09-2.53-.37-3.55-.84-1.02-.46-1.84-1.11-2.47-1.93-.62-.82-1.01-1.8-1.17-2.94l3.05-.51c.21,1.1.68,1.92,1.42,2.48s1.7.88,2.87.96c1.37.1,2.48-.12,3.33-.65.85-.53,1.31-1.2,1.37-2,.05-.68-.15-1.26-.59-1.74-.44-.48-1.14-.87-2.1-1.16l-3.21-1c-1.75-.54-3.02-1.29-3.83-2.23-.8-.94-1.16-2.11-1.06-3.49.08-1.12.46-2.09,1.16-2.91.69-.82,1.6-1.43,2.73-1.84,1.13-.41,2.39-.56,3.78-.47,1.34.09,2.47.38,3.39.85.91.47,1.64,1.08,2.18,1.83.54.75.93,1.6,1.15,2.54l-2.91.54c-.22-.72-.62-1.39-1.21-2.01-.59-.62-1.51-.97-2.77-1.06-1.17-.08-2.16.12-2.98.6-.81.48-1.25,1.13-1.31,1.95-.05.73.17,1.33.67,1.8.5.48,1.31.89,2.44,1.24l2.92.91c1.75.55,3.02,1.29,3.81,2.23.79.94,1.14,2.09,1.05,3.43-.08,1.15-.48,2.14-1.19,2.99-.71.85-1.67,1.49-2.87,1.92-1.2.43-2.57.6-4.1.49Z"/>
    <path class="cls-4" d="M848.63,519.41c-.66-.05-1.2-.32-1.63-.81-.43-.49-.62-1.07-.58-1.72s.32-1.2.81-1.63c.49-.43,1.07-.62,1.72-.58.65.05,1.2.32,1.63.81.43.49.62,1.07.58,1.72s-.32,1.2-.81,1.63c-.49.43-1.07.62-1.72.58ZM858.99,520.14c-.66-.05-1.2-.32-1.63-.81-.43-.49-.62-1.07-.58-1.72s.32-1.2.81-1.63c.49-.43,1.07-.62,1.72-.58.65.05,1.2.32,1.63.81.43.49.62,1.07.58,1.72s-.32,1.2-.81,1.63c-.49.43-1.07.62-1.72.58ZM869.34,520.86c-.66-.05-1.2-.32-1.63-.81-.43-.49-.62-1.07-.58-1.72s.32-1.2.81-1.63c.49-.43,1.07-.62,1.72-.58.65.05,1.2.32,1.63.81s.62,1.07.58,1.72-.32,1.2-.81,1.63-1.07.62-1.72.58Z"/>
    <path class="cls-4" d="M875.87,526.01c1.19-2.07,2.17-3.97,2.94-5.71.77-1.74,1.36-3.39,1.77-4.95.41-1.56.67-3.09.77-4.58.12-1.71.07-3.54-.15-5.5-.21-1.96-.58-3.96-1.1-5.99-.52-2.03-1.17-4-1.95-5.9l3.07.21c.78,1.5,1.44,3.24,1.99,5.23.55,1.98.94,4.04,1.18,6.16.24,2.12.29,4.13.16,6.02-.18,2.61-.75,5.2-1.72,7.78-.96,2.58-2.26,5.06-3.9,7.45l-3.07-.21Z"/>
  </g>
  <g>
    <path class="cls-4" d="M176.05,737.83l-.02-.3c2.38-.07,4.58-.02,6.59.15,2.01.17,3.77.57,5.26,1.18,1.5.61,2.69,1.52,3.57,2.71.89,1.2,1.39,2.76,1.52,4.7.15,2.25-.44,4.3-1.76,6.12s-3.25,3.31-5.81,4.47c-2.56,1.16-5.61,1.85-9.15,2.08-3.47.22-6.53-.12-9.2-1.02-2.67-.9-4.75-2.24-6.24-4.03-1.49-1.79-2.25-3.91-2.29-6.37l7.61-.49c.12,1.17.57,2.16,1.38,2.97.8.82,1.91,1.42,3.33,1.82,1.42.39,3.08.53,4.97.41,2.94-.19,5.16-.84,6.67-1.95,1.51-1.11,2.2-2.65,2.07-4.62-.12-1.89-1.11-3.17-2.98-3.84s-4.45-.9-7.75-.68l-5.14.33-.39-6.04,5.14-.33c2.3-.15,4.15-.42,5.56-.81,1.41-.39,2.43-.96,3.05-1.71.62-.75.89-1.7.82-2.87-.11-1.65-.85-2.91-2.25-3.77-1.39-.86-3.58-1.2-6.56-1-2.82.18-4.95.83-6.4,1.93-1.45,1.1-2.16,2.49-2.13,4.14l-7.61.49c-.24-1.89,0-3.6.73-5.15.73-1.54,1.84-2.9,3.32-4.07,1.48-1.17,3.22-2.1,5.22-2.79,2-.7,4.15-1.12,6.44-1.27,3.46-.22,6.47.03,9.03.75,2.55.72,4.55,1.85,5.98,3.38s2.22,3.36,2.36,5.49c.11,1.77-.18,3.26-.87,4.46-.69,1.2-1.72,2.17-3.09,2.93-1.37.76-2.98,1.33-4.83,1.74s-3.91.7-6.16.88Z"/>
    <path class="cls-4" d="M195.27,724.33l-.43-6.71,16.38-1.05,1.94,30.03-7.86.51-1.5-23.33-8.52.55Z"/>
    <path class="cls-4" d="M235.08,715.03l7.86-.51,1.94,30.03-7.86.51-1.94-30.03ZM256.85,712.96c1.85-.12,3.58.01,5.18.4,1.6.38,3.02,1.04,4.25,1.97,1.23.93,2.22,2.15,2.97,3.66.74,1.51,1.19,3.33,1.32,5.47l1.18,18.37-7.86.51-1.09-16.98c-.16-2.54-.9-4.36-2.2-5.47-1.31-1.11-3.35-1.57-6.13-1.4-2.1.14-3.96.66-5.6,1.57-1.64.92-2.94,2.02-3.91,3.32-.97,1.3-1.49,2.61-1.57,3.95l-.26-3.08c.11-1.42.49-2.82,1.13-4.2.64-1.38,1.54-2.66,2.69-3.84,1.16-1.19,2.56-2.16,4.21-2.91s3.54-1.2,5.68-1.34ZM283.02,711.27c1.85-.12,3.58.01,5.18.4,1.6.38,3.02,1.04,4.25,1.97,1.23.93,2.23,2.15,3,3.66.76,1.51,1.22,3.33,1.35,5.46l1.18,18.37-7.86.51-1.09-16.98c-.16-2.54-.91-4.36-2.23-5.47-1.33-1.11-3.38-1.57-6.16-1.39-2.1.13-3.96.66-5.6,1.57-1.64.92-2.94,2.02-3.91,3.32-.97,1.3-1.47,2.61-1.5,3.95l-.33-3.25c.12-1.34.51-2.7,1.19-4.08.68-1.38,1.61-2.65,2.79-3.82,1.18-1.17,2.58-2.13,4.21-2.88,1.63-.75,3.47-1.2,5.53-1.33Z"/>
    <path class="cls-4" d="M322.87,740.26c-3.79.24-7.16-.15-10.12-1.17-2.96-1.02-5.32-2.64-7.08-4.85-1.76-2.21-2.75-5.01-2.97-8.4-.22-3.38.4-6.31,1.86-8.77,1.46-2.46,3.59-4.39,6.39-5.78,2.8-1.39,6.1-2.21,9.88-2.46,3.79-.24,7.14.15,10.06,1.17,2.92,1.03,5.26,2.67,7.02,4.92,1.76,2.25,2.75,5.07,2.97,8.46.22,3.38-.4,6.29-1.87,8.71-1.46,2.42-3.57,4.33-6.34,5.72-2.76,1.39-6.04,2.21-9.82,2.45ZM322.48,734.22c2.09-.13,3.95-.63,5.58-1.48,1.62-.85,2.87-2.02,3.75-3.52.88-1.49,1.25-3.27,1.11-5.32-.13-2.05-.73-3.79-1.79-5.19-1.06-1.41-2.44-2.44-4.14-3.1-1.7-.66-3.62-.92-5.75-.78-2.09.13-3.96.64-5.61,1.51-1.64.88-2.91,2.07-3.8,3.58-.89,1.51-1.27,3.32-1.14,5.41.13,2.05.73,3.77,1.79,5.13,1.06,1.37,2.46,2.37,4.2,3.01,1.74.64,3.68.88,5.81.75Z"/>
    <path class="cls-4" d="M353.88,694.15l.44,6.89-9.12.59-.44-6.89,9.12-.59ZM346.21,707.87l7.86-.51,1.94,30.03-7.86.51-1.94-30.03Z"/>
    <path class="cls-4" d="M362,727l7.25-.47c.53,1.34,1.52,2.4,2.97,3.18,1.45.78,3.3,1.09,5.55.95,1.53-.1,2.71-.31,3.54-.65.83-.33,1.38-.79,1.67-1.35.29-.56.41-1.19.36-1.87-.05-.85-.36-1.48-.91-1.91-.55-.43-1.38-.75-2.49-.96-1.11-.21-2.51-.38-4.22-.52-1.71-.17-3.36-.41-4.96-.71-1.6-.3-3.02-.75-4.27-1.33-1.25-.59-2.26-1.37-3.03-2.35-.77-.98-1.21-2.22-1.3-3.71-.09-1.45.18-2.76.81-3.94.63-1.17,1.56-2.18,2.78-3.03,1.22-.85,2.67-1.53,4.36-2.04,1.69-.51,3.52-.83,5.49-.96,2.98-.19,5.49.08,7.52.82,2.03.74,3.59,1.85,4.68,3.34,1.09,1.49,1.7,3.24,1.83,5.25l-6.95.45c-.42-1.47-1.13-2.51-2.14-3.11-1.01-.6-2.52-.84-4.54-.71-1.97.13-3.45.53-4.41,1.2-.97.67-1.42,1.53-1.35,2.58.05.85.41,1.48,1.06,1.9.65.42,1.6.74,2.85.94,1.25.2,2.81.41,4.68.61,1.59.22,3.12.49,4.57.8,1.45.31,2.77.74,3.94,1.29,1.17.55,2.12,1.32,2.85,2.31.73.98,1.15,2.26,1.25,3.83.12,1.93-.32,3.6-1.35,5-1.02,1.4-2.54,2.52-4.55,3.36-2.01.84-4.44,1.35-7.3,1.53-2.54.16-4.74.03-6.61-.39-1.87-.43-3.43-1.03-4.7-1.82s-2.26-1.65-2.99-2.6c-.73-.94-1.24-1.85-1.54-2.72-.3-.87-.43-1.59-.38-2.16Z"/>
    <path class="cls-4" d="M427.16,733.48c-2.98.19-5.73-.29-8.25-1.44-2.52-1.15-4.57-2.86-6.16-5.13-1.58-2.26-2.47-4.95-2.67-8.05-.21-3.18.34-5.99,1.64-8.42,1.3-2.43,3.15-4.38,5.54-5.85,2.39-1.47,5.16-2.31,8.3-2.51,3.46-.22,6.3.29,8.5,1.55,2.21,1.25,3.87,3.04,4.99,5.35,1.12,2.32,1.77,4.94,1.96,7.88.11,1.77-.05,3.59-.5,5.46-.45,1.87-1.2,3.62-2.27,5.24-1.07,1.63-2.52,2.97-4.35,4.04-1.83,1.07-4.08,1.69-6.74,1.86ZM423.94,696.55l-11.73-8.83,10.39-.67,8.83,9.02-7.49.48ZM429.31,727.27c2.38-.15,4.41-.69,6.09-1.61,1.68-.92,2.94-2.13,3.77-3.64.83-1.51,1.19-3.21,1.07-5.11-.13-2.05-.72-3.77-1.76-5.13-1.04-1.37-2.44-2.37-4.2-3.01-1.76-.63-3.83-.88-6.21-.72-3.34.22-5.89,1.26-7.63,3.13-1.74,1.87-2.52,4.26-2.33,7.16.12,1.93.68,3.59,1.66,4.96.98,1.37,2.29,2.41,3.93,3.11,1.64.7,3.51.99,5.61.85ZM439.27,701.87l7.86-.51,1.94,30.03-7.31.47c-.3-1.56-.53-2.94-.69-4.14-.16-1.2-.28-2.39-.35-3.56l-1.44-22.3Z"/>
    <path class="cls-4" d="M468.64,687.84l7.86-.51,2.71,42.12-7.86.51-2.71-42.12Z"/>
    <path class="cls-4" d="M486.04,705.41l-1.22-1.99c.55-.92,1.08-1.96,1.59-3.1.51-1.15.75-2.28.72-3.42l-3.37-.45-.44-6.89,9.25-.6.32,4.96c.18,2.82-.35,5.15-1.58,6.99-1.24,1.84-2.99,3.34-5.26,4.5Z"/>
    <path class="cls-4" d="M509.1,711.15l.62,9.61,30.15-1.94.43,6.71-38.19,2.46-2.52-39.1,38.13-2.46.43,6.71-30.09,1.94.63,9.73,24.66-1.59.41,6.35-24.66,1.59Z"/>
    <path class="cls-4" d="M587.71,714.45l-2.47,1.19-2.07-32.15,8.04-.52,2.52,39.1-8.04.52-33.59-28.84,2.47-1.19,2.06,31.91-8.04.52-2.52-39.1,8.04-.52,33.61,29.08Z"/>
    <path class="cls-4" d="M633.17,715.53l-3.81.25,20.22-36.56,8.04-.52,2.52,39.1-8.04.52-1.83-28.4,1.97.42-16.15,29.01-9,.58-19.73-26.58,1.9-.67,1.82,28.28-8.04.52-2.52-39.1,8.04-.52,24.62,33.67Z"/>
  </g>
  <g>
    <path class="cls-4" d="M366.73,970.78l2.62-23.71,8,.88-2.68,24.25c-.23,2.05-.81,3.95-1.76,5.71-.95,1.76-2.23,3.28-3.85,4.54-1.62,1.26-3.55,2.18-5.79,2.74-2.24.56-4.78.69-7.63.38-2.21-.24-4.31-.76-6.32-1.55-2.01-.79-3.77-1.85-5.29-3.17-1.52-1.33-2.68-2.92-3.49-4.77-.81-1.86-1.12-3.97-.94-6.35l7.58.84c.19,2.34,1.13,4.2,2.83,5.58,1.69,1.39,3.83,2.22,6.39,2.5,2.21.24,4.04.05,5.49-.58,1.45-.63,2.57-1.58,3.36-2.86.79-1.27,1.28-2.75,1.47-4.44Z"/>
    <path class="cls-4" d="M410.09,976.42l-.17,2.05c-.14.55-.43,1.34-.87,2.37-.44,1.03-1.06,2.11-1.85,3.24-.8,1.13-1.78,2.19-2.94,3.18-1.17.99-2.55,1.75-4.15,2.28-1.6.53-3.45.69-5.53.46-1.65-.18-3.24-.56-4.78-1.14-1.54-.58-2.9-1.41-4.08-2.49-1.18-1.08-2.06-2.47-2.65-4.16-.58-1.69-.74-3.76-.47-6.2l2-18.12,7.82.86-1.85,16.79c-.21,1.93-.07,3.48.43,4.65.5,1.17,1.33,2.04,2.48,2.62,1.16.58,2.55.95,4.2,1.13,2.17.24,4.08-.03,5.75-.8,1.67-.77,3.07-1.78,4.2-3.04,1.13-1.26,1.95-2.49,2.45-3.69ZM415.9,991.63l-7.82-.86,3.3-29.91,7.82.86-3.3,29.91Z"/>
    <path class="cls-4" d="M446.62,1007.51l.16-1.44c.2-1.85-.25-3.2-1.35-4.05-1.1-.85-2.68-1.39-4.73-1.62l-9.33-1.03c-1.81-.2-3.31-.51-4.5-.92-1.19-.42-2.12-.93-2.79-1.53-.67-.6-1.12-1.27-1.36-2.01-.24-.74-.32-1.51-.23-2.31.18-1.6.83-2.76,1.97-3.47,1.13-.71,2.6-1.11,4.4-1.19,1.8-.08,3.75.07,5.86.46l3.72,1.08c-2.54-.2-4.44-.19-5.7.01-1.26.21-1.95.81-2.06,1.81-.07.6.12,1.1.57,1.5.44.39,1.11.64,1.99.74l9.81,1.08c2.69.3,4.95.84,6.8,1.63,1.84.79,3.19,1.94,4.04,3.43.85,1.5,1.14,3.45.88,5.85l-.31,2.83-7.82-.86ZM438.44,989.48c-3.25-.36-6.05-1.17-8.41-2.42-2.36-1.25-4.11-2.92-5.27-5-1.15-2.08-1.58-4.48-1.28-7.21.3-2.69,1.22-4.94,2.76-6.76,1.54-1.82,3.61-3.13,6.19-3.95,2.59-.81,5.55-1.03,8.88-.67.92.1,1.81.26,2.66.48.85.22,1.68.47,2.5.76l15.1,1.73-.65,5.9c-2.05-.19-4.1-.67-6.15-1.44-2.05-.77-3.84-1.57-5.37-2.39l-.13-.44c1.29.79,2.49,1.73,3.59,2.8,1.1,1.08,1.95,2.27,2.56,3.57.61,1.31.82,2.76.65,4.37-.29,2.61-1.2,4.77-2.73,6.49s-3.56,2.94-6.1,3.65c-2.54.72-5.47.89-8.8.52ZM439.06,983.83c1.72.19,3.27.08,4.64-.34s2.47-1.12,3.31-2.1c.84-.98,1.34-2.22,1.51-3.7.17-1.52-.05-2.87-.65-4.03-.6-1.16-1.51-2.11-2.73-2.83-1.22-.72-2.71-1.18-4.48-1.38-1.73-.19-3.28-.07-4.67.37-1.39.44-2.5,1.15-3.35,2.16-.84,1-1.35,2.27-1.52,3.79-.16,1.49.06,2.8.66,3.94.6,1.14,1.53,2.07,2.77,2.77,1.24.71,2.75,1.16,4.51,1.35Z"/>
    <path class="cls-4" d="M491.21,989.89l7.58.84c-.55,2.01-1.6,3.74-3.16,5.19-1.56,1.45-3.58,2.51-6.05,3.17-2.47.66-5.41.8-8.82.43-3.81-.42-7.12-1.41-9.91-2.95s-4.89-3.57-6.27-6.08c-1.39-2.51-1.9-5.41-1.54-8.7.36-3.29,1.48-6.02,3.34-8.19,1.86-2.17,4.3-3.72,7.31-4.65,3.01-.93,6.44-1.18,10.29-.75,3.93.43,7.13,1.42,9.6,2.95,2.47,1.53,4.2,3.62,5.19,6.27.99,2.65,1.17,5.91.53,9.78l-28.53-3.15c.03,1.55.45,3,1.26,4.34.8,1.35,1.98,2.47,3.53,3.37,1.55.9,3.44,1.48,5.69,1.72,2.49.27,4.61.07,6.37-.61,1.76-.68,2.96-1.67,3.59-2.98ZM482.96,974.11c-2.89-.32-5.31.05-7.25,1.12-1.95,1.07-3.28,2.49-4.01,4.28l20.34,2.25c.02-2.03-.76-3.73-2.33-5.1-1.58-1.37-3.83-2.22-6.76-2.54Z"/>
    <path class="cls-4" d="M554.98,995.04c-.49,2.59-1.57,4.74-3.24,6.46-1.67,1.72-3.85,2.94-6.52,3.64-2.68.7-5.78.85-9.31.46-3.69-.41-6.93-1.36-9.7-2.87-2.78-1.5-4.87-3.5-6.28-5.99-1.41-2.49-1.93-5.44-1.55-8.85.38-3.41,1.53-6.19,3.45-8.33,1.92-2.14,4.4-3.66,7.45-4.54,3.04-.88,6.41-1.12,10.1-.71,3.53.39,6.51,1.22,8.93,2.48,2.42,1.26,4.26,2.9,5.52,4.9,1.26,2.01,1.87,4.33,1.82,6.96l-7.16-.79c-.46-2.08-1.55-3.79-3.27-5.11-1.72-1.33-3.89-2.14-6.49-2.42-2.09-.23-4.02-.08-5.81.46-1.79.54-3.27,1.46-4.45,2.77-1.18,1.31-1.89,3.05-2.13,5.22-.23,2.13.07,3.96.92,5.49.84,1.54,2.09,2.75,3.74,3.64,1.65.89,3.51,1.45,5.6,1.68,2.81.31,5.17,0,7.08-.92,1.91-.93,3.3-2.4,4.17-4.41l7.16.79Z"/>
    <path class="cls-4" d="M563.23,977.62l7.82.86-3.3,29.91-7.82-.86,3.3-29.91ZM573.17,965.43l-.76,6.86-9.09-1,.76-6.86,9.09,1Z"/>
    <path class="cls-4" d="M592.64,1005.96l-2.83-.31,13.69-23.59,8.55.94-17.69,28.32-7.4-.82-10.78-31.47,8.61.95,7.86,25.96Z"/>
    <path class="cls-4" d="M617.1,983.56l7.82.86-3.3,29.91-7.82-.86,3.3-29.91ZM627.04,971.38l-.76,6.86-9.09-1,.76-6.86,9.09,1Z"/>
    <path class="cls-4" d="M634.68,973.32l7.82.86-4.63,41.95-7.82-.86,4.63-41.95Z"/>
    <path class="cls-4" d="M377.98,1052.84l4.3-38.94,22.45,2.48c5.22.58,9.08,1.88,11.6,3.93,2.52,2.04,3.58,4.79,3.2,8.24-.24,2.21-.98,3.88-2.2,5.03-1.22,1.15-2.86,1.91-4.91,2.29-2.05.38-4.43.51-7.14.37l.29-.39c1.96.26,3.8.6,5.52,1.04,1.72.43,3.21,1.04,4.46,1.83,1.25.79,2.2,1.8,2.83,3.02s.85,2.77.65,4.61c-.27,2.41-1.13,4.33-2.59,5.78-1.46,1.44-3.38,2.44-5.75,2.99-2.38.55-5.07.7-8.09.45l-24.62-2.72ZM386.72,1047.1l15.77,1.74c2.53.28,4.52.08,5.97-.59,1.45-.67,2.28-1.91,2.48-3.72.15-1.33-.15-2.33-.88-3.02-.74-.69-1.76-1.18-3.07-1.47-1.31-.29-2.73-.51-4.25-.68l-14.99-1.65-1.04,9.39ZM388.47,1031.27l14.14,1.56c2.53.28,4.52.12,5.96-.47,1.45-.59,2.27-1.79,2.47-3.6s-.34-3.15-1.62-4.05c-1.28-.89-3.05-1.46-5.29-1.71l-14.57-1.61-1.09,9.87Z"/>
    <path class="cls-4" d="M420.96,1057.58l22.6-36.92,8.67.96,14.18,40.98-8.73-.96-12.14-36.86,3.85.42-19.76,33.33-8.67-.96ZM431.58,1050.16l.74-6.68,25.76,2.84-.74,6.68-25.76-2.84Z"/>
    <path class="cls-4" d="M517.06,1054c-.71,3.09-2.1,5.64-4.19,7.64-2.09,2-4.78,3.41-8.08,4.22-3.3.81-7.13.98-11.51.5-3.65-.4-6.95-1.19-9.88-2.37-2.94-1.18-5.41-2.73-7.41-4.65-2-1.93-3.46-4.21-4.39-6.85-.93-2.64-1.2-5.65-.83-9.02.37-3.37,1.3-6.25,2.78-8.65,1.48-2.4,3.41-4.32,5.79-5.79,2.38-1.46,5.12-2.46,8.25-2.99,3.12-.53,6.51-.59,10.16-.19,4.37.48,8.09,1.5,11.15,3.06,3.06,1.56,5.39,3.55,6.99,5.98,1.6,2.43,2.38,5.25,2.36,8.45l-7.94-.88c-.34-1.74-1.05-3.29-2.14-4.65-1.09-1.36-2.56-2.47-4.42-3.32-1.85-.85-4.11-1.43-6.76-1.72-3.29-.36-6.24-.17-8.84.58-2.6.75-4.69,2.04-6.28,3.88-1.58,1.83-2.54,4.22-2.86,7.15-.32,2.89.09,5.39,1.24,7.51,1.15,2.12,2.91,3.82,5.28,5.12s5.21,2.13,8.5,2.49c2.65.29,4.96.22,6.94-.21,1.98-.43,3.64-1.18,5-2.25,1.36-1.07,2.4-2.37,3.14-3.92l7.94.88Z"/>
    <path class="cls-4" d="M523.82,1049.56l27.69,3.06-.63,5.72-27.69-3.06.63-5.72ZM541.85,1042.97l-2.51,22.75-6.5-.72,2.51-22.75,6.5.72Z"/>
    <path class="cls-4" d="M556.96,1049.08l.74-6.68,34.37,3.79-.74,6.68-22.34,30.19-9.45-1.04,25.56-32.88,1.29,3.19-29.43-3.25Z"/>
  </g>
</svg>