<?xml version="1.0" encoding="UTF-8"?>
<svg id="Layer_1" data-name="Layer 1" xmlns="http://www.w3.org/2000/svg" viewBox="0 0 2469.18 2798.67">
  <defs>
    <style>
      .cls-1 {
        fill: #ed1c24;
      }

      .cls-2 {
        fill: none;
      }

      .cls-3 {
        fill: #390a43;
      }
    </style>
  </defs>
  <path class="cls-1" d="M546.64,1267.37s-31.4,259.85-108.95,363.37c0,0,328.15,12.03,563.26,149.12,0,0-21.97-264.2,260.84-166.9,282.8,97.31,282.59-147.29,282.59-147.29,0,0-6.42,116.41-155.27,124.12-148.85,7.7-348.68-168.52-428.59,129.97,0,0-201.19-122.26-462.31-121.17,0,0,77.95-241.53,48.43-331.22Z"/>
  <path class="cls-1" d="M1464.26,1298.3s-232.18-285.78,118.18-634.02c0,0-429.73,231.86-118.18,634.02Z"/>
  <path class="cls-1" d="M182.59,747.33h0s26.57-9.21,32.1-17.43c5.53-8.22-24.54-13.14-48.58-7.89,0,0-12.22-128.44,373.23-13.42,0,0-64.32-60.65-35.34-180.04,0,0,40.71,15.01,71.47,2.66,0,0-80.09,103.52,162.73,55.44,242.82-48.08,141.59-246.09,141.59-246.09l119.97-20.14s-7.64,161.7,476.14,312.41c0,0-484.07-77.34-491.99-288.8l-67.13,26.85s98.49,177.51-170.68,236.43c-258.65,56.62-202.35-38.25-202.35-38.25l-21.21-4s-31.03,103.93,55.17,171.48c0,0-142.45-80.15-336.56-38.7,0,0,38.64,67.25-58.55,49.48Z"/>
  <path class="cls-1" d="M254.73,815.26s252.75,49.84,299.03,402.27c0,0,67.64,53.4,89,117.48,0,0-10.68-67.64-71.2-131.72,0,0-3.55-359.55-316.83-388.03Z"/>
  <g>
    <rect class="cls-2" x="1058.9" y="371.98" width="436.75" height="60.27"/>
    <path class="cls-3" d="M1064.54,374.5h18.36c13.62,0,22.92,8.4,22.92,21s-9.3,21-22.92,21h-18.36v-42ZM1082.54,409.9c9.36,0,15.42-5.7,15.42-14.4s-6.06-14.4-15.42-14.4h-10.2v28.8h10.2Z"/>
    <path class="cls-3" d="M1110.74,400.48c0-9.6,7.2-16.38,17.04-16.38s17.1,6.78,17.1,16.38-7.14,16.44-17.1,16.44-17.04-6.84-17.04-16.44ZM1137.32,400.48c0-6.12-4.08-10.02-9.54-10.02s-9.48,3.9-9.48,10.02,4.08,10.02,9.48,10.02,9.54-3.9,9.54-10.02Z"/>
    <path class="cls-3" d="M1183.09,384.46v32.04h-7.14v-4.08c-2.4,2.94-6.18,4.5-10.32,4.5-8.22,0-13.8-4.5-13.8-14.16v-18.3h7.5v17.28c0,5.82,2.76,8.58,7.5,8.58,5.22,0,8.76-3.24,8.76-9.66v-16.2h7.5Z"/>
    <path class="cls-3" d="M1219.75,397.72v18.78h-7.08v-3.9c-1.8,2.76-5.28,4.32-10.08,4.32-7.32,0-11.94-4.02-11.94-9.6s3.6-9.54,13.32-9.54h8.28v-.48c0-4.38-2.64-6.96-7.98-6.96-3.6,0-7.32,1.2-9.72,3.18l-2.94-5.46c3.42-2.64,8.4-3.96,13.56-3.96,9.24,0,14.58,4.38,14.58,13.62ZM1212.25,406.48v-3.72h-7.74c-5.1,0-6.48,1.92-6.48,4.26,0,2.7,2.28,4.44,6.12,4.44s6.84-1.68,8.1-4.98Z"/>
    <path class="cls-3" d="M1228.33,374.68c0-2.52,2.04-4.5,4.8-4.5s4.8,1.86,4.8,4.32c0,2.64-1.98,4.68-4.8,4.68s-4.8-1.98-4.8-4.5ZM1229.35,384.46h7.5v32.04h-7.5v-32.04Z"/>
  </g>
  <g>
    <rect class="cls-2" x="657.73" y="1230.41" width="436.75" height="66.63"/>
    <path class="cls-3" d="M700.68,1263.53c0,7.2-5.64,11.4-16.44,11.4h-20.88v-42h19.68c10.08,0,15.48,4.26,15.48,10.92,0,4.32-2.16,7.5-5.4,9.24,4.5,1.44,7.56,4.98,7.56,10.44ZM671.17,1239.05v11.58h11.04c5.4,0,8.46-1.92,8.46-5.76s-3.06-5.82-8.46-5.82h-11.04ZM692.82,1262.75c0-4.2-3.18-6.06-9.06-6.06h-12.6v12.12h12.6c5.88,0,9.06-1.86,9.06-6.06Z"/>
    <path class="cls-3" d="M705.66,1258.91c0-9.6,7.2-16.38,17.04-16.38s17.1,6.78,17.1,16.38-7.14,16.44-17.1,16.44-17.04-6.84-17.04-16.44ZM732.24,1258.91c0-6.12-4.08-10.02-9.54-10.02s-9.48,3.9-9.48,10.02,4.08,10.02,9.48,10.02,9.54-3.9,9.54-10.02Z"/>
    <path class="cls-3" d="M765.54,1242.53v7.14c-.66-.12-1.2-.18-1.74-.18-5.7,0-9.3,3.36-9.3,9.9v15.54h-7.5v-32.04h7.14v4.68c2.16-3.36,6.06-5.04,11.4-5.04Z"/>
    <path class="cls-3" d="M802.98,1230.41v44.52h-7.2v-4.14c-2.52,3.06-6.24,4.56-10.62,4.56-9.3,0-16.2-6.48-16.2-16.44s6.9-16.38,16.2-16.38c4.14,0,7.8,1.38,10.32,4.32v-16.44h7.5ZM795.6,1258.91c0-6.12-4.14-10.02-9.54-10.02s-9.54,3.9-9.54,10.02,4.14,10.02,9.54,10.02,9.54-3.9,9.54-10.02Z"/>
    <path class="cls-3" d="M842.82,1261.31h-25.14c.9,4.68,4.8,7.68,10.38,7.68,3.6,0,6.42-1.14,8.7-3.48l4.02,4.62c-2.88,3.42-7.38,5.22-12.9,5.22-10.74,0-17.7-6.9-17.7-16.44s7.02-16.38,16.56-16.38,16.2,6.54,16.2,16.56c0,.6-.06,1.5-.12,2.22ZM817.62,1256.33h18.18c-.6-4.62-4.14-7.8-9.06-7.8s-8.4,3.12-9.12,7.8Z"/>
    <path class="cls-3" d="M876.06,1256.15v18.78h-7.08v-3.9c-1.8,2.76-5.28,4.32-10.08,4.32-7.32,0-11.94-4.02-11.94-9.6s3.6-9.54,13.32-9.54h8.28v-.48c0-4.38-2.64-6.96-7.98-6.96-3.6,0-7.32,1.2-9.72,3.18l-2.94-5.46c3.42-2.64,8.4-3.96,13.56-3.96,9.24,0,14.58,4.38,14.58,13.62ZM868.56,1264.91v-3.72h-7.74c-5.1,0-6.48,1.92-6.48,4.26,0,2.7,2.28,4.44,6.12,4.44s6.84-1.68,8.1-4.98Z"/>
    <path class="cls-3" d="M916.68,1242.89v32.04h-7.14v-4.08c-2.4,2.94-6.18,4.5-10.32,4.5-8.22,0-13.8-4.5-13.8-14.16v-18.3h7.5v17.28c0,5.82,2.76,8.58,7.5,8.58,5.22,0,8.76-3.24,8.76-9.66v-16.2h7.5Z"/>
    <path class="cls-3" d="M946.92,1274.93l-8.22-11.1-8.28,11.1h-8.28l12.48-16.26-11.94-15.78h8.34l7.86,10.5,7.86-10.5h8.1l-12,15.66,12.54,16.38h-8.46Z"/>
  </g>
  <g>
    <rect class="cls-2" x="945.47" y="775.57" width="436.75" height="65.27"/>
    <path class="cls-3" d="M948.11,799.1c0-12.42,9.6-21.6,22.62-21.6s22.62,9.12,22.62,21.6-9.6,21.6-22.62,21.6-22.62-9.18-22.62-21.6ZM985.48,799.1c0-8.58-6.3-14.76-14.76-14.76s-14.76,6.18-14.76,14.76,6.3,14.76,14.76,14.76,14.76-6.18,14.76-14.76Z"/>
    <path class="cls-3" d="M1019.44,787.7v7.14c-.66-.12-1.2-.18-1.74-.18-5.7,0-9.3,3.36-9.3,9.9v15.54h-7.5v-32.04h7.14v4.68c2.16-3.36,6.06-5.04,11.4-5.04Z"/>
    <path class="cls-3" d="M1025.81,775.58h7.5v44.52h-7.5v-44.52Z"/>
    <path class="cls-3" d="M1073.14,806.47h-25.14c.9,4.68,4.8,7.68,10.38,7.68,3.6,0,6.42-1.14,8.7-3.48l4.02,4.62c-2.88,3.42-7.38,5.22-12.9,5.22-10.74,0-17.7-6.9-17.7-16.44s7.02-16.38,16.56-16.38,16.2,6.54,16.2,16.56c0,.6-.06,1.5-.12,2.22ZM1047.94,801.5h18.18c-.6-4.62-4.14-7.8-9.06-7.8s-8.4,3.12-9.12,7.8ZM1058.32,783.68h-6.48l8.1-8.22h8.82l-10.44,8.22Z"/>
    <path class="cls-3" d="M1106.38,801.31v18.78h-7.08v-3.9c-1.8,2.76-5.28,4.32-10.08,4.32-7.32,0-11.94-4.02-11.94-9.6s3.6-9.54,13.32-9.54h8.28v-.48c0-4.38-2.64-6.96-7.98-6.96-3.6,0-7.32,1.2-9.72,3.18l-2.94-5.46c3.42-2.64,8.4-3.96,13.56-3.96,9.24,0,14.58,4.38,14.58,13.62ZM1098.88,810.07v-3.72h-7.74c-5.1,0-6.48,1.92-6.48,4.26,0,2.7,2.28,4.44,6.12,4.44s6.84-1.68,8.1-4.98Z"/>
    <path class="cls-3" d="M1147.54,801.73v18.36h-7.5v-17.4c0-5.7-2.82-8.46-7.62-8.46-5.34,0-8.94,3.24-8.94,9.66v16.2h-7.5v-32.04h7.14v4.14c2.46-2.94,6.36-4.5,11.04-4.5,7.68,0,13.38,4.38,13.38,14.04Z"/>
    <path class="cls-3" d="M1153.42,816.91l2.88-5.7c2.82,1.86,7.14,3.18,11.16,3.18,4.74,0,6.72-1.32,6.72-3.54,0-6.12-19.8-.36-19.8-13.14,0-6.06,5.46-10.02,14.1-10.02,4.26,0,9.12,1.02,12,2.76l-2.88,5.7c-3.06-1.8-6.12-2.4-9.18-2.4-4.56,0-6.72,1.5-6.72,3.6,0,6.48,19.8.72,19.8,13.26,0,6-5.52,9.9-14.52,9.9-5.34,0-10.68-1.56-13.56-3.6Z"/>
  </g>
  <g>
    <rect class="cls-2" x="981.2" y="622.07" width="436.75" height="51.85"/>
    <path class="cls-3" d="M1022,639.53c0,9.24-6.84,14.94-17.88,14.94h-9.48v12.12h-7.8v-42h17.28c11.04,0,17.88,5.64,17.88,14.94ZM1014.14,639.53c0-5.28-3.54-8.34-10.38-8.34h-9.12v16.68h9.12c6.84,0,10.38-3.06,10.38-8.34Z"/>
    <path class="cls-3" d="M1055.6,647.81v18.78h-7.08v-3.9c-1.8,2.76-5.28,4.32-10.08,4.32-7.32,0-11.94-4.02-11.94-9.6s3.6-9.54,13.32-9.54h8.28v-.48c0-4.38-2.64-6.96-7.98-6.96-3.6,0-7.32,1.2-9.72,3.18l-2.94-5.46c3.42-2.64,8.4-3.96,13.56-3.96,9.24,0,14.58,4.38,14.58,13.62ZM1048.1,656.57v-3.72h-7.74c-5.1,0-6.48,1.92-6.48,4.26,0,2.7,2.28,4.44,6.12,4.44s6.84-1.68,8.1-4.98Z"/>
    <path class="cls-3" d="M1083.74,634.19v7.14c-.66-.12-1.2-.18-1.74-.18-5.7,0-9.3,3.36-9.3,9.9v15.54h-7.5v-32.04h7.14v4.68c2.16-3.36,6.06-5.04,11.4-5.04Z"/>
    <path class="cls-3" d="M1089.08,624.77c0-2.52,2.04-4.5,4.8-4.5s4.8,1.86,4.8,4.32c0,2.64-1.98,4.68-4.8,4.68s-4.8-1.98-4.8-4.5ZM1090.1,634.55h7.5v32.04h-7.5v-32.04Z"/>
    <path class="cls-3" d="M1103.78,663.41l2.88-5.7c2.82,1.86,7.14,3.18,11.16,3.18,4.74,0,6.72-1.32,6.72-3.54,0-6.12-19.8-.36-19.8-13.14,0-6.06,5.46-10.02,14.1-10.02,4.26,0,9.12,1.02,12,2.76l-2.88,5.7c-3.06-1.8-6.12-2.4-9.18-2.4-4.56,0-6.72,1.5-6.72,3.6,0,6.48,19.8.72,19.8,13.26,0,6-5.52,9.9-14.52,9.9-5.34,0-10.68-1.56-13.56-3.6Z"/>
  </g>
  <g>
    <rect class="cls-2" x="1242.29" y="1115.51" width="436.75" height="62.35"/>
    <path class="cls-3" d="M1247.93,1118.03h7.8v35.4h21.96v6.6h-29.76v-42Z"/>
    <path class="cls-3" d="M1310.87,1127.99l-15,34.62c-2.94,7.26-7.02,9.48-12.36,9.48-3.18,0-6.54-1.08-8.58-2.94l3-5.52c1.44,1.38,3.48,2.22,5.52,2.22,2.64,0,4.2-1.26,5.64-4.44l.54-1.26-13.98-32.16h7.8l10.08,23.7,10.14-23.7h7.2Z"/>
    <path class="cls-3" d="M1312.01,1144.01c0-9.6,7.2-16.38,17.04-16.38s17.1,6.78,17.1,16.38-7.14,16.44-17.1,16.44-17.04-6.84-17.04-16.44ZM1338.59,1144.01c0-6.12-4.08-10.02-9.54-10.02s-9.48,3.9-9.48,10.02,4.08,10.02,9.48,10.02,9.54-3.9,9.54-10.02Z"/>
    <path class="cls-3" d="M1384.9,1141.67v18.36h-7.5v-17.4c0-5.7-2.82-8.46-7.62-8.46-5.34,0-8.94,3.24-8.94,9.66v16.2h-7.5v-32.04h7.14v4.14c2.46-2.94,6.36-4.5,11.04-4.5,7.68,0,13.38,4.38,13.38,14.04Z"/>
  </g>
  <g>
    <rect class="cls-2" x="1371.07" y="848.18" width="436.75" height="65.78"/>
    <path class="cls-3" d="M1414.03,881.3c0,7.2-5.64,11.4-16.44,11.4h-20.88v-42h19.68c10.08,0,15.48,4.26,15.48,10.92,0,4.32-2.16,7.5-5.4,9.24,4.5,1.44,7.56,4.98,7.56,10.44ZM1384.51,856.82v11.58h11.04c5.4,0,8.46-1.92,8.46-5.76s-3.06-5.82-8.46-5.82h-11.04ZM1406.17,880.52c0-4.2-3.18-6.06-9.06-6.06h-12.6v12.12h12.6c5.88,0,9.06-1.86,9.06-6.06Z"/>
    <path class="cls-3" d="M1451.65,879.08h-25.14c.9,4.68,4.8,7.68,10.38,7.68,3.6,0,6.42-1.14,8.7-3.48l4.02,4.62c-2.88,3.42-7.38,5.22-12.9,5.22-10.74,0-17.7-6.9-17.7-16.44s7.02-16.38,16.56-16.38,16.2,6.54,16.2,16.56c0,.6-.06,1.5-.12,2.22ZM1426.45,874.1h18.18c-.6-4.62-4.14-7.8-9.06-7.8s-8.4,3.12-9.12,7.8Z"/>
    <path class="cls-3" d="M1455.31,889.52l2.88-5.7c2.82,1.86,7.14,3.18,11.16,3.18,4.74,0,6.72-1.32,6.72-3.54,0-6.12-19.8-.36-19.8-13.14,0-6.06,5.46-10.02,14.1-10.02,4.26,0,9.12,1.02,12,2.76l-2.88,5.7c-3.06-1.8-6.12-2.4-9.18-2.4-4.56,0-6.72,1.5-6.72,3.6,0,6.48,19.8.72,19.8,13.26,0,6-5.52,9.9-14.52,9.9-5.34,0-10.68-1.56-13.56-3.6Z"/>
    <path class="cls-3" d="M1516.69,873.92v18.78h-7.08v-3.9c-1.8,2.76-5.28,4.32-10.08,4.32-7.32,0-11.94-4.02-11.94-9.6s3.6-9.54,13.32-9.54h8.28v-.48c0-4.38-2.64-6.96-7.98-6.96-3.6,0-7.32,1.2-9.72,3.18l-2.94-5.46c3.42-2.64,8.4-3.96,13.56-3.96,9.24,0,14.58,4.38,14.58,13.62ZM1509.19,882.68v-3.72h-7.74c-5.1,0-6.48,1.92-6.48,4.26,0,2.7,2.28,4.44,6.12,4.44s6.84-1.68,8.1-4.98Z"/>
    <path class="cls-3" d="M1557.85,874.34v18.36h-7.5v-17.4c0-5.7-2.82-8.46-7.62-8.46-5.34,0-8.94,3.24-8.94,9.66v16.2h-7.5v-32.04h7.14v4.14c2.46-2.94,6.36-4.5,11.04-4.5,7.68,0,13.38,4.38,13.38,14.04Z"/>
    <path class="cls-3" d="M1590.31,882.26l5.76,3.36c-2.4,4.68-7.2,7.38-13.2,7.5l-.66,2.52c3.54.42,5.22,2.46,5.22,5.04,0,3.48-3.24,5.7-8.16,5.7-2.16,0-4.02-.42-5.52-1.26l1.38-3.54c1.26.66,2.58.96,4.08.96,2.22,0,3.18-.84,3.18-2.16,0-1.14-.9-1.98-3.18-1.98h-1.86l1.5-5.58c-8.22-1.38-13.8-7.68-13.8-16.14,0-9.6,7.2-16.38,17.34-16.38,6.24,0,11.22,2.58,13.68,7.44l-5.76,3.36c-1.92-3.06-4.8-4.44-7.98-4.44-5.52,0-9.72,3.84-9.72,10.02s4.2,10.02,9.72,10.02c3.18,0,6.06-1.38,7.98-4.44Z"/>
    <path class="cls-3" d="M1599.43,876.68c0-9.6,7.2-16.38,17.04-16.38s17.1,6.78,17.1,16.38-7.14,16.44-17.1,16.44-17.04-6.84-17.04-16.44ZM1626.01,876.68c0-6.12-4.08-10.02-9.54-10.02s-9.48,3.9-9.48,10.02,4.08,10.02,9.48,10.02,9.54-3.9,9.54-10.02Z"/>
    <path class="cls-3" d="M1672.33,874.34v18.36h-7.5v-17.4c0-5.7-2.82-8.46-7.62-8.46-5.34,0-8.94,3.24-8.94,9.66v16.2h-7.5v-32.04h7.14v4.14c2.46-2.94,6.36-4.5,11.04-4.5,7.68,0,13.38,4.38,13.38,14.04Z"/>
  </g>
  <path class="cls-3" d="M997.08,354.61c1.33,0,2.67,0,4,0,1.42.21,2.86.34,4.26.63,6.74,1.4,12.5,4.59,17.13,9.7,6.94,7.66,9.42,16.71,8.02,26.86-.91,6.58-3.28,12.69-6.44,18.49-5.93,10.87-13.74,20.26-22.79,28.66-1.4,1.3-2.98,1.3-4.38,0-8.86-8.23-16.53-17.41-22.43-28.01-3.13-5.62-5.49-11.54-6.61-17.91-.82-4.64-.81-9.27.27-13.87,1.4-5.95,4.29-11.09,8.64-15.37,4.82-4.74,10.58-7.69,17.28-8.76,1.01-.16,2.02-.28,3.04-.42ZM999.05,395.32c4.82.02,8.81-3.95,8.86-8.83.05-4.88-3.94-8.94-8.8-8.96-4.82-.02-8.81,3.96-8.86,8.83-.05,4.88,3.94,8.94,8.8,8.96Z"/>
  <path class="cls-3" d="M1201.43,1103.61c1.33,0,2.67,0,4,0,1.42.21,2.86.34,4.26.63,6.74,1.4,12.5,4.59,17.13,9.7,6.94,7.66,9.42,16.71,8.02,26.86-.91,6.58-3.28,12.69-6.44,18.49-5.93,10.87-13.74,20.26-22.79,28.66-1.4,1.3-2.98,1.3-4.38,0-8.86-8.23-16.53-17.41-22.43-28.01-3.13-5.62-5.49-11.54-6.61-17.91-.82-4.64-.81-9.27.27-13.87,1.4-5.95,4.29-11.09,8.64-15.37,4.82-4.74,10.58-7.69,17.28-8.76,1.01-.16,2.02-.28,3.04-.42ZM1203.4,1144.32c4.82.02,8.81-3.95,8.86-8.83.05-4.88-3.94-8.94-8.8-8.96-4.82-.02-8.81,3.96-8.86,8.83-.05,4.88,3.94,8.94,8.8,8.96Z"/>
  <path class="cls-3" d="M609.12,1209.76c1.33,0,2.67,0,4,0,1.42.21,2.86.34,4.26.63,6.74,1.4,12.5,4.59,17.13,9.7,6.94,7.66,9.42,16.71,8.02,26.86-.91,6.58-3.28,12.69-6.44,18.49-5.93,10.87-13.74,20.26-22.79,28.66-1.4,1.3-2.98,1.3-4.38,0-8.86-8.23-16.53-17.41-22.43-28.01-3.13-5.62-5.49-11.54-6.61-17.91-.82-4.64-.81-9.27.27-13.87,1.4-5.95,4.29-11.09,8.64-15.37,4.82-4.74,10.58-7.69,17.28-8.76,1.01-.16,2.02-.28,3.04-.42ZM611.09,1250.47c4.82.02,8.81-3.95,8.86-8.83.05-4.88-3.94-8.94-8.8-8.96-4.82-.02-8.81,3.96-8.86,8.83-.05,4.88,3.94,8.94,8.8,8.96Z"/>
  <path class="cls-3" d="M934.24,606.95c1.33,0,2.67,0,4,0,1.42.21,2.86.34,4.26.63,6.74,1.4,12.5,4.59,17.13,9.7,6.94,7.66,9.42,16.71,8.02,26.86-.91,6.58-3.28,12.69-6.44,18.49-5.93,10.87-13.74,20.26-22.79,28.66-1.4,1.3-2.98,1.3-4.38,0-8.86-8.23-16.53-17.41-22.43-28.01-3.13-5.62-5.49-11.54-6.61-17.91-.82-4.64-.81-9.27.27-13.87,1.4-5.95,4.29-11.09,8.64-15.37,4.82-4.74,10.58-7.69,17.28-8.76,1.01-.16,2.02-.28,3.04-.42ZM936.21,647.66c4.82.02,8.81-3.95,8.86-8.83.05-4.88-3.94-8.94-8.8-8.96-4.82-.02-8.81,3.96-8.86,8.83-.05,4.88,3.94,8.94,8.8,8.96Z"/>
  <path class="cls-3" d="M899.12,760.57c1.33,0,2.67,0,4,0,1.42.21,2.86.34,4.26.63,6.74,1.4,12.5,4.59,17.13,9.7,6.94,7.66,9.42,16.71,8.02,26.86-.91,6.58-3.28,12.69-6.44,18.49-5.93,10.87-13.74,20.26-22.79,28.66-1.4,1.3-2.98,1.3-4.38,0-8.86-8.23-16.53-17.41-22.43-28.01-3.13-5.62-5.49-11.54-6.61-17.91-.82-4.64-.81-9.27.27-13.87,1.4-5.95,4.29-11.09,8.64-15.37,4.82-4.74,10.58-7.69,17.28-8.76,1.01-.16,2.02-.28,3.04-.42ZM901.09,801.28c4.82.02,8.81-3.95,8.86-8.83.05-4.88-3.94-8.94-8.8-8.96-4.82-.02-8.81,3.96-8.86,8.83-.05,4.88,3.94,8.94,8.8,8.96Z"/>
  <path class="cls-3" d="M1328.41,835.65c1.33,0,2.67,0,4,0,1.42.21,2.86.34,4.26.63,6.74,1.4,12.5,4.59,17.13,9.7,6.94,7.66,9.42,16.71,8.02,26.86-.91,6.58-3.28,12.69-6.44,18.49-5.93,10.87-13.74,20.26-22.79,28.66-1.4,1.3-2.98,1.3-4.38,0-8.86-8.23-16.53-17.41-22.43-28.01-3.13-5.62-5.49-11.54-6.61-17.91-.82-4.64-.81-9.27.27-13.87,1.4-5.95,4.29-11.09,8.64-15.37,4.82-4.74,10.58-7.69,17.28-8.76,1.01-.16,2.02-.28,3.04-.42ZM1330.38,876.37c4.82.02,8.81-3.95,8.86-8.83.05-4.88-3.94-8.94-8.8-8.96-4.82-.02-8.81,3.96-8.86,8.83-.05,4.88,3.94,8.94,8.8,8.96Z"/>
  <path class="cls-3" d="M817.15,1086.35c1.33,0,2.67,0,4,0,1.42.21,2.86.34,4.26.63,6.74,1.4,12.5,4.59,17.13,9.7,6.94,7.66,9.42,16.71,8.02,26.86-.91,6.58-3.28,12.69-6.44,18.49-5.93,10.87-13.74,20.26-22.79,28.66-1.4,1.3-2.98,1.3-4.38,0-8.86-8.23-16.53-17.41-22.43-28.01-3.13-5.62-5.49-11.54-6.61-17.91-.82-4.64-.81-9.27.27-13.87,1.4-5.95,4.29-11.09,8.64-15.37,4.82-4.74,10.58-7.69,17.28-8.76,1.01-.16,2.02-.28,3.04-.42ZM819.12,1127.06c4.82.02,8.81-3.95,8.86-8.83.05-4.88-3.94-8.94-8.8-8.96-4.82-.02-8.81,3.96-8.86,8.83-.05,4.88,3.94,8.94,8.8,8.96Z"/>
  <g>
    <rect class="cls-2" x="865.19" y="1112.88" width="294.01" height="52.02"/>
    <path class="cls-3" d="M870.83,1115.41h7.8v35.4h21.96v6.6h-29.76v-42Z"/>
    <path class="cls-3" d="M905.03,1115.59c0-2.52,2.04-4.5,4.8-4.5s4.8,1.86,4.8,4.32c0,2.64-1.98,4.68-4.8,4.68s-4.8-1.98-4.8-4.5ZM906.05,1125.37h7.5v32.04h-7.5v-32.04Z"/>
    <path class="cls-3" d="M976.96,1139.04v18.36h-7.5v-17.4c0-5.7-2.64-8.46-7.2-8.46-4.92,0-8.34,3.24-8.34,9.6v16.26h-7.5v-17.4c0-5.7-2.64-8.46-7.2-8.46-4.98,0-8.34,3.24-8.34,9.6v16.26h-7.5v-32.04h7.14v4.08c2.4-2.88,6.12-4.44,10.5-4.44,4.68,0,8.58,1.74,10.8,5.34,2.58-3.3,6.9-5.34,12-5.34,7.74,0,13.14,4.38,13.14,14.04Z"/>
    <path class="cls-3" d="M984.23,1141.38c0-9.6,7.2-16.38,17.04-16.38s17.1,6.78,17.1,16.38-7.14,16.44-17.1,16.44-17.04-6.84-17.04-16.44ZM1010.8,1141.38c0-6.12-4.08-10.02-9.54-10.02s-9.48,3.9-9.48,10.02,4.08,10.02,9.48,10.02,9.54-3.9,9.54-10.02Z"/>
    <path class="cls-3" d="M1057.36,1125.37v27.18c0,11.64-6.06,16.92-17.28,16.92-6,0-11.94-1.56-15.6-4.56l3.36-5.64c2.82,2.34,7.38,3.84,11.82,3.84,7.08,0,10.2-3.24,10.2-9.72v-1.68c-2.64,2.88-6.42,4.26-10.74,4.26-9.18,0-16.2-6.24-16.2-15.54s7.02-15.42,16.2-15.42c4.5,0,8.46,1.44,11.1,4.62v-4.26h7.14ZM1049.98,1140.42c0-5.4-4.08-9.06-9.72-9.06s-9.78,3.66-9.78,9.06,4.08,9.18,9.78,9.18,9.72-3.72,9.72-9.18Z"/>
    <path class="cls-3" d="M1097.2,1143.78h-25.14c.9,4.68,4.8,7.68,10.38,7.68,3.6,0,6.42-1.14,8.7-3.48l4.02,4.62c-2.88,3.42-7.38,5.22-12.9,5.22-10.74,0-17.7-6.9-17.7-16.44s7.02-16.38,16.56-16.38,16.2,6.54,16.2,16.56c0,.6-.06,1.5-.12,2.22ZM1072,1138.81h18.18c-.6-4.62-4.14-7.8-9.06-7.8s-8.4,3.12-9.12,7.8Z"/>
    <path class="cls-3" d="M1100.86,1154.22l2.88-5.7c2.82,1.86,7.14,3.18,11.16,3.18,4.74,0,6.72-1.32,6.72-3.54,0-6.12-19.8-.36-19.8-13.14,0-6.06,5.46-10.02,14.1-10.02,4.26,0,9.12,1.02,12,2.76l-2.88,5.7c-3.06-1.8-6.12-2.4-9.18-2.4-4.56,0-6.72,1.5-6.72,3.6,0,6.48,19.8.72,19.8,13.26,0,6-5.52,9.9-14.52,9.9-5.34,0-10.68-1.56-13.56-3.6Z"/>
  </g>
</svg>