<svg xmlns="http://www.w3.org/2000/svg" width="383.638" height="301.522" viewBox="0 0 383.638 301.522">
  <g id="EMCQ-Balance" transform="matrix(0.978, -0.208, 0.208, 0.978, -14.968, 47.512)">
    <circle id="Ellipse_2" data-name="Ellipse 2" cx="5.818" cy="5.818" r="5.818" transform="translate(216.632 0.259)" fill="#de4632"/>
    <path id="Tracé_125" data-name="Tracé 125" d="M.659,126.728c-3.57,16.078,17.087,34.34,46.139,40.79s55.491-1.356,59.065-17.427l1.155-5.208L1.822,121.528Z" transform="translate(0 65.238)" fill="#3b193d"/>
    <rect id="Rectangle_16" data-name="Rectangle 16" width="107.765" height="5.334" transform="translate(1.816 186.759) rotate(12.517)" fill="#de4632"/>
    <line id="Ligne_4" data-name="Ligne 4" x2="105.204" y2="23.355" transform="translate(0.659 191.966)" fill="none" stroke="#000" stroke-miterlimit="10" stroke-width="0.516"/>
    <path id="Tracé_126" data-name="Tracé 126" d="M59.173,31.822c11.243,2.5,20.762,15.841,33.183,18.609s42-22.525,64.4-17.553l16.362,3.633L169.531,52.66l-16.361-3.633c-23.934-5.314-41.4,12.973-62.35,8.322C75.2,53.881,70.267,40.307,57.9,37.562" transform="translate(31.009 16.98)" fill="#de4632"/>
    <path id="Tracé_127" data-name="Tracé 127" d="M59.173,31.822c11.243,2.5,20.762,15.841,33.183,18.609s42-22.525,64.4-17.553l16.362,3.633L169.531,52.66l-16.361-3.633c-23.934-5.314-41.4,12.973-62.35,8.322C75.2,53.881,70.267,40.307,57.9,37.562" transform="translate(31.009 16.98)" fill="none" stroke="#000" stroke-miterlimit="10" stroke-width="0.516"/>
    <path id="Tracé_128" data-name="Tracé 128" d="M.659,126.728c-3.57,16.078,17.087,34.34,46.139,40.79s55.491-1.356,59.065-17.427l1.155-5.208L1.822,121.528Z" transform="translate(0 65.238)" fill="none" stroke="#000" stroke-miterlimit="10" stroke-width="0.516"/>
    <path id="Tracé_129" data-name="Tracé 129" d="M178.61,195.711c3.57-16.078-17.087-34.34-46.139-40.79s-55.5,1.357-59.058,17.434l-1.157,5.206,105.2,23.357Z" transform="translate(38.733 81.984)" fill="#de4632"/>
    <rect id="Rectangle_17" data-name="Rectangle 17" width="107.765" height="5.334" transform="translate(216.187 282.903) rotate(-167.483)" fill="#e87c6e"/>
    <line id="Ligne_5" data-name="Ligne 5" x1="105.203" y1="23.355" transform="translate(112.14 254.339)" fill="none" stroke="#000" stroke-miterlimit="10" stroke-width="0.516"/>
    <path id="Tracé_130" data-name="Tracé 130" d="M178.61,195.711c3.57-16.078-17.087-34.34-46.139-40.79s-55.5,1.357-59.058,17.434l-1.157,5.206,105.2,23.357Z" transform="translate(38.733 81.984)" fill="none" stroke="#000" stroke-miterlimit="10" stroke-width="0.516"/>
    <path id="Tracé_131" data-name="Tracé 131" d="M1.271,164.066,86.013,42.441l20.461,144.981" transform="translate(0.545 22.692)" fill="none" stroke="#000" stroke-miterlimit="10" stroke-width="0.516"/>
    <line id="Ligne_6" data-name="Ligne 6" y1="133.303" x2="32.14" transform="translate(54.417 65.133)" fill="none" stroke="#000" stroke-miterlimit="10" stroke-width="0.516"/>
    <circle id="Ellipse_3" data-name="Ellipse 3" cx="8.365" cy="8.365" r="8.365" transform="translate(80.006 48.602)" fill="#e87c6e"/>
    <circle id="Ellipse_4" data-name="Ellipse 4" cx="8.365" cy="8.365" r="8.365" transform="translate(80.006 48.602)" fill="none" stroke="#000" stroke-miterlimit="10" stroke-width="0.516"/>
    <path id="Tracé_132" data-name="Tracé 132" d="M261.184,184.569c-3.57,16.078-30.013,23.883-59.058,17.434s-49.708-24.712-46.139-40.79l1.157-5.208,105.2,23.355Z" transform="translate(83.56 83.786)" fill="#3b193d"/>
    <rect id="Rectangle_18" data-name="Rectangle 18" width="107.765" height="5.334" transform="translate(344.743 268.355) rotate(-167.483)" fill="#de4632"/>
    <line id="Ligne_7" data-name="Ligne 7" x1="105.204" y1="23.355" transform="translate(239.54 244.999)" fill="none" stroke="#000" stroke-miterlimit="10" stroke-width="0.516"/>
    <path id="Tracé_133" data-name="Tracé 133" d="M248.961,80.986c-11.242-2.5-25.513,5.574-37.94,2.814S182.5,45.618,160.1,40.646l-16.367-3.633-3.585,16.149,16.361,3.633c23.934,5.314,32.025,29.275,52.97,33.924,15.621,3.468,25.838-6.744,38.2-4" transform="translate(75.256 19.772)" fill="#de4632"/>
    <path id="Tracé_134" data-name="Tracé 134" d="M248.961,80.986c-11.242-2.5-25.513,5.574-37.94,2.814S182.5,45.618,160.1,40.646l-16.367-3.633-3.585,16.149,16.361,3.633c23.934,5.314,32.025,29.275,52.97,33.924,15.621,3.468,25.838-6.744,38.2-4" transform="translate(75.256 19.772)" fill="none" stroke="#000" stroke-miterlimit="10" stroke-width="0.516"/>
    <path id="Tracé_135" data-name="Tracé 135" d="M261.184,184.569c-3.57,16.078-30.013,23.883-59.058,17.434s-49.708-24.712-46.139-40.79l1.157-5.208,105.2,23.355Z" transform="translate(83.56 83.786)" fill="none" stroke="#000" stroke-miterlimit="10" stroke-width="0.516"/>
    <path id="Tracé_136" data-name="Tracé 136" d="M261.8,222.282,236.483,76.223l-79.889,122.7" transform="translate(84.103 40.866)" fill="none" stroke="#000" stroke-miterlimit="10" stroke-width="0.516"/>
    <line id="Ligne_8" data-name="Ligne 8" y1="134.381" x2="27.288" transform="translate(293.298 117.089)" fill="none" stroke="#000" stroke-miterlimit="10" stroke-width="0.516"/>
    <circle id="Ellipse_5" data-name="Ellipse 5" cx="8.365" cy="8.365" r="8.365" transform="translate(314.034 100.559)" fill="#e87c6e"/>
    <circle id="Ellipse_6" data-name="Ellipse 6" cx="8.365" cy="8.365" r="8.365" transform="translate(314.034 100.559)" fill="none" stroke="#000" stroke-miterlimit="10" stroke-width="0.516"/>
    <circle id="Ellipse_7" data-name="Ellipse 7" cx="5.818" cy="5.818" r="5.818" transform="translate(216.632 0.259)" fill="none" stroke="#000" stroke-miterlimit="10" stroke-width="0.516"/>
    <circle id="Ellipse_8" data-name="Ellipse 8" cx="11.913" cy="11.913" r="11.913" transform="translate(206.694 11.475)" fill="#e87c6e"/>
    <circle id="Ellipse_9" data-name="Ellipse 9" cx="11.913" cy="11.913" r="11.913" transform="translate(206.694 11.475)" fill="none" stroke="#000" stroke-miterlimit="10" stroke-width="0.516"/>
    <rect id="Rectangle_19" data-name="Rectangle 19" width="10.697" height="7.107" rx="1.1" transform="translate(211.03 32.838) rotate(12.517)" fill="#de4632"/>
    <rect id="Rectangle_20" data-name="Rectangle 20" width="10.697" height="7.107" rx="1.1" transform="translate(211.03 32.838) rotate(12.517)" fill="none" stroke="#000" stroke-miterlimit="10" stroke-width="0.516"/>
    <rect id="Rectangle_21" data-name="Rectangle 21" width="21.05" height="2.819" rx="0.916" transform="translate(194.821 81.966) rotate(12.517)" fill="#de4632"/>
    <rect id="Rectangle_22" data-name="Rectangle 22" width="21.05" height="2.819" rx="0.916" transform="translate(194.821 81.966) rotate(12.517)" fill="none" stroke="#000" stroke-miterlimit="10" stroke-width="0.516"/>
    <rect id="Rectangle_23" data-name="Rectangle 23" width="21.05" height="12.242" rx="1.91" transform="translate(163.582 222.672) rotate(12.517)" fill="#e87c6e"/>
    <rect id="Rectangle_24" data-name="Rectangle 24" width="21.05" height="12.242" rx="1.91" transform="translate(163.582 222.672) rotate(12.517)" fill="none" stroke="#000" stroke-miterlimit="10" stroke-width="0.516"/>
    <rect id="Rectangle_25" data-name="Rectangle 25" width="44.367" height="16.418" rx="0.711" transform="translate(222.726 42.714) rotate(102.517)" fill="#e87c6e"/>
    <rect id="Rectangle_26" data-name="Rectangle 26" width="44.367" height="16.418" rx="0.711" transform="translate(222.726 42.714) rotate(102.517)" fill="none" stroke="#000" stroke-miterlimit="10" stroke-width="0.516"/>
    <rect id="Rectangle_27" data-name="Rectangle 27" width="141.314" height="16.418" rx="1.269" transform="translate(212.498 88.779) rotate(102.517)" fill="#de4632"/>
    <rect id="Rectangle_28" data-name="Rectangle 28" width="141.314" height="16.418" rx="1.269" transform="translate(212.498 88.779) rotate(102.517)" fill="none" stroke="#000" stroke-miterlimit="10" stroke-width="0.516"/>
  </g>
</svg>
