<svg xmlns="http://www.w3.org/2000/svg" width="275.621" height="279.366" viewBox="0 0 275.621 279.366">
  <g id="EMCQ-Code_Pénal" data-name="EMCQ-Code Pénal" transform="translate(0.036 0.036)">
    <path id="Tracé_13" data-name="Tracé 13" d="M197.111,23.157,183.5,27.816,177.122,9.185A13.059,13.059,0,0,0,160.54,1.058L9.184,52.853A13.056,13.056,0,0,0,1.059,69.431L64.747,255.564c.507,2.379,3.053,4.791,5.648,7.2l35.275,15.11a28.963,28.963,0,0,0,10.01,1.037,6.751,6.751,0,0,0,2.82-.333l148.2-50.715a12.523,12.523,0,0,0,7.794-15.9L212.464,30.686A12.1,12.1,0,0,0,197.111,23.157Z" transform="translate(0 0)" fill="#3b193d"/>
    <path id="Tracé_14" data-name="Tracé 14" d="M174.026,17.787,155.39,6.968,216.9,186.705a12.936,12.936,0,0,1-8.051,16.429L57.808,254.824,82.442,265.83a19.582,19.582,0,0,0,14.961.944l142.571-48.79a8.155,8.155,0,0,0,5.075-10.355l-61.11-178.6a19.588,19.588,0,0,0-9.912-11.247Z" transform="translate(21.69 2.498)" fill="#755d76"/>
    <rect id="Rectangle_3" data-name="Rectangle 3" width="166.067" height="197.256" rx="3.583" transform="translate(9.371 62.809) rotate(-18.891)" fill="#de4632"/>
    <g id="Groupe_4" data-name="Groupe 4" transform="translate(60.028 83.856)">
      <path id="Tracé_15" data-name="Tracé 15" d="M68.42,110.457a15.584,15.584,0,0,1-7.98,1.718,14.188,14.188,0,0,1-7.527-2.766,22.051,22.051,0,0,1-8.2-16.546,14.2,14.2,0,0,1,2.362-7.686,15.542,15.542,0,0,1,6.157-5.3,16.99,16.99,0,0,1,5.08-1.636,13.578,13.578,0,0,1,4.914.138,12.238,12.238,0,0,1,4.431,1.949,14.336,14.336,0,0,1,3.646,3.783L65.13,87.173a6.836,6.836,0,0,0-1.855-1.807,6.631,6.631,0,0,0-2.223-.915A6.842,6.842,0,0,0,58.6,84.4a8.735,8.735,0,0,0-2.553.826A8.034,8.034,0,0,0,52.552,88.4a8.419,8.419,0,0,0-1.041,4.719A17.191,17.191,0,0,0,56.873,103.9a8.239,8.239,0,0,0,4.365,1.97,8.127,8.127,0,0,0,4.593-.886,8.62,8.62,0,0,0,2.2-1.525,7.127,7.127,0,0,0,1.453-1.992,6.38,6.38,0,0,0,.63-2.342,7.2,7.2,0,0,0-.292-2.57l6.177-3.066a12.658,12.658,0,0,1,.745,4.588,13.666,13.666,0,0,1-.942,4.7,13.485,13.485,0,0,1-2.726,4.3A15.857,15.857,0,0,1,68.42,110.457Z" transform="translate(-43.281 -54.515)" fill="#3b193d"/>
      <path id="Tracé_16" data-name="Tracé 16" d="M80.751,94.222a12.558,12.558,0,0,1-6.692.021,10.9,10.9,0,0,1-5.2-3.335,16.1,16.1,0,0,1-3.306-13.086,10.893,10.893,0,0,1,3-5.405,13.866,13.866,0,0,1,12.607-3.188,10.928,10.928,0,0,1,5.193,3.339,16.1,16.1,0,0,1,3.306,13.086,10.921,10.921,0,0,1-2.989,5.407,12.543,12.543,0,0,1-5.911,3.161Zm-1.289-5.106a4.546,4.546,0,0,0,2.654-1.7A5.97,5.97,0,0,0,83.2,84.338a12.993,12.993,0,0,0-1.915-7.576,5.911,5.911,0,0,0-2.413-2.187,5.029,5.029,0,0,0-5.785,1.462,5.948,5.948,0,0,0-1.081,3.058,12.977,12.977,0,0,0,1.916,7.576,6,6,0,0,0,2.408,2.2,4.5,4.5,0,0,0,3.13.241Z" transform="translate(-35.52 -58.006)" fill="#3b193d"/>
      <path id="Tracé_17" data-name="Tracé 17" d="M103.03,101.745a9.352,9.352,0,0,1-5.192,1.389,10.067,10.067,0,0,1-5.372-1.851A16.53,16.53,0,0,1,87.7,95.955a16.281,16.281,0,0,1-2.479-6.814,10.006,10.006,0,0,1,.95-5.569,9.407,9.407,0,0,1,3.606-3.832,7.751,7.751,0,0,1,3.39-1.2,7.072,7.072,0,0,1,2.86.339,8.609,8.609,0,0,1,2.154,1.074l.191-.114L91.941,69.122l5.739-3.444,17.124,28.5-5.648,3.39L107.1,94.147l-.288.172a8.179,8.179,0,0,1-.1,2.415,7.182,7.182,0,0,1-1.081,2.642,7.783,7.783,0,0,1-2.6,2.369Zm-.99-5.678a4.588,4.588,0,0,0,2-2.3,5.76,5.76,0,0,0,.218-3.19,12.827,12.827,0,0,0-4.047-6.758,5.616,5.616,0,0,0-2.893-1.282,4.65,4.65,0,0,0-2.984.712,4.569,4.569,0,0,0-2.04,2.342,5.809,5.809,0,0,0-.183,3.182,12.621,12.621,0,0,0,3.995,6.633,5.872,5.872,0,0,0,2.916,1.346,4.546,4.546,0,0,0,3.014-.686Z" transform="translate(-28.015 -59.196)" fill="#3b193d"/>
      <path id="Tracé_18" data-name="Tracé 18" d="M117.039,86.632a13.188,13.188,0,0,1-6.714-.843,10.506,10.506,0,0,1-4.7-3.958,16.355,16.355,0,0,1-1.475-13.509,10.968,10.968,0,0,1,3.66-4.959,12.027,12.027,0,0,1,6.126-2.3,13.132,13.132,0,0,1,4.631.282,10.429,10.429,0,0,1,3.959,1.94,10.82,10.82,0,0,1,2.92,3.645,15.632,15.632,0,0,1,1.5,5.449l.2,1.864L106.311,76.5l-.452-4.171,17.571-1.9-2.986,1.445a8.833,8.833,0,0,0-.952-3.3,4.821,4.821,0,0,0-1.993-2.029,5.047,5.047,0,0,0-2.958-.477,5.252,5.252,0,0,0-2.854,1.117,5.065,5.065,0,0,0-1.6,2.362,7.485,7.485,0,0,0-.284,3.183l.32,2.951a8.189,8.189,0,0,0,1.113,3.539A4.984,4.984,0,0,0,113.5,81.2a6.094,6.094,0,0,0,3.108.4,6.5,6.5,0,0,0,2.094-.563,4.43,4.43,0,0,0,1.524-1.164,4.308,4.308,0,0,0,.857-1.721l6.157.477a8.633,8.633,0,0,1-1.7,3.81,10.031,10.031,0,0,1-3.458,2.787,14.542,14.542,0,0,1-5.044,1.405Z" transform="translate(-21.159 -60.972)" fill="#3b193d"/>
      <path id="Tracé_19" data-name="Tracé 19" d="M60.015,142.486,43.674,110.6l12.433-6.371a14.382,14.382,0,0,1,6.887-1.791,10.64,10.64,0,0,1,5.836,1.818,12.8,12.8,0,0,1,4.194,4.889,12.535,12.535,0,0,1,1.5,6.272,10.645,10.645,0,0,1-2.007,5.785,14.924,14.924,0,0,1-5.564,4.566l-8,4.1-2.7-5.265,6.955-3.564a7.821,7.821,0,0,0,2.956-2.39,5.056,5.056,0,0,0,.945-2.9,6.832,6.832,0,0,0-.817-3.149,6.75,6.75,0,0,0-2.073-2.491,4.926,4.926,0,0,0-2.9-.89,8.074,8.074,0,0,0-3.661,1.025l-4.683,2.4L66.549,139.14Z" transform="translate(-43.674 -45.319)" fill="#3b193d"/>
      <path id="Tracé_20" data-name="Tracé 20" d="M84.8,129.292a14.207,14.207,0,0,1-7.291,0,11.323,11.323,0,0,1-5.564-3.593,17.632,17.632,0,0,1-3.405-14.243,11.813,11.813,0,0,1,3.243-5.785,12.977,12.977,0,0,1,6.236-3.295,14.14,14.14,0,0,1,4.991-.324,11.224,11.224,0,0,1,4.495,1.537,11.659,11.659,0,0,1,3.615,3.5,16.818,16.818,0,0,1,2.342,5.623l.468,1.964-21.966,5.234-1.047-4.4,18.526-4.408-3,1.951a9.56,9.56,0,0,0-1.464-3.4,5.2,5.2,0,0,0-2.405-1.9,5.422,5.422,0,0,0-3.227-.109,5.648,5.648,0,0,0-2.893,1.58,5.452,5.452,0,0,0-1.387,2.74,8.074,8.074,0,0,0,.128,3.444l.741,3.112a8.826,8.826,0,0,0,1.67,3.631,5.346,5.346,0,0,0,2.679,1.809,6.573,6.573,0,0,0,3.378.012,7,7,0,0,0,2.161-.886,4.758,4.758,0,0,0,1.471-1.451,4.634,4.634,0,0,0,.689-1.956l6.646-.322a9.3,9.3,0,0,1-1.3,4.3,10.808,10.808,0,0,1-3.318,3.444,15.721,15.721,0,0,1-5.215,2.179Zm-10.16-29.27,1.515-8.049,6.507-1.55-3.109,8.429Z" transform="translate(-34.412 -49.855)" fill="#3b193d"/>
      <path id="Tracé_21" data-name="Tracé 21" d="M99.011,109.568l6.306,14.223-6.6,2.923L87.827,102.138l6.221-2.755,2.828,6.084-.4.176a10.984,10.984,0,0,1,.826-6.061,8.265,8.265,0,0,1,4.342-3.934,9.491,9.491,0,0,1,4.944-.864,8.187,8.187,0,0,1,4.358,1.882,11.948,11.948,0,0,1,3.243,4.495l6.932,15.622-6.6,2.923-6.422-14.486a5.622,5.622,0,0,0-2.765-3.062,4.577,4.577,0,0,0-3.839.15,5.48,5.48,0,0,0-2.2,1.7,4.579,4.579,0,0,0-.917,2.5A6.474,6.474,0,0,0,99.011,109.568Z" transform="translate(-27.006 -48.224)" fill="#3b193d"/>
      <path id="Tracé_22" data-name="Tracé 22" d="M122.234,113.666a11.171,11.171,0,0,1-4.67.029,7.208,7.208,0,0,1-3.67-2,8,8,0,0,1-2.032-4.132,7.73,7.73,0,0,1,.065-3.842,6.583,6.583,0,0,1,1.732-2.831,11.421,11.421,0,0,1,2.9-2.013,23.716,23.716,0,0,1,3.6-1.42q2.237-.7,3.6-1.186a5.157,5.157,0,0,0,1.92-1.052,1.477,1.477,0,0,0,.387-1.416l-.023-.118a3.719,3.719,0,0,0-.86-1.813,3.072,3.072,0,0,0-1.645-.905,5.667,5.667,0,0,0-2.333.045,6.436,6.436,0,0,0-2.3.9,4.659,4.659,0,0,0-1.427,1.431,4.553,4.553,0,0,0-.631,1.723l-6.7.258a9.385,9.385,0,0,1,1.467-4.372,10.575,10.575,0,0,1,3.424-3.248,15.817,15.817,0,0,1,5.119-1.928,17.081,17.081,0,0,1,4.226-.332,11.762,11.762,0,0,1,3.912.836,7.874,7.874,0,0,1,3.084,2.256,8.593,8.593,0,0,1,1.762,3.9l3.609,17.744-6.692,1.361-.742-3.652-.236.048a7.519,7.519,0,0,1-1.259,2.5,8.06,8.06,0,0,1-2.256,1.993A10.3,10.3,0,0,1,122.234,113.666Zm.992-5.379a6.379,6.379,0,0,0,2.8-1.256,5.1,5.1,0,0,0,1.6-2.192,4.748,4.748,0,0,0,.194-2.664l-.58-2.851a3.022,3.022,0,0,1-.857.616,13.728,13.728,0,0,1-1.346.617q-.749.3-1.479.57t-1.3.461a9.307,9.307,0,0,0-2.161,1.079,3.857,3.857,0,0,0-1.3,1.43,3.2,3.2,0,0,0,.689,3.493,3.232,3.232,0,0,0,1.627.76,5.657,5.657,0,0,0,2.12-.063Z" transform="translate(-18.577 -51.743)" fill="#3b193d"/>
      <path id="Tracé_23" data-name="Tracé 23" d="M136.6,78.552l7.338,35.07-7.061,1.477L129.539,80.03Z" transform="translate(-11.26 -54.336)" fill="#3b193d"/>
    </g>
    <g id="Groupe_5" data-name="Groupe 5" transform="translate(83.364 11.821)">
      <path id="Tracé_24" data-name="Tracé 24" d="M60.615,255.9,210.29,204.683a14.353,14.353,0,0,0,8.933-18.228L158.388,8.678" transform="translate(-60.615 -8.678)" fill="none" stroke="#000" stroke-miterlimit="10" stroke-width="0.703"/>
      <path id="Tracé_25" data-name="Tracé 25" d="M64.029,257.362l150.285-51.427a12.632,12.632,0,0,0,7.861-16.041L160.707,10.275" transform="translate(-59.326 -8.075)" fill="none" stroke="#000" stroke-miterlimit="10" stroke-width="0.703"/>
      <path id="Tracé_26" data-name="Tracé 26" d="M67.443,258.821l150.89-51.635a10.908,10.908,0,0,0,6.79-13.853l-62.1-181.46" transform="translate(-58.037 -7.472)" fill="none" stroke="#000" stroke-miterlimit="10" stroke-width="0.703"/>
      <path id="Tracé_27" data-name="Tracé 27" d="M70.856,260.281l151.5-51.843a9.185,9.185,0,0,0,5.717-11.665l-62.726-183.3" transform="translate(-56.749 -6.869)" fill="none" stroke="#000" stroke-miterlimit="10" stroke-width="0.703"/>
      <path id="Tracé_28" data-name="Tracé 28" d="M74.27,261.74l152.106-52.05a7.465,7.465,0,0,0,4.645-9.479L167.664,15.066" transform="translate(-55.46 -6.267)" fill="none" stroke="#000" stroke-miterlimit="10" stroke-width="0.703"/>
      <path id="Tracé_29" data-name="Tracé 29" d="M77.684,263.2,230.4,210.941a5.74,5.74,0,0,0,3.572-7.29L169.983,16.664" transform="translate(-54.172 -5.663)" fill="none" stroke="#000" stroke-miterlimit="10" stroke-width="0.703"/>
    </g>
    <path id="Tracé_30" data-name="Tracé 30" d="M199.436,22.734a11.933,11.933,0,0,1,13.19,8.4l61.9,180.887a12.458,12.458,0,0,1-7.754,15.819L121.529,277.548a25.473,25.473,0,0,1-18.074-.6l-30.2-12.615a15.48,15.48,0,0,1-8.678-9.275L1.059,69.431A13.056,13.056,0,0,1,9.186,52.85L160.54,1.059a13.059,13.059,0,0,1,16.582,8.127L238.67,189.047a13.057,13.057,0,0,1-8.127,16.582L79.5,257.321s19.246,8.623,24.634,11.006a19.08,19.08,0,0,0,14.961.944l142.886-48.9a7.824,7.824,0,0,0,4.869-9.937l-61.22-178.9c-1.935-5.656-5.022-8.4-9.918-11.247s-18.6-11.1-18.6-11.1" transform="translate(0 0)" fill="none" stroke="#000" stroke-miterlimit="10" stroke-width="0.703"/>
  </g>
</svg>
