<svg xmlns="http://www.w3.org/2000/svg" width="203.374" height="237.987" viewBox="0 0 203.374 237.987">
  <g id="Calque_1" transform="translate(0.02)">
    <g id="Groupe_85" data-name="Groupe 85" transform="translate(0.554 0.606)">
      <path id="Tracé_194" data-name="Tracé 194" d="M191.245,31.751H177.56V13.024A12.418,12.418,0,0,0,165.142.606H13A12.418,12.418,0,0,0,.586,13.024V200.118c-.276,2.3,1.272,5.251,2.865,8.222L30.541,232.8a27.523,27.523,0,0,0,8.689,4.015,6.434,6.434,0,0,0,2.639.569H190.841a11.909,11.909,0,0,0,11.909-11.909V43.254A11.5,11.5,0,0,0,191.245,31.751Z" transform="translate(-0.554 -0.606)" fill="#de4632"/>
      <path id="Tracé_195" data-name="Tracé 195" d="M198.665,36.466,185.227,20.992V201.66a12.3,12.3,0,0,1-12.3,12.3H21.1l18.776,17.488a18.628,18.628,0,0,0,13.172,5.456H196.365a7.755,7.755,0,0,0,7.755-7.755V49.637A18.624,18.624,0,0,0,198.665,36.466Z" transform="translate(-8.345 -8.334)" fill="#755d76"/>
      <path id="Tracé_196" data-name="Tracé 196" d="M169.179,202.724H20.632a4.693,4.693,0,0,1-4.694-4.694V19.821a4.693,4.693,0,0,1,4.694-4.694H169.179a4.693,4.693,0,0,1,4.694,4.694v178.21A4.693,4.693,0,0,1,169.179,202.724Z" transform="translate(-6.386 -6.111)" fill="#3b193d"/>
      <g id="Groupe_82" data-name="Groupe 82" transform="translate(37.155 65.606)">
        <g id="Groupe_81" data-name="Groupe 81">
          <path id="Tracé_197" data-name="Tracé 197" d="M77.285,144.534a14.823,14.823,0,0,1-7.709-.911,13.489,13.489,0,0,1-5.92-4.807A20.979,20.979,0,0,1,61.373,121.4a13.528,13.528,0,0,1,4.493-6.19,14.8,14.8,0,0,1,7.178-2.872,16.188,16.188,0,0,1,5.075.091,12.923,12.923,0,0,1,4.379,1.639,11.64,11.64,0,0,1,3.386,3.118A13.608,13.608,0,0,1,88,121.716l-6.5.857a6.477,6.477,0,0,0-1.114-2.2,6.292,6.292,0,0,0-1.719-1.508,6.493,6.493,0,0,0-2.193-.8,8.311,8.311,0,0,0-2.553-.038,7.636,7.636,0,0,0-4.121,1.785,8.014,8.014,0,0,0-2.394,3.922,16.357,16.357,0,0,0,1.506,11.35,7.834,7.834,0,0,0,3.322,3.116,7.747,7.747,0,0,0,4.405.618,8.165,8.165,0,0,0,2.445-.7A6.756,6.756,0,0,0,81,136.776a6.076,6.076,0,0,0,1.289-1.914,6.88,6.88,0,0,0,.529-2.4l6.5-.857a12.047,12.047,0,0,1-.743,4.358,13.008,13.008,0,0,1-2.3,3.942,12.8,12.8,0,0,1-3.776,3.023A15.056,15.056,0,0,1,77.285,144.534Z" transform="translate(-60.392 -108.509)" fill="#de4632"/>
          <path id="Tracé_198" data-name="Tracé 198" d="M120.01,130.726a11.946,11.946,0,0,1-6.028-2.042,10.36,10.36,0,0,1-3.655-4.6,15.307,15.307,0,0,1,1.057-12.8,10.364,10.364,0,0,1,4.361-3.942,13.186,13.186,0,0,1,12.32,1.017,10.386,10.386,0,0,1,3.645,4.6,15.306,15.306,0,0,1-1.056,12.8,10.383,10.383,0,0,1-4.35,3.942A11.922,11.922,0,0,1,120.01,130.726Zm.412-4.992a4.325,4.325,0,0,0,2.912-.707,5.68,5.68,0,0,0,1.926-2.439,12.357,12.357,0,0,0,.612-7.413,5.612,5.612,0,0,0-1.5-2.7,4.781,4.781,0,0,0-5.658-.468,5.65,5.65,0,0,0-1.914,2.418,12.354,12.354,0,0,0-.612,7.413,5.717,5.717,0,0,0,1.49,2.721A4.279,4.279,0,0,0,120.423,125.734Z" transform="translate(-78.965 -106.265)" fill="#de4632"/>
          <path id="Tracé_199" data-name="Tracé 199" d="M158.908,148.79a8.894,8.894,0,0,1-5.1-.35,9.573,9.573,0,0,1-4.261-3.319,15.7,15.7,0,0,1-2.645-6.259,15.474,15.474,0,0,1-.133-6.9,9.518,9.518,0,0,1,2.569-4.718,8.952,8.952,0,0,1,4.426-2.338,7.369,7.369,0,0,1,3.421-.039,6.707,6.707,0,0,1,2.468,1.185,8.122,8.122,0,0,1,1.609,1.63l.207-.045-2.492-11.62,6.225-1.335,6.631,30.919-6.122,1.313-.8-3.714-.311.067a7.793,7.793,0,0,1-.832,2.143,6.815,6.815,0,0,1-1.786,2.043A7.42,7.42,0,0,1,158.908,148.79Zm.857-5.415a4.363,4.363,0,0,0,2.511-1.45,5.478,5.478,0,0,0,1.178-2.8,12.2,12.2,0,0,0-1.56-7.327,5.352,5.352,0,0,0-2.207-2.045,4.428,4.428,0,0,0-2.9-.278,4.345,4.345,0,0,0-2.558,1.482,5.524,5.524,0,0,0-1.146,2.807,12.015,12.015,0,0,0,1.555,7.2,5.58,5.58,0,0,0,2.21,2.109A4.314,4.314,0,0,0,159.766,143.375Z" transform="translate(-93.012 -109.458)" fill="#de4632"/>
          <path id="Tracé_200" data-name="Tracé 200" d="M199.534,140.64a12.531,12.531,0,0,1-5.781-2.826,10,10,0,0,1-3.015-5.009,15.556,15.556,0,0,1,2.832-12.611,10.435,10.435,0,0,1,4.819-3.33,11.443,11.443,0,0,1,6.22-.186,12.49,12.49,0,0,1,4.081,1.681,9.9,9.9,0,0,1,2.965,2.964,10.3,10.3,0,0,1,1.505,4.179,14.841,14.841,0,0,1-.328,5.365l-.392,1.739L193,128.223l.877-3.892,16.4,3.7-3.132.382a8.423,8.423,0,0,0,.158-3.26,4.588,4.588,0,0,0-1.169-2.439,4.8,4.8,0,0,0-2.515-1.339,4.99,4.99,0,0,0-2.911.127,4.813,4.813,0,0,0-2.163,1.634,7.122,7.122,0,0,0-1.236,2.778l-.621,2.754a7.787,7.787,0,0,0-.088,3.526,4.732,4.732,0,0,0,1.422,2.474,5.789,5.789,0,0,0,2.672,1.32,6.167,6.167,0,0,0,2.058.138,4.2,4.2,0,0,0,1.729-.578,4.084,4.084,0,0,0,1.3-1.284l5.393,2.325a8.2,8.2,0,0,1-2.7,2.9,9.538,9.538,0,0,1-3.97,1.444A13.835,13.835,0,0,1,199.534,140.64Z" transform="translate(-109.662 -110.084)" fill="#de4632"/>
          <g id="Groupe_80" data-name="Groupe 80" transform="translate(5.685 34.485)">
            <g id="Groupe_79" data-name="Groupe 79">
              <path id="Tracé_201" data-name="Tracé 201" d="M83.008,203.111a14.67,14.67,0,0,1-7.177-2.166,12.84,12.84,0,0,1-4.813-5.5,19.718,19.718,0,0,1,.877-16.773,12.953,12.953,0,0,1,5.379-4.981,14.61,14.61,0,0,1,7.309-1.426,16.077,16.077,0,0,1,4.922.989,12.509,12.509,0,0,1,3.923,2.353,11.177,11.177,0,0,1,2.676,3.6,13.2,13.2,0,0,1,1.183,4.74l-7.2-.368a6.126,6.126,0,0,0-.564-2.02A5.184,5.184,0,0,0,88.362,180a5.261,5.261,0,0,0-1.716-1.038,7.284,7.284,0,0,0-2.2-.436,6.6,6.6,0,0,0-3.856.895,6.881,6.881,0,0,0-2.62,3.01,14.93,14.93,0,0,0-.492,10.022,6.339,6.339,0,0,0,5.991,4.42,7.262,7.262,0,0,0,2.234-.209,5.3,5.3,0,0,0,3.17-2.294,5.856,5.856,0,0,0,.787-1.951l7.2.368a11.661,11.661,0,0,1-1.351,3.9,12.39,12.39,0,0,1-2.813,3.414,12.567,12.567,0,0,1-4.193,2.343A14.643,14.643,0,0,1,83.008,203.111Z" transform="translate(-69.548 -165.76)" fill="#de4632"/>
              <path id="Tracé_202" data-name="Tracé 202" d="M122.572,168.582a3.621,3.621,0,0,1-2.62-.841,3.22,3.22,0,0,1-.292-4.785,3.843,3.843,0,0,1,5.138-.314,3.169,3.169,0,0,1,1.216,2.353,3.128,3.128,0,0,1-.923,2.443A3.669,3.669,0,0,1,122.572,168.582ZM120.6,193.964l-1.377-22.528,7.033-.43,1.377,22.528Z" transform="translate(-88.193 -161.804)" fill="#de4632"/>
              <path id="Tracé_203" data-name="Tracé 203" d="M144.92,202.785l-6.741-23.039,7.414.467,2.671,11.233q.546,2.26.9,4.608t.719,4.961l-1.29-.081q.665-2.547,1.305-4.823t1.444-4.471l4-10.813,7.334.462L153.06,203.3Z" transform="translate(-95.565 -168.605)" fill="#de4632"/>
              <path id="Tracé_204" data-name="Tracé 204" d="M185.427,178.552a3.624,3.624,0,0,1-2.564-1,3.22,3.22,0,0,1,0-4.795,3.843,3.843,0,0,1,5.147,0,3.173,3.173,0,0,1,1.07,2.423,3.125,3.125,0,0,1-1.07,2.382A3.67,3.67,0,0,1,185.427,178.552Zm-3.513,25.215V181.2h7.046v22.57Z" transform="translate(-112.098 -165.581)" fill="#de4632"/>
              <path id="Tracé_205" data-name="Tracé 205" d="M210.677,167.252l-2.541,29.972-7.02-.595,2.541-29.972Z" transform="translate(-119.423 -163.643)" fill="#de4632"/>
            </g>
          </g>
        </g>
      </g>
      <g id="Groupe_84" data-name="Groupe 84" transform="translate(15.707 16.027)">
        <g id="Groupe_83" data-name="Groupe 83">
          <path id="Tracé_206" data-name="Tracé 206" d="M25.851,218.765H176.3a13.652,13.652,0,0,0,13.652-13.651V26.417" transform="translate(-25.851 -26.417)" fill="none" stroke="#3b193d" stroke-miterlimit="10" stroke-width="1"/>
          <path id="Tracé_207" data-name="Tracé 207" d="M31.643,223.956H182.7a12.013,12.013,0,0,0,12.013-12.013V31.394" transform="translate(-28.047 -28.304)" fill="none" stroke="#3b193d" stroke-miterlimit="10" stroke-width="1"/>
          <path id="Tracé_208" data-name="Tracé 208" d="M37.435,229.147H189.106a10.375,10.375,0,0,0,10.375-10.375V36.372" transform="translate(-30.242 -30.191)" fill="none" stroke="#3b193d" stroke-miterlimit="10" stroke-width="1"/>
          <path id="Tracé_209" data-name="Tracé 209" d="M43.227,234.337H195.509a8.736,8.736,0,0,0,8.736-8.736V41.349" transform="translate(-32.438 -32.077)" fill="none" stroke="#3b193d" stroke-miterlimit="10" stroke-width="1"/>
          <path id="Tracé_210" data-name="Tracé 210" d="M49.018,239.527H201.911a7.1,7.1,0,0,0,7.1-7.1V46.326" transform="translate(-34.633 -33.964)" fill="none" stroke="#3b193d" stroke-miterlimit="10" stroke-width="1"/>
          <path id="Tracé_211" data-name="Tracé 211" d="M54.81,244.718h153.5a5.46,5.46,0,0,0,5.46-5.46V51.3" transform="translate(-36.829 -35.851)" fill="none" stroke="#3b193d" stroke-miterlimit="10" stroke-width="1"/>
        </g>
      </g>
      <path id="Tracé_212" data-name="Tracé 212" d="M193.488,32.085a11.35,11.35,0,0,1,9.28,11.624V225.532a11.849,11.849,0,0,1-11.849,11.849H44.925a24.228,24.228,0,0,1-16.076-6.1L5.562,210.63A14.726,14.726,0,0,1,.606,199.612V13.024A12.418,12.418,0,0,1,13.024.606H165.162a12.418,12.418,0,0,1,12.418,12.418V193.818a12.418,12.418,0,0,1-12.418,12.418H13.334S28,219.92,32.11,223.724s8.086,5.456,13.172,5.456H188.908a7.442,7.442,0,0,0,7.442-7.442V41.909c0-5.685-1.93-9.111-5.456-13.172S177.58,13.024,177.58,13.024" transform="translate(-0.574 -0.606)" fill="none" stroke="#000" stroke-miterlimit="10" stroke-width="1.212"/>
    </g>
  </g>
</svg>
