<svg xmlns="http://www.w3.org/2000/svg" width="307.482" height="283.444" viewBox="0 0 307.482 283.444">
  <g id="Groupe_20" data-name="Groupe 20" transform="translate(379.378 -4561.179)">
    <g id="Calque_1" transform="translate(-218.42 4561.188) rotate(17)">
      <g id="Groupe_17" data-name="Groupe 17" transform="translate(0.554 0.606)">
        <path id="Tracé_33" data-name="Tracé 33" d="M143.961,24.028H133.67V9.945A9.339,9.339,0,0,0,124.33.606H9.917A9.339,9.339,0,0,0,.578,9.945v140.7c-.208,1.727.957,3.949,2.155,6.183l20.372,18.393a20.7,20.7,0,0,0,6.534,3.019,4.838,4.838,0,0,0,1.985.428H143.657a8.956,8.956,0,0,0,8.956-8.956V32.679A8.651,8.651,0,0,0,143.961,24.028Z" transform="translate(-0.554 -0.606)" fill="#de4632"/>
        <path id="Tracé_34" data-name="Tracé 34" d="M154.637,32.629,144.531,20.992V156.861a9.253,9.253,0,0,1-9.253,9.253H21.1l14.12,13.152a14.009,14.009,0,0,0,9.905,4.1H152.907a5.832,5.832,0,0,0,5.832-5.832v-135A14.006,14.006,0,0,0,154.637,32.629Z" transform="translate(-11.509 -11.473)" fill="#755d76"/>
        <path id="Tracé_35" data-name="Tracé 35" d="M131.181,156.207H19.468a3.53,3.53,0,0,1-3.53-3.53V18.657a3.53,3.53,0,0,1,3.53-3.53H131.181a3.53,3.53,0,0,1,3.53,3.53V152.678A3.53,3.53,0,0,1,131.181,156.207Z" transform="translate(-8.754 -8.346)" fill="#3b193d"/>
        <g id="Groupe_14" data-name="Groupe 14" transform="translate(27.942 49.338)">
          <g id="Groupe_13" data-name="Groupe 13">
            <path id="Tracé_36" data-name="Tracé 36" d="M73.1,136.512a11.148,11.148,0,0,1-5.8-.685,10.144,10.144,0,0,1-4.452-3.615,15.777,15.777,0,0,1-1.717-13.095,10.174,10.174,0,0,1,3.379-4.655,11.128,11.128,0,0,1,5.4-2.16,12.174,12.174,0,0,1,3.816.069,9.718,9.718,0,0,1,3.293,1.232,8.753,8.753,0,0,1,2.547,2.345,10.234,10.234,0,0,1,1.591,3.4L76.265,120a4.871,4.871,0,0,0-.838-1.653,4.731,4.731,0,0,0-1.293-1.134,4.883,4.883,0,0,0-1.649-.6,6.25,6.25,0,0,0-1.92-.029,5.743,5.743,0,0,0-3.1,1.342,6.027,6.027,0,0,0-1.8,2.95,12.3,12.3,0,0,0,1.132,8.536,5.891,5.891,0,0,0,2.5,2.343,5.826,5.826,0,0,0,3.313.465,6.14,6.14,0,0,0,1.838-.524,5.081,5.081,0,0,0,1.444-1.011,4.569,4.569,0,0,0,.969-1.44,5.174,5.174,0,0,0,.4-1.807l4.889-.644a9.059,9.059,0,0,1-.558,3.277,9.782,9.782,0,0,1-1.726,2.964,9.622,9.622,0,0,1-2.84,2.274A11.323,11.323,0,0,1,73.1,136.512Z" transform="translate(-60.392 -109.421)" fill="#de4632"/>
            <path id="Tracé_37" data-name="Tracé 37" d="M117.376,124.661a8.984,8.984,0,0,1-4.534-1.535,7.791,7.791,0,0,1-2.749-3.462,11.511,11.511,0,0,1,.795-9.623,7.794,7.794,0,0,1,3.279-2.964,9.917,9.917,0,0,1,9.265.765,7.811,7.811,0,0,1,2.741,3.461,11.511,11.511,0,0,1-.794,9.623,7.808,7.808,0,0,1-3.271,2.965A8.965,8.965,0,0,1,117.376,124.661Zm.31-3.754a3.253,3.253,0,0,0,2.19-.532,4.271,4.271,0,0,0,1.448-1.834,9.293,9.293,0,0,0,.46-5.575,4.221,4.221,0,0,0-1.13-2.031,3.6,3.6,0,0,0-4.255-.352,4.249,4.249,0,0,0-1.439,1.819,9.29,9.29,0,0,0-.46,5.575,4.3,4.3,0,0,0,1.12,2.046A3.218,3.218,0,0,0,117.686,120.907Z" transform="translate(-86.508 -106.265)" fill="#de4632"/>
            <path id="Tracé_38" data-name="Tracé 38" d="M155.817,140.334a6.688,6.688,0,0,1-3.835-.263,7.2,7.2,0,0,1-3.2-2.5,11.809,11.809,0,0,1-1.989-4.707,11.637,11.637,0,0,1-.1-5.186,7.158,7.158,0,0,1,1.932-3.548,6.732,6.732,0,0,1,3.328-1.759,5.542,5.542,0,0,1,2.573-.029,5.044,5.044,0,0,1,1.856.891,6.109,6.109,0,0,1,1.21,1.226l.156-.034-1.874-8.739,4.682-1,4.987,23.252-4.6.987-.6-2.793-.234.05a5.861,5.861,0,0,1-.626,1.611,5.125,5.125,0,0,1-1.343,1.537A5.58,5.58,0,0,1,155.817,140.334Zm.645-4.072a3.281,3.281,0,0,0,1.888-1.09,4.12,4.12,0,0,0,.886-2.108,9.178,9.178,0,0,0-1.173-5.51,4.025,4.025,0,0,0-1.66-1.538,3.33,3.33,0,0,0-2.183-.209,3.268,3.268,0,0,0-1.924,1.115,4.155,4.155,0,0,0-.862,2.111,9.036,9.036,0,0,0,1.169,5.413,4.2,4.2,0,0,0,1.662,1.586A3.245,3.245,0,0,0,156.462,136.262Z" transform="translate(-106.261 -110.754)" fill="#de4632"/>
            <path id="Tracé_39" data-name="Tracé 39" d="M197.26,134.614a9.424,9.424,0,0,1-4.347-2.126,7.52,7.52,0,0,1-2.268-3.767,11.7,11.7,0,0,1,2.13-9.484,7.847,7.847,0,0,1,3.624-2.5,8.605,8.605,0,0,1,4.678-.14,9.393,9.393,0,0,1,3.069,1.265,7.446,7.446,0,0,1,2.23,2.229,7.745,7.745,0,0,1,1.132,3.143,11.161,11.161,0,0,1-.247,4.034l-.295,1.308-14.62-3.3.66-2.927,12.331,2.78-2.355.287a6.335,6.335,0,0,0,.119-2.452,3.451,3.451,0,0,0-.879-1.834,3.608,3.608,0,0,0-1.892-1.007,3.752,3.752,0,0,0-2.19.1,3.62,3.62,0,0,0-1.627,1.229,5.356,5.356,0,0,0-.929,2.089l-.467,2.071a5.856,5.856,0,0,0-.066,2.652,3.558,3.558,0,0,0,1.069,1.861,4.353,4.353,0,0,0,2.009.993,4.638,4.638,0,0,0,1.547.1,3.157,3.157,0,0,0,1.3-.435,3.072,3.072,0,0,0,.978-.966l4.056,1.749a6.163,6.163,0,0,1-2.03,2.184A7.173,7.173,0,0,1,201,134.835,10.4,10.4,0,0,1,197.26,134.614Z" transform="translate(-129.673 -111.635)" fill="#de4632"/>
            <g id="Groupe_12" data-name="Groupe 12" transform="translate(4.275 25.934)">
              <g id="Groupe_11" data-name="Groupe 11">
                <path id="Tracé_40" data-name="Tracé 40" d="M79.671,195.457a11.032,11.032,0,0,1-5.4-1.629,9.656,9.656,0,0,1-3.62-4.137,14.829,14.829,0,0,1,.659-12.614,9.741,9.741,0,0,1,4.045-3.746,10.988,10.988,0,0,1,5.5-1.072,12.09,12.09,0,0,1,3.7.744,9.408,9.408,0,0,1,2.95,1.77,8.406,8.406,0,0,1,2.013,2.71,9.926,9.926,0,0,1,.89,3.565L85,180.771a4.607,4.607,0,0,0-.424-1.519,3.9,3.9,0,0,0-.875-1.177,3.957,3.957,0,0,0-1.29-.78,5.477,5.477,0,0,0-1.655-.328,4.967,4.967,0,0,0-2.9.673,5.175,5.175,0,0,0-1.97,2.263,11.228,11.228,0,0,0-.37,7.537,4.767,4.767,0,0,0,4.505,3.324,5.462,5.462,0,0,0,1.68-.157,3.984,3.984,0,0,0,2.384-1.725,4.4,4.4,0,0,0,.592-1.467l5.412.276a8.769,8.769,0,0,1-1.016,2.935,9.318,9.318,0,0,1-2.115,2.568,9.451,9.451,0,0,1-3.153,1.762A11.013,11.013,0,0,1,79.671,195.457Z" transform="translate(-69.548 -167.367)" fill="#de4632"/>
                <path id="Tracé_41" data-name="Tracé 41" d="M121.62,166.9a2.723,2.723,0,0,1-1.97-.633,2.422,2.422,0,0,1-.22-3.6,2.89,2.89,0,0,1,3.864-.236,2.384,2.384,0,0,1,.914,1.769,2.352,2.352,0,0,1-.694,1.837A2.759,2.759,0,0,1,121.62,166.9Zm-1.48,19.088L119.1,169.048l5.289-.323,1.035,16.942Z" transform="translate(-95.765 -161.804)" fill="#de4632"/>
                <path id="Tracé_42" data-name="Tracé 42" d="M143.249,197.072l-5.07-17.326,5.576.351,2.008,8.448q.41,1.7.679,3.466t.541,3.73l-.97-.061q.5-1.916.982-3.627t1.086-3.362l3.007-8.132,5.516.347-7.234,16.552Z" transform="translate(-106.131 -171.368)" fill="#de4632"/>
                <path id="Tracé_43" data-name="Tracé 43" d="M184.526,176.87a2.726,2.726,0,0,1-1.928-.751,2.421,2.421,0,0,1,0-3.606,2.89,2.89,0,0,1,3.871,0,2.386,2.386,0,0,1,.805,1.822,2.35,2.35,0,0,1-.805,1.791A2.76,2.76,0,0,1,184.526,176.87Zm-2.642,18.963V178.859h5.3v16.974Z" transform="translate(-129.38 -167.116)" fill="#de4632"/>
                <path id="Tracé_44" data-name="Tracé 44" d="M208.306,167.1l-1.911,22.54-5.279-.447,1.911-22.54Z" transform="translate(-139.68 -164.391)" fill="#de4632"/>
              </g>
            </g>
          </g>
        </g>
        <g id="Groupe_16" data-name="Groupe 16" transform="translate(11.812 12.053)">
          <g id="Groupe_15" data-name="Groupe 15">
            <path id="Tracé_45" data-name="Tracé 45" d="M25.851,171.07H138.994A10.266,10.266,0,0,0,149.261,160.8V26.417" transform="translate(-25.851 -26.417)" fill="none" stroke="#3b193d" stroke-miterlimit="10" stroke-width="1"/>
            <path id="Tracé_46" data-name="Tracé 46" d="M31.643,176.208h113.6a9.034,9.034,0,0,0,9.034-9.034V31.394" transform="translate(-28.938 -29.07)" fill="none" stroke="#3b193d" stroke-miterlimit="10" stroke-width="1"/>
            <path id="Tracé_47" data-name="Tracé 47" d="M37.435,181.346H151.5a7.8,7.8,0,0,0,7.8-7.8V36.372" transform="translate(-32.026 -31.723)" fill="none" stroke="#3b193d" stroke-miterlimit="10" stroke-width="1"/>
            <path id="Tracé_48" data-name="Tracé 48" d="M43.227,186.483H157.749a6.57,6.57,0,0,0,6.57-6.57V41.349" transform="translate(-35.113 -34.376)" fill="none" stroke="#3b193d" stroke-miterlimit="10" stroke-width="1"/>
            <path id="Tracé_49" data-name="Tracé 49" d="M49.018,191.621H164a5.338,5.338,0,0,0,5.338-5.338V46.326" transform="translate(-38.2 -37.029)" fill="none" stroke="#3b193d" stroke-miterlimit="10" stroke-width="1"/>
            <path id="Tracé_50" data-name="Tracé 50" d="M54.81,196.758H170.251a4.106,4.106,0,0,0,4.106-4.106V51.3" transform="translate(-41.287 -39.682)" fill="none" stroke="#3b193d" stroke-miterlimit="10" stroke-width="1"/>
          </g>
        </g>
        <path id="Tracé_51" data-name="Tracé 51" d="M145.661,24.279a8.535,8.535,0,0,1,6.979,8.741V169.759a8.911,8.911,0,0,1-8.911,8.911H33.935a18.22,18.22,0,0,1-12.089-4.588L4.333,158.552a11.075,11.075,0,0,1-3.727-8.286V9.945A9.339,9.339,0,0,1,9.945.606H124.359A9.339,9.339,0,0,1,133.7,9.945V145.909a9.339,9.339,0,0,1-9.339,9.339H10.178S21.2,165.539,24.3,168.4a13.648,13.648,0,0,0,9.905,4.1H142.216a5.6,5.6,0,0,0,5.6-5.6V31.668c0-4.275-1.451-6.852-4.1-9.905S133.7,9.945,133.7,9.945" transform="translate(-0.582 -0.606)" fill="none" stroke="#000" stroke-miterlimit="10" stroke-width="1.212"/>
      </g>
    </g>
    <g id="EMCQ-Code_Pénal" data-name="EMCQ-Code Pénal" transform="translate(-379.352 4641.649)">
      <path id="Tracé_52" data-name="Tracé 52" d="M143.19,16.907l-9.883,3.382L128.679,6.764a9.48,9.48,0,0,0-12.038-5.9L6.764,38.465A9.478,9.478,0,0,0,.865,50.5L47.1,185.624c.368,1.727,2.216,3.478,4.1,5.23l25.608,10.969a21.026,21.026,0,0,0,7.267.753,4.9,4.9,0,0,0,2.047-.242l107.59-36.817a9.091,9.091,0,0,0,5.658-11.544l-45.034-131.6A8.781,8.781,0,0,0,143.19,16.907Z" fill="#3b193d"/>
      <path id="Tracé_53" data-name="Tracé 53" d="M142.177,14.822,128.648,6.968,173.3,137.449a9.391,9.391,0,0,1-5.845,11.927L57.808,186.9l17.883,7.99a14.216,14.216,0,0,0,10.861.685l103.5-35.419a5.92,5.92,0,0,0,3.684-7.517L149.373,22.987a14.22,14.22,0,0,0-7.2-8.165Z" fill="#755d76"/>
      <rect id="Rectangle_6" data-name="Rectangle 6" width="120.557" height="143.199" rx="3.583" transform="translate(6.899 45.693) rotate(-18.891)" fill="#de4632"/>
      <g id="Groupe_18" data-name="Groupe 18">
        <path id="Tracé_54" data-name="Tracé 54" d="M61.924,101.583a11.313,11.313,0,0,1-5.793,1.247,10.3,10.3,0,0,1-5.464-2.008A16.008,16.008,0,0,1,44.715,88.81a10.312,10.312,0,0,1,1.715-5.58,11.283,11.283,0,0,1,4.47-3.849,12.334,12.334,0,0,1,3.688-1.188,9.857,9.857,0,0,1,3.567.1,8.884,8.884,0,0,1,3.217,1.415,10.407,10.407,0,0,1,2.647,2.746L59.535,84.68a4.963,4.963,0,0,0-1.347-1.312,4.814,4.814,0,0,0-1.614-.664,4.967,4.967,0,0,0-1.782-.038,6.341,6.341,0,0,0-1.853.6A5.832,5.832,0,0,0,50.4,85.574,6.112,6.112,0,0,0,49.648,89a12.48,12.48,0,0,0,3.893,7.825,5.981,5.981,0,0,0,3.169,1.43,5.9,5.9,0,0,0,3.334-.643A6.258,6.258,0,0,0,61.638,96.5a5.174,5.174,0,0,0,1.055-1.446,4.632,4.632,0,0,0,.457-1.7,5.223,5.223,0,0,0-.212-1.866l4.484-2.226a9.189,9.189,0,0,1,.541,3.331,9.921,9.921,0,0,1-.684,3.414A9.789,9.789,0,0,1,65.3,99.13a11.511,11.511,0,0,1-3.376,2.453Z" fill="#3b193d"/>
        <path id="Tracé_55" data-name="Tracé 55" d="M76.509,87.263a9.117,9.117,0,0,1-4.858.015,7.912,7.912,0,0,1-3.778-2.421,11.685,11.685,0,0,1-2.4-9.5,7.908,7.908,0,0,1,2.175-3.924A10.066,10.066,0,0,1,76.8,69.119a7.933,7.933,0,0,1,3.77,2.424,11.688,11.688,0,0,1,2.4,9.5,7.928,7.928,0,0,1-2.17,3.925,9.106,9.106,0,0,1-4.291,2.3Zm-.936-3.707A3.3,3.3,0,0,0,77.5,82.325a4.334,4.334,0,0,0,.789-2.237,9.432,9.432,0,0,0-1.39-5.5A4.291,4.291,0,0,0,75.147,73a3.651,3.651,0,0,0-4.2,1.061,4.318,4.318,0,0,0-.785,2.22,9.421,9.421,0,0,0,1.391,5.5,4.353,4.353,0,0,0,1.748,1.6,3.267,3.267,0,0,0,2.272.175Z" fill="#3b193d"/>
        <path id="Tracé_56" data-name="Tracé 56" d="M98.132,91.861a6.789,6.789,0,0,1-3.769,1.008,7.308,7.308,0,0,1-3.9-1.344,12,12,0,0,1-3.457-3.867,11.819,11.819,0,0,1-1.8-4.947,7.264,7.264,0,0,1,.69-4.043,6.829,6.829,0,0,1,2.618-2.782,5.627,5.627,0,0,1,2.461-.874,5.134,5.134,0,0,1,2.076.246,6.25,6.25,0,0,1,1.564.78l.139-.083-4.672-7.777,4.166-2.5L106.679,86.37l-4.1,2.461-1.493-2.486-.209.125a5.938,5.938,0,0,1-.071,1.753,5.214,5.214,0,0,1-.785,1.918,5.65,5.65,0,0,1-1.889,1.72Zm-.719-4.122a3.331,3.331,0,0,0,1.455-1.668,4.182,4.182,0,0,0,.158-2.316,9.312,9.312,0,0,0-2.938-4.906,4.077,4.077,0,0,0-2.1-.931,3.376,3.376,0,0,0-2.166.517,3.317,3.317,0,0,0-1.481,1.7,4.217,4.217,0,0,0-.133,2.31,9.162,9.162,0,0,0,2.9,4.815,4.263,4.263,0,0,0,2.117.977,3.3,3.3,0,0,0,2.188-.5Z" fill="#3b193d"/>
        <path id="Tracé_57" data-name="Tracé 57" d="M113.279,79.6a9.574,9.574,0,0,1-4.874-.612,7.627,7.627,0,0,1-3.415-2.873,11.873,11.873,0,0,1-1.071-9.807,7.962,7.962,0,0,1,2.657-3.6,8.731,8.731,0,0,1,4.447-1.671,9.533,9.533,0,0,1,3.362.2,7.571,7.571,0,0,1,2.874,1.408,7.855,7.855,0,0,1,2.12,2.646,11.348,11.348,0,0,1,1.089,3.956l.147,1.353-15.124,1.639-.328-3.028,12.756-1.382-2.168,1.049a6.412,6.412,0,0,0-.691-2.393,3.5,3.5,0,0,0-1.447-1.473,3.664,3.664,0,0,0-2.147-.346,3.813,3.813,0,0,0-2.072.811,3.677,3.677,0,0,0-1.158,1.715,5.434,5.434,0,0,0-.206,2.311l.232,2.142a5.945,5.945,0,0,0,.808,2.569,3.618,3.618,0,0,0,1.639,1.436,4.424,4.424,0,0,0,2.256.293,4.716,4.716,0,0,0,1.52-.409,3.216,3.216,0,0,0,1.106-.845,3.127,3.127,0,0,0,.622-1.249l4.47.346a6.267,6.267,0,0,1-1.232,2.766,7.282,7.282,0,0,1-2.51,2.023,10.557,10.557,0,0,1-3.662,1.02Z" fill="#3b193d"/>
        <path id="Tracé_58" data-name="Tracé 58" d="M55.537,131.511,43.674,108.363l9.026-4.625a10.441,10.441,0,0,1,5-1.3,7.724,7.724,0,0,1,4.237,1.32,9.289,9.289,0,0,1,3.045,3.549,9.1,9.1,0,0,1,1.087,4.553,7.728,7.728,0,0,1-1.457,4.2,10.834,10.834,0,0,1-4.039,3.315l-5.81,2.978L52.8,118.531l5.049-2.587A5.678,5.678,0,0,0,60,114.209a3.67,3.67,0,0,0,.686-2.107,4.96,4.96,0,0,0-.593-2.286,4.9,4.9,0,0,0-1.505-1.808,3.576,3.576,0,0,0-2.107-.646,5.861,5.861,0,0,0-2.658.744l-3.4,1.744,9.857,19.232Z" fill="#3b193d"/>
        <path id="Tracé_59" data-name="Tracé 59" d="M80.252,118.64a10.314,10.314,0,0,1-5.293,0,8.22,8.22,0,0,1-4.039-2.608,12.8,12.8,0,0,1-2.472-10.34,8.576,8.576,0,0,1,2.354-4.2A9.421,9.421,0,0,1,75.329,99.1a10.265,10.265,0,0,1,3.623-.235,8.148,8.148,0,0,1,3.263,1.116,8.464,8.464,0,0,1,2.624,2.542,12.209,12.209,0,0,1,1.7,4.082l.34,1.426-15.946,3.8-.76-3.192,13.449-3.2-2.175,1.416a6.94,6.94,0,0,0-1.063-2.466,3.771,3.771,0,0,0-1.746-1.378,3.936,3.936,0,0,0-2.343-.079,4.1,4.1,0,0,0-2.1,1.147,3.958,3.958,0,0,0-1.007,1.989,5.861,5.861,0,0,0,.093,2.5l.538,2.259a6.407,6.407,0,0,0,1.212,2.636,3.881,3.881,0,0,0,1.945,1.313,4.772,4.772,0,0,0,2.452.009A5.078,5.078,0,0,0,81,114.142a3.454,3.454,0,0,0,1.068-1.053,3.364,3.364,0,0,0,.5-1.42l4.825-.234a6.748,6.748,0,0,1-.943,3.123,7.846,7.846,0,0,1-2.409,2.5,11.413,11.413,0,0,1-3.786,1.582ZM72.876,97.391l1.1-5.843L78.7,90.423l-2.257,6.119Z" fill="#3b193d"/>
        <path id="Tracé_60" data-name="Tracé 60" d="M95.946,105.5l4.578,10.325-4.788,2.122-7.909-17.841,4.516-2,2.053,4.417-.287.128a7.974,7.974,0,0,1,.6-4.4A6,6,0,0,1,97.861,95.4a6.89,6.89,0,0,1,3.589-.627,5.943,5.943,0,0,1,3.164,1.366,8.674,8.674,0,0,1,2.354,3.263L112,110.743l-4.788,2.122-4.662-10.516a4.081,4.081,0,0,0-2.007-2.223,3.323,3.323,0,0,0-2.787.109,3.978,3.978,0,0,0-1.6,1.235,3.324,3.324,0,0,0-.666,1.813,4.7,4.7,0,0,0,.456,2.222Z" fill="#3b193d"/>
        <path id="Tracé_61" data-name="Tracé 61" d="M118.924,105.925a8.11,8.11,0,0,1-3.39.021,5.233,5.233,0,0,1-2.664-1.453,5.81,5.81,0,0,1-1.475-3,5.612,5.612,0,0,1,.047-2.789,4.779,4.779,0,0,1,1.257-2.055,8.292,8.292,0,0,1,2.107-1.461,17.216,17.216,0,0,1,2.614-1.031q1.624-.509,2.613-.861a3.744,3.744,0,0,0,1.394-.764,1.072,1.072,0,0,0,.281-1.028l-.017-.086a2.7,2.7,0,0,0-.624-1.316,2.23,2.23,0,0,0-1.194-.657,4.114,4.114,0,0,0-1.694.033,4.672,4.672,0,0,0-1.667.651,3.382,3.382,0,0,0-1.036,1.039,3.305,3.305,0,0,0-.458,1.251l-4.861.187a6.813,6.813,0,0,1,1.065-3.174,7.677,7.677,0,0,1,2.486-2.358,11.482,11.482,0,0,1,3.716-1.4,12.4,12.4,0,0,1,3.068-.241,8.539,8.539,0,0,1,2.84.607,5.716,5.716,0,0,1,2.239,1.638,6.238,6.238,0,0,1,1.279,2.83l2.62,12.881-4.858.988-.539-2.651-.171.035a5.458,5.458,0,0,1-.914,1.815,5.851,5.851,0,0,1-1.638,1.447A7.476,7.476,0,0,1,118.924,105.925Zm.72-3.9a4.631,4.631,0,0,0,2.032-.912,3.7,3.7,0,0,0,1.164-1.591,3.447,3.447,0,0,0,.141-1.934l-.421-2.07a2.194,2.194,0,0,1-.622.447,9.965,9.965,0,0,1-.977.448q-.544.217-1.074.414t-.947.335a6.757,6.757,0,0,0-1.569.783,2.8,2.8,0,0,0-.947,1.038,2.32,2.32,0,0,0,.5,2.536,2.346,2.346,0,0,0,1.181.552,4.107,4.107,0,0,0,1.539-.046Z" fill="#3b193d"/>
        <path id="Tracé_62" data-name="Tracé 62" d="M134.665,78.552l5.327,25.459-5.126,1.072-5.327-25.458Z" fill="#3b193d"/>
      </g>
      <g id="Groupe_19" data-name="Groupe 19">
        <path id="Tracé_63" data-name="Tracé 63" d="M60.615,188.151l108.657-37.182a10.42,10.42,0,0,0,6.485-13.233L131.594,8.678" fill="none" stroke="#000" stroke-miterlimit="10" stroke-width="0.703"/>
        <path id="Tracé_64" data-name="Tracé 64" d="M64.029,189.649l109.1-37.334a9.17,9.17,0,0,0,5.707-11.645L134.213,10.275" fill="none" stroke="#000" stroke-miterlimit="10" stroke-width="0.703"/>
        <path id="Tracé_65" data-name="Tracé 65" d="M67.443,191.146l109.539-37.485a7.919,7.919,0,0,0,4.929-10.057L136.832,11.872" fill="none" stroke="#000" stroke-miterlimit="10" stroke-width="0.703"/>
        <path id="Tracé_66" data-name="Tracé 66" d="M70.856,192.643l109.981-37.636a6.668,6.668,0,0,0,4.15-8.468L139.451,13.469" fill="none" stroke="#000" stroke-miterlimit="10" stroke-width="0.703"/>
        <path id="Tracé_67" data-name="Tracé 67" d="M74.27,194.14l110.422-37.786a5.419,5.419,0,0,0,3.372-6.881L142.07,15.066" fill="none" stroke="#000" stroke-miterlimit="10" stroke-width="0.703"/>
        <path id="Tracé_68" data-name="Tracé 68" d="M77.684,195.637,188.547,157.7a4.167,4.167,0,0,0,2.593-5.292L144.689,16.664" fill="none" stroke="#000" stroke-miterlimit="10" stroke-width="0.703"/>
      </g>
      <path id="Tracé_69" data-name="Tracé 69" d="M144.878,16.6a8.663,8.663,0,0,1,9.575,6.1l44.936,131.316A9.044,9.044,0,0,1,193.76,165.5L88.321,201.584A18.492,18.492,0,0,1,75.2,201.15l-21.922-9.158a11.238,11.238,0,0,1-6.3-6.733L.865,50.5a9.478,9.478,0,0,1,5.9-12.037L116.641.865a9.48,9.48,0,0,1,12.038,5.9L173.36,137.336a9.479,9.479,0,0,1-5.9,12.038L57.808,186.9s13.972,6.26,17.883,7.99a13.851,13.851,0,0,0,10.861.685l103.729-35.5a5.68,5.68,0,0,0,3.535-7.214L149.373,22.987c-1.4-4.106-3.646-6.1-7.2-8.165s-13.5-8.058-13.5-8.058" fill="none" stroke="#000" stroke-miterlimit="10" stroke-width="0.703"/>
    </g>
  </g>
</svg>
