<svg xmlns="http://www.w3.org/2000/svg" width="317.92" height="309.283" viewBox="0 0 317.92 309.283">
  <g id="EMCQ-Crayon_STylo-10" data-name="EMCQ-Crayon STylo-10" transform="translate(9.608 0)">
    <g id="Groupe_150" data-name="Groupe 150">
      <path id="Tracé_254" data-name="Tracé 254" d="M233.565,152.583h0A22.633,22.633,0,0,1,256.2,175.219V316.483H210.933V175.216a22.632,22.632,0,0,1,22.633-22.633Z" transform="translate(564.561 235.217) rotate(135)" fill="#de4632"/>
      <path id="Tracé_255" data-name="Tracé 255" d="M46.341,74.074,73.107,47.308,191.622,160.582l-32.007,32.007Z" fill="#de4632"/>
      <path id="Tracé_256" data-name="Tracé 256" d="M80.473,54.349,191.622,160.582l-32.007,32.007L53.382,81.441Z" fill="#3b193d"/>
      <rect id="Rectangle_65" data-name="Rectangle 65" width="45.265" height="29.496" transform="translate(289.594 258.557) rotate(135)" fill="#e87c6e"/>
      <rect id="Rectangle_66" data-name="Rectangle 66" width="45.265" height="9.573" transform="translate(198.39 167.351) rotate(135)" fill="#e87c6e"/>
      <path id="Tracé_257" data-name="Tracé 257" d="M48.068,72.347s-17.775-2.413-30.786-19.5S7.618,8.585.563,1.531C7.618,8.585,34.793,5.238,51.88,18.249s19.5,30.787,19.5,30.787" fill="#de4632"/>
      <path id="Tracé_258" data-name="Tracé 258" d="M46.341,74.074,73.107,47.308,191.622,160.582l-32.007,32.007Z" fill="none" stroke="#000" stroke-miterlimit="10" stroke-width="1.127"/>
      <path id="Tracé_259" data-name="Tracé 259" d="M53.382,81.441,80.473,54.349l-7.366-7.041L46.341,74.074Z" fill="#e87c6e"/>
      <path id="Tracé_260" data-name="Tracé 260" d="M233.565,152.583h0A22.633,22.633,0,0,1,256.2,175.219V316.483H210.933V175.216a22.632,22.632,0,0,1,22.633-22.633Z" transform="translate(564.561 235.217) rotate(135)" fill="none" stroke="#000" stroke-miterlimit="10" stroke-width="1.127"/>
      <rect id="Rectangle_67" data-name="Rectangle 67" width="45.265" height="9.573" transform="translate(198.39 167.351) rotate(135)" fill="none" stroke="#000" stroke-miterlimit="10" stroke-width="1.127"/>
      <rect id="Rectangle_68" data-name="Rectangle 68" width="45.265" height="29.496" transform="translate(289.594 258.557) rotate(135)" fill="none" stroke="#000" stroke-miterlimit="10" stroke-width="1.127"/>
      <path id="Tracé_261" data-name="Tracé 261" d="M53.382,81.441,80.473,54.349l-7.366-7.041L46.341,74.074Z" fill="none" stroke="#000" stroke-miterlimit="10" stroke-width="1.127"/>
      <path id="Tracé_262" data-name="Tracé 262" d="M48.068,72.347s-17.775-2.413-30.786-19.5S7.618,8.585.563,1.531C7.618,8.585,34.793,5.238,51.88,18.249s19.5,30.787,19.5,30.787" fill="none" stroke="#000" stroke-miterlimit="10" stroke-width="1.127"/>
      <line id="Ligne_10" data-name="Ligne 10" x2="41.856" y2="41.855" transform="translate(0.563 1.531)" fill="none" stroke="#000" stroke-miterlimit="10" stroke-width="1.127"/>
    </g>
    <g id="Groupe_151" data-name="Groupe 151">
      <path id="Tracé_263" data-name="Tracé 263" d="M122.978,12.949h0A22.632,22.632,0,0,1,145.61,35.581V340.44H100.346V35.581a22.632,22.632,0,0,1,22.632-22.632Z" transform="translate(84.995 388.595) rotate(-135)" fill="#e87c6e"/>
      <path id="Tracé_264" data-name="Tracé 264" d="M26.76,245.241h0a22.632,22.632,0,0,1,22.632,22.632v32.712H4.127V267.873A22.632,22.632,0,0,1,26.76,245.241Z" transform="translate(-147.297 484.813) rotate(-135)" fill="#3b193d"/>
      <rect id="Rectangle_69" data-name="Rectangle 69" width="45.265" height="29.496" transform="translate(62.331 269.349) rotate(-135)" fill="#de4632"/>
      <rect id="Rectangle_70" data-name="Rectangle 70" width="45.265" height="9.573" transform="translate(247.997 83.68) rotate(-135)" fill="#de4632"/>
      <path id="Tracé_265" data-name="Tracé 265" d="M122.978,12.949h0A22.632,22.632,0,0,1,145.61,35.581V340.44H100.346V35.581a22.632,22.632,0,0,1,22.632-22.632Z" transform="translate(84.995 388.595) rotate(-135)" fill="none" stroke="#000" stroke-miterlimit="10" stroke-width="1.127"/>
      <rect id="Rectangle_71" data-name="Rectangle 71" width="45.265" height="9.573" transform="translate(247.997 83.68) rotate(-135)" fill="none" stroke="#000" stroke-miterlimit="10" stroke-width="1.127"/>
      <rect id="Rectangle_72" data-name="Rectangle 72" width="45.265" height="29.496" transform="translate(62.331 269.349) rotate(-135)" fill="none" stroke="#000" stroke-miterlimit="10" stroke-width="1.127"/>
      <path id="Tracé_266" data-name="Tracé 266" d="M254.767,76.912,298.141,1.531,222.76,44.9Z" fill="#e87c6e"/>
      <path id="Tracé_267" data-name="Tracé 267" d="M280.218,32.681l17.923-31.15L266.926,19.492Z" fill="#3b193d"/>
      <path id="Tracé_268" data-name="Tracé 268" d="M254.767,76.912,298.141,1.531,222.76,44.9Z" fill="none" stroke="#000" stroke-miterlimit="10" stroke-width="1.127"/>
      <line id="Ligne_11" data-name="Ligne 11" y1="164.811" x2="164.811" transform="translate(78.134 78.628)" fill="none" stroke="#000" stroke-miterlimit="10" stroke-width="1.127"/>
      <line id="Ligne_12" data-name="Ligne 12" y1="164.812" x2="164.811" transform="translate(70.609 71.103)" fill="none" stroke="#000" stroke-miterlimit="10" stroke-width="1.127"/>
      <line id="Ligne_13" data-name="Ligne 13" y1="164.811" x2="164.811" transform="translate(63.085 63.579)" fill="none" stroke="#000" stroke-miterlimit="10" stroke-width="1.127"/>
      <line id="Ligne_14" data-name="Ligne 14" y1="164.812" x2="164.811" transform="translate(55.56 56.054)" fill="none" stroke="#000" stroke-miterlimit="10" stroke-width="1.127"/>
    </g>
  </g>
</svg>
