<svg xmlns="http://www.w3.org/2000/svg" width="83.834" height="83.834" viewBox="0 0 83.834 83.834">
  <path id="icons8-facebook_1_" data-name="icons8-facebook (1)" d="M77.519,3h-65.2A9.312,9.312,0,0,0,3,12.315v65.2a9.312,9.312,0,0,0,9.315,9.315H47.809V54.413H36.9V41.722H47.809V32.384c0-10.824,6.618-16.725,16.278-16.725a93.233,93.233,0,0,1,9.743.489V27.466H67.179c-5.263,0-6.288,2.487-6.288,6.157V41.7H73.467L71.832,54.395H60.817V86.834h16.7a9.312,9.312,0,0,0,9.315-9.315v-65.2A9.312,9.312,0,0,0,77.519,3Z" transform="translate(-3 -3)" fill="#3b193d"/>
</svg>
