<svg xmlns="http://www.w3.org/2000/svg" width="83.834" height="83.834" viewBox="0 0 83.834 83.834">
  <path id="icons8-instagram" d="M26.287,3A23.29,23.29,0,0,0,3,26.287V63.547A23.29,23.29,0,0,0,26.287,86.834H63.547A23.29,23.29,0,0,0,86.834,63.547V26.287A23.29,23.29,0,0,0,63.547,3Zm46.574,9.315A4.657,4.657,0,1,1,68.2,16.972,4.659,4.659,0,0,1,72.862,12.315ZM44.917,21.63A23.287,23.287,0,1,1,21.63,44.917,23.29,23.29,0,0,1,44.917,21.63Zm0,9.315A13.972,13.972,0,1,0,58.889,44.917,13.972,13.972,0,0,0,44.917,30.945Z" transform="translate(-3 -3)" fill="#3b193d"/>
</svg>
