<svg xmlns="http://www.w3.org/2000/svg" viewBox="0 0 83.834 83.834">
  <path id="icons8-linkedin" d="M77.519,3h-65.2A9.312,9.312,0,0,0,3,12.315v65.2a9.312,9.312,0,0,0,9.315,9.315h65.2a9.312,9.312,0,0,0,9.315-9.315v-65.2A9.312,9.312,0,0,0,77.519,3ZM30.945,68.2H19.194V35.6H30.945ZM24.862,29.627c-3.591,0-5.989-2.394-5.989-5.589s2.394-5.589,6.385-5.589c3.591,0,5.989,2.394,5.989,5.589S28.853,29.627,24.862,29.627Zm48,38.578H61.488V50.385c0-4.928-3.032-6.064-4.168-6.064s-4.928.759-4.928,6.064V68.2H40.641V35.6H52.392v4.55c1.514-2.655,4.546-4.55,10.232-4.55s10.237,4.55,10.237,14.783Z" transform="translate(-3 -3)" fill="currentColor"/>
</svg>
