<svg id="EMCQ_Logo-01" data-name="EMCQ Logo-01" xmlns="http://www.w3.org/2000/svg" width="179.272" height="183.263" viewBox="0 0 179.272 183.263">
  <path id="Tracé_7" data-name="Tracé 7" d="M179.026,33.891a15.909,15.909,0,0,0-6.788-15.976l.008-.021L157.2,5.268a16.016,16.016,0,0,0-2.127-1.785l-.177-.148-.012.018A15.99,15.99,0,0,0,145.975.542L77.375,0c-3.559-.028-7.16.116-10.706.426A113.024,113.024,0,0,0,52.508,2.584l-39.883,8.7A15.988,15.988,0,0,0,.021,27.763L3.4,94.7c.156,3.088.158,6.219.007,9.307L2.354,125.494a43.816,43.816,0,0,0,4.371,21.887,37.355,37.355,0,0,0,9.012,11.5l-.048-.018,16.273,13.576A36.954,36.954,0,0,0,35.035,175l.2.168h.028a38.608,38.608,0,0,0,3.76,2.468A44.269,44.269,0,0,0,59.4,183.216a52.049,52.049,0,0,0,6.573-.147,45.4,45.4,0,0,0,10.575-2.193,46.886,46.886,0,0,0,13.947-7.47,50.522,50.522,0,0,0,6.789-6.4c.183.208.369.413.555.616a37.409,37.409,0,0,0,18.672,11.106A42.619,42.619,0,0,0,130.65,179.8a49.969,49.969,0,0,0,7.033-1.139q1.529-.36,3.023-.8a14.863,14.863,0,0,0,8.784,1.972h0a14.781,14.781,0,0,0,2.1-.336L167,175.871a14.851,14.851,0,0,0,6.925-25.139l-1.783-1.722a54.861,54.861,0,0,0,3.583-14.447,59.442,59.442,0,0,0-1.287-20.12,51.549,51.549,0,0,0-1.871-6.217,48.742,48.742,0,0,1-2.028-25.3Z" transform="translate(0.002 0.003)" fill="#3b193d"/>
  <path id="Tracé_8" data-name="Tracé 8" d="M145.381,135.267A46.014,46.014,0,0,0,150.2,119.1a51.3,51.3,0,0,0-1.119-17.349,43.352,43.352,0,0,0-1.57-5.222,56.883,56.883,0,0,1-2.426-29.573l8.484-49.032a7.835,7.835,0,0,0-7.659-9.17l-68.6-.538A104.359,104.359,0,0,0,54.257,10.6L14.373,19.3a7.834,7.834,0,0,0-6.155,8.05L11.6,94.288q.255,5.058.008,10.122L10.56,125.821a35.741,35.741,0,0,0,3.484,17.836,29.065,29.065,0,0,0,11.68,12.281,36.134,36.134,0,0,0,16.645,4.507,43.6,43.6,0,0,0,5.529-.122,37.059,37.059,0,0,0,8.659-1.791,38.683,38.683,0,0,0,11.514-6.158,41.059,41.059,0,0,0,8.335-8.726q.275-.391.537-.787a3.641,3.641,0,0,1,6.118.064,30.044,30.044,0,0,0,3.451,4.557,29.331,29.331,0,0,0,14.637,8.712,34.494,34.494,0,0,0,11.42.853,41.752,41.752,0,0,0,5.874-.954,44.317,44.317,0,0,0,6.5-2.051l1.346,1.262a6.642,6.642,0,0,0,6.063,1.622l15.415-3.618a6.643,6.643,0,0,0,3.1-11.246l-6-5.8Z" transform="translate(0.002 0.003)" fill="#755d76"/>
  <g id="Groupe_2" data-name="Groupe 2" transform="translate(0.002 0.003)">
    <path id="Tracé_9" data-name="Tracé 9" d="M60.46,68.23,33.1,74.195l-.669-13.488,25.186-5.492L57.04,43.476,31.854,48.968,31.2,36.149l27.4-5.974-.635-11.98L16.43,27.252l3.13,62.016L61.054,80.22Z" fill="#e8e4e8"/>
    <path id="Tracé_10" data-name="Tracé 10" d="M84.975,46.339q.464-3.246.99-7.027t1.1-7.623c.115-.777.229-1.532.343-2.276q.195,2.6.428,5.3.452,5.265.951,9.747t.9,7.2l4.387,26.41,12.129.043L119.37,51.765q.952-2.052,2.362-5.131t3-6.773q1.6-3.694,3.214-7.6c.479-1.155.939-2.288,1.391-3.411-.174.947-.354,1.914-.547,2.921Q128.056,35.6,127.3,39.4t-1.381,7.047q-.63,3.244-1.007,5.341l-4.451,26.379,14.6.052,10.373-61.222-22.654-.081-11.719,23.8q-1.037,2.177-2.488,5.747t-2.987,7.677c-.885,2.366-1.72,4.652-2.523,6.884-.047-2.207-.114-4.474-.211-6.832q-.171-4.131-.4-7.709t-.513-5.8l-3.78-23.86-22.613-.08L65.169,77.967l14.554.052,4.41-26.379Q84.511,49.585,84.975,46.339Z" fill="#e8e4e8"/>
    <path id="Tracé_11" data-name="Tracé 11" d="M71.668,96.269a21.916,21.916,0,0,0-7.591-4.643,32.128,32.128,0,0,0-9.966-1.88,31.441,31.441,0,0,0-25.14,10.334,37.976,37.976,0,0,0-7.281,11.806,43.489,43.489,0,0,0-2.935,14.263,27.573,27.573,0,0,0,2.6,13.785,20.887,20.887,0,0,0,8.43,8.874,27.913,27.913,0,0,0,12.906,3.436,30.94,30.94,0,0,0,11.231-1.485A30.4,30.4,0,0,0,63,145.916a32.744,32.744,0,0,0,6.676-6.976,28.865,28.865,0,0,0,3.978-7.927l-14.666-.585a13.173,13.173,0,0,1-2.3,3.962,14.294,14.294,0,0,1-3.409,2.929,14.608,14.608,0,0,1-4.267,1.764,17.728,17.728,0,0,1-4.915.462,12.4,12.4,0,0,1-5.963-1.616,9.037,9.037,0,0,1-3.7-4.3,15.933,15.933,0,0,1-1.059-6.975,33.374,33.374,0,0,1,1.54-8.7,28.4,28.4,0,0,1,3.9-7.93,19.052,19.052,0,0,1,6.171-5.658,15.308,15.308,0,0,1,8.366-1.888,12.092,12.092,0,0,1,4.123.823,7.955,7.955,0,0,1,2.964,2.051,8.175,8.175,0,0,1,1.726,3.134,11.745,11.745,0,0,1,.414,4.07l14.665.585a23.388,23.388,0,0,0-.993-9.647A17.831,17.831,0,0,0,71.668,96.269Z" fill="#e8e4e8"/>
    <path id="Tracé_12" data-name="Tracé 12" d="M134.815,91.01a21.326,21.326,0,0,0-10.6-6.317,27.969,27.969,0,0,0-13.335.132A31.717,31.717,0,0,0,89.25,101.45a37.566,37.566,0,0,0-3.912,13.292,43.25,43.25,0,0,0,.971,14.574,27.411,27.411,0,0,0,6.23,12.6,21.163,21.163,0,0,0,10.6,6.316,28.146,28.146,0,0,0,13.421-.13,33.525,33.525,0,0,0,9.834-3.94l4.885,4.581,11.808-2.771-8.9-8.6a32.507,32.507,0,0,0,3.9-5.876,37.643,37.643,0,0,0,3.952-13.3,42.9,42.9,0,0,0-.951-14.578,27.24,27.24,0,0,0-6.273-12.608Zm-7.137,24.648a28.424,28.424,0,0,1-1.507,8.695,19.449,19.449,0,0,1-1.868,3.953l-4.31-4.277-10.447,2.452,7.735,8.042a17.586,17.586,0,0,1-3.029,1.03,12.1,12.1,0,0,1-6.2.021,9.136,9.136,0,0,1-4.636-3.2,15.938,15.938,0,0,1-2.845-6.364,34.691,34.691,0,0,1-.886-8.724,28.2,28.2,0,0,1,1.536-8.659,19.1,19.1,0,0,1,4.362-7.147,15.163,15.163,0,0,1,7.609-4.109,12.013,12.013,0,0,1,6.163-.01,9.047,9.047,0,0,1,4.611,3.183,16.112,16.112,0,0,1,2.83,6.388,35.042,35.042,0,0,1,.882,8.726Z" fill="#e8e4e8"/>
  </g>
</svg>
