<?xml version="1.0" encoding="UTF-8"?>
<svg id="Calque_1" xmlns="http://www.w3.org/2000/svg" version="1.1" viewBox="0 0 427.68 191.9">
  <!-- Generator: Adobe Illustrator 29.8.1, SVG Export Plug-In . SVG Version: 2.1.1 Build 2)  -->
  <defs>
    <style>
      .st0 {
        fill: #283583;
      }

      .st1 {
        stroke-miterlimit: 10;
        stroke-width: .7px;
      }

      .st1, .st2 {
        fill: none;
        stroke: #283583;
      }

      .st3 {
        fill: #fff;
      }

      .st4 {
        fill: #e20714;
      }

      .st2 {
        stroke-linecap: round;
        stroke-linejoin: round;
        stroke-width: 2.49px;
      }
    </style>
  </defs>
  <polygon class="st4" points="11.43 97.04 87.94 97.04 87.94 118.06 61.31 118.06 61.31 188.44 38.06 188.44 38.06 118.06 11.43 118.06 11.43 97.04"/>
  <path class="st4" d="M106.09,174.6c6.53,0,10.57-3.26,13.19-7.31v-5.88l-12.67,2.09c-5.48.91-7.31,2.74-7.31,5.75,0,3.26,2.74,5.35,6.79,5.35M78.93,170.29c0-10.18,7.7-18.02,22.07-20.5l18.28-3.13c-.26-4.96-4.31-8.75-10.32-8.75-5.48,0-10.05,2.35-12.53,6.92l-15.15-11.49c6.01-8.36,16.06-13.32,28.33-13.32,20.89,0,30.55,12.53,30.55,26.9v41.52h-20.89v-4.83c-3.66,4.31-10.84,7.44-17.76,7.44-13.32,0-22.59-7.83-22.59-20.76"/>
  <rect class="st4" x="151.66" y="90.51" width="20.76" height="97.93"/>
  <g>
    <path class="st4" d="M204.81,146h22.72c-.26-4.31-3.4-8.88-10.58-8.88-6.14,0-10.19,2.48-12.14,8.88M219.69,191.05c-24.16,0-36.95-16.32-36.95-35.51s11.88-35.51,34.21-35.51c18.67,0,30.94,12.4,30.94,30.29,0,4.44-.65,8.62-1.31,10.97h-42.57c1.7,7.57,7.31,11.23,16.06,11.23,6.14,0,11.23-2.48,14.23-6.27l14.63,11.62c-6.27,8.23-16.58,13.19-29.25,13.19"/>
    <path class="st4" d="M252.99,122.63h20.76v3.66c4.31-3.66,9.79-6.27,17.49-6.27,13.97,0,25.46,9.79,25.46,29.77v38.65h-20.89v-37.73c0-6.66-3.53-11.23-10.18-11.23-7.31,0-10.58,5.75-11.88,7.96v41h-20.76v-65.81Z"/>
    <path class="st4" d="M332.77,141.43h-12.27v-18.8h12.27v-16.45h20.89v16.45h18.02v18.8h-18.02v21.41c0,5.22,2.74,8.09,8.22,8.09,4.83,0,7.97-.65,9.92-1.44v17.89c-3.52,1.57-7.57,2.35-13.71,2.35-17.89,0-25.33-10.71-25.33-26.9v-21.41Z"/>
    <path class="st4" d="M386.7,165.85c3.53,4.57,7.96,8.49,13.84,8.49,3.79,0,5.61-1.7,5.61-4.31,0-9.01-29.51-4.7-29.51-28.46,0-12.53,10.58-21.54,25.07-21.54,10.44,0,20.37,5.09,25.33,11.49l-13.58,12.4c-3.13-3.66-7.05-7.18-11.75-7.18-3.66,0-5.35,1.57-5.35,3.79,0,8.49,29.51,4.31,29.51,28.07-.26,14.89-12.4,22.46-25.07,22.46s-21.02-4.96-27.68-12.53l13.58-12.66Z"/>
  </g>
  <path class="st0" d="M35,171.33h9.42v-67.66h25.6v-7.88H9.41v7.88h25.59v67.66ZM51.83,178.74h-24.23v-67.66H2v-22.69h75.42v22.69h-25.6v67.66Z"/>
  <path class="st0" d="M109.47,152.86l-9.91,1.65c-5.79.98-5.79,2.95-5.79,3.69,0,2.55,2.88,2.93,4.59,2.93,5.82,0,9.21-2.75,11.11-5.36v-2.91ZM98.36,168.55c-7.18,0-12-4.16-12-10.34,0-3.35,1.55-9.23,11.97-11l18.54-3.09v13.85l-.56.9c-3.9,6.24-10.28,9.68-17.95,9.68M101.56,122.39c9.02,0,15.32,5.76,15.32,14.01v4.67l-21.33,3.6c-10.62,1.77-16.7,6.96-16.7,14.24,0,8.75,6.3,14.19,16.44,14.19,5.93,0,11.97-2.5,15.03-6.23l6.57-8v12.45h7.64v-34.93c0-12.37-8.4-19.76-22.48-19.76-7.97,0-14.83,2.66-19.67,7.56l5.16,3.94c3.82-3.78,8.6-5.75,14.03-5.75M131.93,145.01v33.73h-22.45v-1.84c-4.15,2.29-9.17,3.62-14.19,3.62-14.26,0-23.85-8.68-23.85-21.59,0-11.1,8.55-19.16,22.88-21.55l15-2.53c-.67-3.19-3.46-5.04-7.75-5.04s-7.81,1.88-10.52,5.59l-2.23,3.06-16.9-12.9,2.12-2.92c6.26-8.63,16.2-13.38,28-13.38,18.16,0,29.89,10.66,29.89,27.16v8.6Z"/>
  <path class="st0" d="M149.69,171.33h7.64v-81.46h-7.64v81.46ZM164.74,178.74h-22.46v-96.28h22.46v96.28Z"/>
  <g>
    <path class="st0" d="M196.52,133.65h17.5c-1.36-2.62-4.09-4.68-8.32-4.68s-7.33,1.54-9.18,4.68M222.59,141.06h-35.91l.95-4.47c2.02-9.55,8.61-15.02,18.08-15.02,10.58,0,16.43,7.87,16.73,15.64l.15,3.85ZM195.38,151.96c1.9,5.6,6.13,8.24,13.06,8.24,5.15,0,9.8-2.1,12.44-5.63l1.96-2.61h-27.46ZM206.06,116.65c-18.64,0-26.99,14.33-26.99,28.53s9.11,28.53,29.48,28.53c8.27,0,15.64-2.83,20.74-7.88l-5.06-4.01c-4.08,3.67-9.74,5.78-15.79,5.78-12.2,0-19.77-6.7-21.33-18.88l-.53-4.17h42.94c.2-1.45.34-3.13.34-4.83,0-13.8-9.56-23.08-23.79-23.08M208.55,181.11c-21.71,0-36.88-14.78-36.88-35.93s14.14-35.93,34.39-35.93c18.37,0,31.19,12.53,31.19,30.48,0,3.08-.39,6.59-1.05,9.38l-.67,2.86h-11.84l16.04,12.69-2.15,2.88c-6.44,8.63-17.02,13.57-29.04,13.57"/>
    <path class="st0" d="M293.3,171.33h7.76v-31.84c0-14.3-7.3-22.84-19.52-22.84-5.94,0-10.88,1.98-15.08,6.06l-6.28,6.1v-9.8h-7.64v52.31h7.64v-36.3l.52-.87c4.22-7.1,9.95-10.7,17.05-10.7,9.3,0,15.55,6.68,15.55,16.62v31.25ZM308.47,178.74h-22.57v-38.66c0-3.44-1.06-9.21-8.15-9.21-4.22,0-7.38,1.93-10.16,6.24v41.64h-22.45v-67.13h22.45v1.1c4.17-2.3,8.84-3.47,13.95-3.47,16.36,0,26.93,11.87,26.93,30.24v39.25Z"/>
    <path class="st0" d="M318.77,125.12h11.14v28.11c0,12.98,6,19.28,18.34,19.28,3.21,0,5.71-.26,7.79-.81v-5.82c-1.54.2-3.25.3-5.19.3-8.38,0-13.18-4.72-13.18-12.95v-28.11h18.25v-6.1h-18.25v-14.93h-7.76v14.93h-11.14v6.1ZM348.24,179.92c-16.6,0-25.74-9.48-25.74-26.69v-20.71h-11.14v-20.91h11.14v-14.93h22.57v14.93h18.25v20.91h-18.25v20.71c0,4.14,1.46,5.54,5.78,5.54,3.36,0,5.8-.34,7.48-1.02l5.11-2.1v21.1l-2.21.97c-3.47,1.53-7.48,2.21-12.98,2.21"/>
    <path class="st0" d="M373.78,166.6c5.06,4.77,11.2,7.1,18.65,7.1,8.74,0,17.66-4.88,17.86-15.8,0-8.83-6.18-11.86-15.6-15.47-6.37-2.44-12.96-4.97-12.96-11.72,0-4.52,3.35-9.39,10.69-9.39,4.18,0,8.17,1.81,11.89,5.4l4.43-3.9c-4.12-3.78-10.33-6.18-16.44-6.18-10.21,0-17.63,6.22-17.63,14.78,0,9.07,6.16,12.1,15.56,15.68,6.09,2.32,13,4.95,13,11.81,0,5.95-4.54,10.1-11.05,10.1-5.14,0-9.76-2.1-14.03-6.39l-4.38,3.97ZM392.44,181.11c-10.87,0-19.87-4.15-26.77-12.34l-2.3-2.73,15.53-14.05,2.46,3.09c3.55,4.46,6.99,6.54,10.85,6.54,2.42,0,3.64-.91,3.64-2.7s-4.18-3.35-8.23-4.89c-8.1-3.08-20.33-7.74-20.33-22.6,0-12.65,10.76-22.19,25.03-22.19,9.76,0,19.45,4.59,24.67,11.7l2.01,2.73-15.39,13.55-2.43-2.99c-2.97-3.65-5.91-5.5-8.74-5.5-2.18,0-3.29.67-3.29,1.99,0,1.66,4.36,3.33,8.2,4.8,8.11,3.11,20.35,7.8,20.35,22.45-.26,13.65-10.65,23.14-25.27,23.14"/>
  </g>
  <polygon class="st3" points="5.71 92.09 73.72 92.09 73.72 107.37 48.13 107.37 48.13 175.03 31.3 175.03 31.3 107.37 5.71 107.37 5.71 92.09"/>
  <polygon class="st1" points="5.71 92.09 73.72 92.09 73.72 107.37 48.13 107.37 48.13 175.03 31.3 175.03 31.3 107.37 5.71 107.37 5.71 92.09"/>
  <g>
    <path class="st3" d="M98.36,164.84c6.87,0,11.85-3.2,14.81-7.94v-8.41l-14.22,2.37c-6.28,1.07-8.89,3.67-8.89,7.35,0,4.03,3.2,6.64,8.29,6.64M75.14,158.92c0-9.01,6.99-15.76,19.79-17.89l18.25-3.08v-1.54c0-6.28-4.74-10.31-11.61-10.31-5.81,0-10.31,2.72-13.51,7.11l-11.02-8.41c5.33-7.35,14.1-11.85,25-11.85,17.3,0,26.19,10.31,26.19,23.46v38.63h-15.05v-5.81c-3.79,4.62-10.9,7.58-17.89,7.58-11.97,0-20.14-6.87-20.14-17.89"/>
    <path class="st1" d="M98.36,164.84c6.87,0,11.85-3.2,14.81-7.94v-8.41l-14.22,2.37c-6.28,1.07-8.89,3.67-8.89,7.35,0,4.03,3.2,6.64,8.29,6.64ZM75.14,158.92c0-9.01,6.99-15.76,19.79-17.89l18.25-3.08v-1.54c0-6.28-4.74-10.31-11.61-10.31-5.81,0-10.31,2.72-13.51,7.11l-11.02-8.41c5.33-7.35,14.1-11.85,25-11.85,17.3,0,26.19,10.31,26.19,23.46v38.63h-15.05v-5.81c-3.79,4.62-10.9,7.58-17.89,7.58-11.97,0-20.14-6.87-20.14-17.89Z"/>
  </g>
  <rect class="st3" x="145.99" y="86.16" width="15.05" height="88.87"/>
  <rect class="st1" x="145.99" y="86.16" width="15.05" height="88.87"/>
  <g>
    <path class="st3" d="M191.25,137.35h27.49c-.24-6.04-4.74-12.09-13.03-12.09-7.7,0-12.8,4.27-14.46,12.09M208.55,177.4c-21.21,0-33.18-14.81-33.18-32.23s11.14-32.23,30.69-32.23c16.59,0,27.49,11.14,27.49,26.78,0,3.32-.48,6.52-.95,8.53h-41.83c1.42,11.14,8.29,15.64,17.66,15.64,6.52,0,12.21-2.84,15.41-7.11l10.78,8.53c-5.57,7.47-14.81,12.09-26.07,12.09"/>
    <path class="st1" d="M191.25,137.35h27.49c-.24-6.04-4.74-12.09-13.03-12.09-7.7,0-12.8,4.27-14.46,12.09ZM208.55,177.4c-21.21,0-33.18-14.81-33.18-32.23s11.14-32.23,30.69-32.23c16.59,0,27.49,11.14,27.49,26.78,0,3.32-.48,6.52-.95,8.53h-41.83c1.42,11.14,8.29,15.64,17.66,15.64,6.52,0,12.21-2.84,15.41-7.11l10.78,8.53c-5.57,7.47-14.81,12.09-26.07,12.09Z"/>
    <path class="st3" d="M248.83,115.31h15.05v4.74c4.15-4.03,9.72-7.11,17.66-7.11,12.92,0,23.22,8.89,23.22,26.54v35.55h-15.17v-34.95c0-7.94-4.5-12.92-11.85-12.92s-11.61,5.1-13.86,8.89v38.98h-15.05v-59.72Z"/>
    <path class="st1" d="M248.83,115.31h15.05v4.74c4.15-4.03,9.72-7.11,17.66-7.11,12.92,0,23.22,8.89,23.22,26.54v35.55h-15.17v-34.95c0-7.94-4.5-12.92-11.85-12.92s-11.61,5.1-13.86,8.89v38.98h-15.05v-59.72Z"/>
    <path class="st3" d="M326.2,128.82h-11.14v-13.51h11.14v-14.93h15.17v14.93h18.25v13.51h-18.25v24.41c0,6.64,3.56,9.24,9.48,9.24,4.15,0,6.87-.47,8.89-1.3v13.15c-2.96,1.3-6.52,1.89-11.49,1.89-14.93,0-22.04-8.41-22.04-22.99v-24.41Z"/>
    <path class="st1" d="M326.2,128.82h-11.14v-13.51h11.14v-14.93h15.17v14.93h18.25v13.51h-18.25v24.41c0,6.64,3.56,9.24,9.48,9.24,4.15,0,6.87-.47,8.89-1.3v13.15c-2.96,1.3-6.52,1.89-11.49,1.89-14.93,0-22.04-8.41-22.04-22.99v-24.41Z"/>
    <path class="st3" d="M378.45,157.38c3.67,4.62,8.06,7.94,13.75,7.94,4.86,0,7.35-2.84,7.35-6.4,0-10.43-28.56-6.52-28.56-27.49,0-10.55,8.89-18.48,21.33-18.48,9.12,0,17.42,4.38,21.68,10.19l-9.95,8.77c-3.08-3.79-6.99-6.87-11.61-6.87s-6.99,2.61-6.99,5.69c0,10.19,28.56,6.64,28.56,27.25-.24,12.56-10.31,19.43-21.57,19.43-10.66,0-18.25-4.27-23.94-11.02l9.95-9.01Z"/>
    <path class="st1" d="M378.45,157.38c3.67,4.62,8.06,7.94,13.75,7.94,4.86,0,7.35-2.84,7.35-6.4,0-10.43-28.56-6.52-28.56-27.49,0-10.55,8.89-18.48,21.33-18.48,9.12,0,17.42,4.38,21.68,10.19l-9.95,8.77c-3.08-3.79-6.99-6.87-11.61-6.87s-6.99,2.61-6.99,5.69c0,10.19,28.56,6.64,28.56,27.25-.24,12.56-10.31,19.43-21.57,19.43-10.66,0-18.25-4.27-23.94-11.02l9.95-9.01Z"/>
    <path class="st3" d="M117.88,24.63v15.77h8.28c5.23,0,8.36-3.05,8.36-8.01,0-4.62-3.14-7.75-8.36-7.75h-8.28ZM105.51,14.35h20.12c13.42,0,21.6,6.88,21.6,18.21s-8.19,18.12-21.6,18.12h-7.75v24.65h-12.37V14.35Z"/>
    <path class="st3" d="M155.77,31.42h11.06v4.36c2.88-2.96,6.62-5.23,11.59-5.23,1.48,0,2.79.26,3.83.61v10.89c-1.39-.35-2.87-.61-4.88-.61-5.4,0-8.89,2.96-10.54,5.75v28.14h-11.06V31.42Z"/>
    <path class="st3" d="M204.21,24.45l9.06-14.46h12.02l-10.45,14.46h-10.63ZM197.85,47.62h20.21c-.17-4.44-3.4-8.88-9.58-8.88-5.66,0-9.41,3.14-10.63,8.88M210.57,77.07c-15.59,0-24.39-10.89-24.39-23.7s8.19-23.69,22.56-23.69c12.19,0,20.21,8.28,20.21,19.77,0,2.44-.35,4.7-.7,6.19h-30.75c1.04,8.19,6.1,11.5,12.98,11.5,4.79,0,8.97-2.09,11.32-5.23l7.93,6.27c-4.09,5.49-10.89,8.89-19.16,8.89"/>
    <path class="st3" d="M250.81,46.49v13.76c2.96,4.18,7.06,6.36,12.11,6.36,7.49,0,12.37-5.57,12.37-13.24s-4.88-13.24-12.37-13.24c-5.14,0-9.32,2.26-12.11,6.36M239.75,31.42h11.06v3.57c3.4-3.4,7.67-5.31,13.68-5.31,13.94,0,22.3,10.89,22.3,23.69s-8.36,23.7-22.3,23.7c-6.01,0-10.28-1.92-13.68-5.31v25h-11.06V31.42Z"/>
    <path class="st3" d="M310.48,67.83c5.05,0,8.71-2.35,10.89-5.84v-6.19l-10.45,1.74c-4.62.78-6.53,2.7-6.53,5.4,0,2.96,2.35,4.88,6.1,4.88M293.41,63.48c0-6.62,5.14-11.59,14.55-13.15l13.42-2.26v-1.13c0-4.62-3.49-7.58-8.54-7.58-4.27,0-7.58,2-9.93,5.23l-8.1-6.19c3.92-5.4,10.37-8.71,18.38-8.71,12.72,0,19.25,7.58,19.25,17.25v28.4h-11.06v-4.27c-2.79,3.4-8.01,5.57-13.15,5.57-8.8,0-14.81-5.05-14.81-13.15"/>
    <path class="st4" d="M111.95,18.18v15.77h8.28c5.23,0,8.36-3.05,8.36-8.01,0-4.62-3.14-7.75-8.36-7.75h-8.28ZM99.58,7.9h20.12c13.42,0,21.6,6.88,21.6,18.21s-8.19,18.12-21.6,18.12h-7.75v24.65h-12.37V7.9Z"/>
    <path class="st2" d="M111.95,18.18v15.77h8.28c5.23,0,8.36-3.05,8.36-8.01,0-4.62-3.14-7.75-8.36-7.75h-8.28ZM99.58,7.9h20.12c13.42,0,21.6,6.88,21.6,18.21s-8.19,18.12-21.6,18.12h-7.75v24.65h-12.37V7.9Z"/>
    <path class="st4" d="M149.84,24.98h11.06v4.36c2.88-2.96,6.62-5.23,11.59-5.23,1.48,0,2.79.26,3.83.61v10.89c-1.39-.35-2.87-.61-4.88-.61-5.4,0-8.89,2.96-10.54,5.75v28.14h-11.06V24.98Z"/>
    <path class="st2" d="M149.84,24.98h11.06v4.36c2.88-2.96,6.62-5.23,11.59-5.23,1.48,0,2.79.26,3.83.61v10.89c-1.39-.35-2.87-.61-4.88-.61-5.4,0-8.89,2.96-10.54,5.75v28.14h-11.06V24.98Z"/>
    <path class="st4" d="M198.28,18.01l9.06-14.46h12.02l-10.45,14.46h-10.63ZM191.92,41.18h20.21c-.17-4.44-3.4-8.88-9.58-8.88-5.66,0-9.41,3.14-10.63,8.88M204.64,70.63c-15.59,0-24.39-10.89-24.39-23.7s8.19-23.69,22.56-23.69c12.19,0,20.21,8.28,20.21,19.77,0,2.44-.35,4.7-.7,6.19h-30.75c1.04,8.19,6.1,11.5,12.98,11.5,4.79,0,8.97-2.09,11.32-5.23l7.93,6.27c-4.09,5.49-10.89,8.89-19.16,8.89"/>
    <path class="st2" d="M198.28,18.01l9.06-14.46h12.02l-10.45,14.46h-10.63ZM191.92,41.18h20.21c-.17-4.44-3.4-8.88-9.58-8.88-5.66,0-9.41,3.14-10.63,8.88ZM204.64,70.63c-15.59,0-24.39-10.89-24.39-23.7s8.19-23.69,22.56-23.69c12.19,0,20.21,8.28,20.21,19.77,0,2.44-.35,4.7-.7,6.19h-30.75c1.04,8.19,6.1,11.5,12.98,11.5,4.79,0,8.97-2.09,11.32-5.23l7.93,6.27c-4.09,5.49-10.89,8.89-19.16,8.89Z"/>
    <path class="st4" d="M244.88,40.05v13.76c2.96,4.18,7.06,6.36,12.11,6.36,7.49,0,12.37-5.57,12.37-13.24s-4.88-13.24-12.37-13.24c-5.14,0-9.32,2.26-12.11,6.36M233.82,24.98h11.06v3.57c3.4-3.4,7.67-5.31,13.68-5.31,13.94,0,22.3,10.89,22.3,23.69s-8.36,23.7-22.3,23.7c-6.01,0-10.28-1.92-13.68-5.31v25h-11.06V24.98Z"/>
    <path class="st2" d="M244.88,40.05v13.76c2.96,4.18,7.06,6.36,12.11,6.36,7.49,0,12.37-5.57,12.37-13.24s-4.88-13.24-12.37-13.24c-5.14,0-9.32,2.26-12.11,6.36ZM233.82,24.98h11.06v3.57c3.4-3.4,7.67-5.31,13.68-5.31,13.94,0,22.3,10.89,22.3,23.69s-8.36,23.7-22.3,23.7c-6.01,0-10.28-1.92-13.68-5.31v25h-11.06V24.98Z"/>
    <path class="st4" d="M304.55,61.39c5.05,0,8.71-2.35,10.89-5.84v-6.19l-10.45,1.74c-4.62.78-6.53,2.7-6.53,5.4,0,2.96,2.35,4.88,6.1,4.88M287.47,57.03c0-6.62,5.14-11.59,14.55-13.15l13.42-2.26v-1.13c0-4.62-3.49-7.58-8.54-7.58-4.27,0-7.58,2-9.93,5.23l-8.1-6.19c3.92-5.4,10.37-8.71,18.38-8.71,12.72,0,19.25,7.58,19.25,17.25v28.4h-11.06v-4.27c-2.79,3.4-8.01,5.57-13.15,5.57-8.8,0-14.81-5.05-14.81-13.15"/>
    <path class="st2" d="M304.55,61.39c5.05,0,8.71-2.35,10.89-5.84v-6.19l-10.45,1.74c-4.62.78-6.53,2.7-6.53,5.4,0,2.96,2.35,4.88,6.1,4.88ZM287.47,57.03c0-6.62,5.14-11.59,14.55-13.15l13.42-2.26v-1.13c0-4.62-3.49-7.58-8.54-7.58-4.27,0-7.58,2-9.93,5.23l-8.1-6.19c3.92-5.4,10.37-8.71,18.38-8.71,12.72,0,19.25,7.58,19.25,17.25v28.4h-11.06v-4.27c-2.79,3.4-8.01,5.57-13.15,5.57-8.8,0-14.81-5.05-14.81-13.15Z"/>
  </g>
</svg>