<svg xmlns="http://www.w3.org/2000/svg" width="965.362" height="1155.762" viewBox="0 0 965.362 1155.762">
  <g id="Groupe_59" data-name="Groupe 59" transform="translate(-82.874 -7732.811)">
    <g id="Groupe_55" data-name="Groupe 55" transform="translate(903.858 7346.091) rotate(-7)">
      <rect id="Rectangle_2" data-name="Rectangle 2" width="374" height="161" rx="80.5" transform="translate(-713 348)" fill="#3b193d"/>
      <text id="Un_bac" data-name="Un bac" transform="translate(-526 449)" fill="#e8e4e8" font-size="60" font-family="Syne" font-weight="700"><tspan x="-119.04" y="0">Un bac</tspan></text>
    </g>
    <g id="Groupe_56" data-name="Groupe 56" transform="matrix(0.998, 0.07, -0.07, 0.998, 1124.384, 7733.736)">
      <rect id="Rectangle_2-2" data-name="Rectangle 2" width="948" height="282" rx="81" transform="translate(-1000 348)" fill="#3b193d"/>
      <text id="_4_années_d_études_supérieures_Master_1_en_droit_Institut_d_Etudes_Politiques_" data-name="4 années d’études 
supérieures 
(Master 1 en droit, Institut d’Etudes Politiques…)" transform="translate(-526 449)" fill="#e8e4e8" font-size="60" font-family="Syne" font-weight="700"><tspan x="-306.51" y="0">4 années d’études </tspan><tspan x="-197.49" y="72">supérieures </tspan><tspan font-size="40" font-family="Inter" font-weight="400"><tspan x="-406.338" y="127">(Master 1 en droit, Institut d’Etudes Politiques…)</tspan></tspan></text>
    </g>
    <g id="Groupe_57" data-name="Groupe 57" transform="matrix(0.998, -0.07, 0.07, 0.998, 977.992, 8052.226)">
      <rect id="Rectangle_2-3" data-name="Rectangle 2" width="640" height="161" rx="80.5" transform="translate(-846 348)" fill="#3b193d"/>
      <text id="_31_mois_à_l_ENM" data-name="31 mois à l’ENM" transform="translate(-526 449)" fill="#e8e4e8" font-size="60" font-family="Syne" font-weight="700"><tspan x="-252.33" y="0">31 mois à l’ENM</tspan></text>
    </g>
    <path id="Tracé_155" data-name="Tracé 155" d="M5109.8,7821.107c153.2-25.745,229.575,136.687,150.072,142.562s18.177-177.2,131.574-72.27-42.423,232.575-42.423,232.575" transform="translate(-4500 -14)" fill="none" stroke="#3b193d" stroke-width="4"/>
    <path id="Tracé_156" data-name="Tracé 156" d="M4854.47,8213.956c-84.576,45.252-98.987,133.806-41.112,196.071" transform="translate(-4511 69.583)" fill="none" stroke="#3b193d" stroke-width="4"/>
    <path id="Tracé_157" data-name="Tracé 157" d="M5289.471,8441.542c92.635,27.569,27.3,220.276-21.19,192.313s53.946-105.05,104.336-44.892-.562,151.307-62.544,164.221" transform="translate(-4516.337 27.316)" fill="none" stroke="#3b193d" stroke-width="4"/>
    <g id="Groupe_58" data-name="Groupe 58" transform="matrix(0.995, 0.105, -0.105, 0.995, 1197.326, 8409.329)">
      <rect id="Rectangle_2-4" data-name="Rectangle 2" width="536" height="161" rx="80.5" transform="translate(-794 348)" fill="#de4632"/>
      <text id="Magistrat_e_" data-name="Magistrat(e)" transform="translate(-526 449)" fill="#e8e4e8" font-size="60" font-family="Syne" font-weight="700"><tspan x="-200.01" y="0">Magistrat(e)</tspan></text>
    </g>
  </g>
</svg>
