<svg xmlns="http://www.w3.org/2000/svg" width="283.411" height="276.57" viewBox="0 0 283.411 276.57">
  <g id="Calque_1" transform="translate(0.086 0.001)">
    <g id="Groupe_236" data-name="Groupe 236" transform="translate(0.599 0.599)">
      <path id="Tracé_324" data-name="Tracé 324" d="M83.024,108.255c-11.657,6.267-32.838,39.481,1.5,57.906s34.844-10.876,34.844-10.876Z" transform="translate(-28.939 -47.39)" fill="#3b193d" stroke="#000" stroke-miterlimit="10" stroke-width="1.2"/>
      <path id="Tracé_325" data-name="Tracé 325" d="M212.225,108.255c11.657,6.267,32.838,39.481-1.5,57.906s-34.844-10.876-34.844-10.876Z" transform="translate(-76.782 -47.39)" fill="#3b193d" stroke="#000" stroke-miterlimit="10" stroke-width="1.2"/>
      <path id="Tracé_326" data-name="Tracé 326" d="M202.608,184.754c11.382,11.084,30.325,28.962-2.034,47.079s-32.359-7.866-32.359-7.866V184.754Z" transform="translate(-73.451 -80.64)" fill="#3b193d" stroke="#000" stroke-miterlimit="10" stroke-width="1.2"/>
      <path id="Tracé_327" data-name="Tracé 327" d="M265.494,18.717c-.226,12.139-5.781,50.288-17.834,85.621-2.064,6.032-6.174,11.709-9.958,16.838-24.376,33.02-63.778,62.647-63.778,62.647l1.243,31.441-18.4-1.984-24.644-2.667v-20.5H85.191c22.192-6.946,53.611-38.106,59.041-57.385a12.712,12.712,0,0,1,3.484-5.419l4.44,2.548v6.484a2.169,2.169,0,0,0,3.236,1.882c.85-.484,1.678-.957,2.505-1.419,38.7-22,55.031-31.73,61.181-40.364,6.43-9.064,25.674-40.762,25.911-63.417-14.064,0-15.01-12.87-15.01-19.537S238.559.6,249.515.6,265.73,5.61,265.494,18.717Z" transform="translate(-37.366 -0.599)" fill="#de4632" stroke="#000" stroke-miterlimit="10" stroke-width="1.2"/>
      <path id="Tracé_328" data-name="Tracé 328" d="M95.117,184.754c-11.382,11.084-30.325,28.962,2.034,47.079s32.359-7.866,32.359-7.866V184.754Z" transform="translate(-34.746 -80.64)" fill="#3b193d" stroke="#000" stroke-miterlimit="10" stroke-width="1.2"/>
      <path id="Tracé_329" data-name="Tracé 329" d="M46.52,238.163c12.475-4.15,28.816-7.575,28.816-7.575v-10.2l20.021-11.494,15.591,8.946a12.706,12.706,0,0,0-3.484,5.419c-5.43,19.279-36.848,50.439-59.041,57.385l-19.269,30.4h6.8c1.8,0,14.871-.043,17.516-.032,11.032.021,16.966.828,25.03,8.613v24.311c-25.031,18.591-32.869-11.086-32.869-11.086H15.715c-11.451,0-17.733-11.416-14.075-22.268C7.05,294.527,20.791,268.3,31.56,250.2A27.53,27.53,0,0,1,46.52,238.163Z" transform="translate(-0.599 -91.13)" fill="#de4632" stroke="#000" stroke-miterlimit="10" stroke-width="1.2"/>
      <path id="Tracé_330" data-name="Tracé 330" d="M145.147,225.036c-3.613-2.721-1.614-2.632-3.484-1.126a12.713,12.713,0,0,0-3.484,5.419c-5.43,19.279-36.848,50.439-59.041,57.385-10.789,9.624-8.107,24.935-5.731,30.354l10.775.011c9.146.018,11.412.589,20.2,5.215a158.4,158.4,0,0,0,4.834,15.233v.465h33.73v-.465a158.344,158.344,0,0,0,4.834-15.233l27.149,2.039C192.684,254.816,145.147,225.036,145.147,225.036Z" transform="translate(-31.314 -97.204)" fill="#755d76" stroke="#000" stroke-miterlimit="10" stroke-width="1.2"/>
      <path id="Tracé_331" data-name="Tracé 331" d="M171.9,38.388c4.112-14.66-16.269-33.253-42.549-20.2-26.281-13.051-46.661,5.542-42.55,20.2-7.687,4.291-14.034,19.04,1.788,34.862l40.761-19.308,40.761,19.308C185.935,57.427,179.589,42.678,171.9,38.388Z" transform="translate(-34.588 -6.321)" fill="#3b193d" stroke="#000" stroke-miterlimit="10" stroke-width="1.2"/>
      <path id="Tracé_332" data-name="Tracé 332" d="M92.082,143.149c-9.833,6.973-7.756-26-2.371-27.311,2.371-.578,5.768,2.64,5.768,2.64" transform="translate(-37.365 -50.656)" fill="#de4632" stroke="#000" stroke-miterlimit="10" stroke-width="1.2"/>
      <path id="Tracé_333" data-name="Tracé 333" d="M236.437,143.149c9.833,6.973,7.756-26,2.371-27.311-2.371-.578-5.768,2.64-5.768,2.64" transform="translate(-101.627 -50.656)" fill="#de4632" stroke="#000" stroke-miterlimit="10" stroke-width="1.2"/>
      <path id="Tracé_334" data-name="Tracé 334" d="M137.428,66.372c-7.509,2.568-21.1,17.764-40.047,17.049v41.786c0,21.739,21.453,37.771,40.047,37.771s40.046-16.031,40.046-37.771V83.421C158.524,84.136,144.937,68.94,137.428,66.372Z" transform="translate(-42.664 -29.187)" fill="#de4632" stroke="#000" stroke-miterlimit="10" stroke-width="1.2"/>
      <path id="Tracé_335" data-name="Tracé 335" d="M137.428,98.531c-19.725,0-33.909,5.244-40.047,8.1v24.552c10.787-4.529,21.394-8.738,40.047-8.738s29.26,4.209,40.046,8.738V106.635C171.336,103.775,157.153,98.531,137.428,98.531Z" transform="translate(-42.664 -43.164)" fill="#3b193d" stroke="#000" stroke-miterlimit="10" stroke-width="1.2"/>
      <path id="Tracé_336" data-name="Tracé 336" d="M289.08,426.387a3.242,3.242,0,0,1-1.656,2.828l-22.988,12.956a28.861,28.861,0,0,1-14.183,3.72H120.736v-19.5Z" transform="translate(-52.815 -185.663)" fill="#de4632" stroke="#000" stroke-miterlimit="10" stroke-width="1.2"/>
      <path id="Tracé_337" data-name="Tracé 337" d="M289.08,411.513H120.736v-19.5H250.253a28.861,28.861,0,0,1,14.183,3.72l22.988,12.946A3.274,3.274,0,0,1,289.08,411.513Z" transform="translate(-52.815 -170.721)" fill="#3b193d" stroke="#000" stroke-miterlimit="10" stroke-width="1.2"/>
      <g id="Groupe_231" data-name="Groupe 231" transform="translate(59.448 206.206)">
        <path id="Tracé_338" data-name="Tracé 338" d="M120.483,434.5a5.319,5.319,0,0,1-3.84-1.63c-.445-.46-10.893-11.515-10.893-32.879v-.136c0-21.364,10.448-32.418,10.893-32.879a5.376,5.376,0,1,1,7.73,7.474c-.29.312-7.871,8.632-7.871,25.406v.136c0,16.774,7.581,25.094,7.9,25.44a5.384,5.384,0,0,1-3.923,9.069Z" transform="translate(-105.75 -365.332)" fill="#3b193d" stroke="#000" stroke-miterlimit="10" stroke-width="1.2"/>
      </g>
      <g id="Groupe_235" data-name="Groupe 235" transform="translate(150.659 12.491)">
        <g id="Groupe_234" data-name="Groupe 234" transform="translate(0 7.222)">
          <g id="Groupe_232" data-name="Groupe 232">
            <path id="Tracé_339" data-name="Tracé 339" d="M267.081,179.581c0,7.583,11.108,13.73,24.81,13.73s24.81-6.147,24.81-13.73v-2.456H267.081Z" transform="translate(-267.081 -97.037)" fill="#3b193d"/>
            <rect id="Rectangle_85" data-name="Rectangle 85" width="49.619" height="2.456" transform="translate(0 80.088)" fill="#de4632"/>
            <line id="Ligne_19" data-name="Ligne 19" x2="49.619" transform="translate(0 82.544)" fill="none" stroke="#000" stroke-miterlimit="10" stroke-width="1.2"/>
            <path id="Tracé_340" data-name="Tracé 340" d="M267.081,179.581c0,7.583,11.108,13.73,24.81,13.73s24.81-6.147,24.81-13.73v-2.456H267.081Z" transform="translate(-267.081 -97.037)" fill="none" stroke="#000" stroke-miterlimit="10" stroke-width="1.2"/>
            <path id="Tracé_341" data-name="Tracé 341" d="M267.081,115.554l25.954-80.088L316.7,115.554" transform="translate(-267.081 -35.466)" fill="none" stroke="#000" stroke-miterlimit="10" stroke-width="1.2"/>
            <line id="Ligne_20" data-name="Ligne 20" y1="80.088" x2="1.144" transform="translate(24.81)" fill="none" stroke="#000" stroke-miterlimit="10" stroke-width="1.2"/>
          </g>
          <g id="Groupe_233" data-name="Groupe 233" transform="translate(81.848)">
            <path id="Tracé_342" data-name="Tracé 342" d="M461.472,179.581c0,7.583-11.108,13.73-24.81,13.73s-24.81-6.147-24.81-13.73v-2.456h49.62Z" transform="translate(-411.853 -97.037)" fill="#3b193d"/>
            <rect id="Rectangle_86" data-name="Rectangle 86" width="49.619" height="2.456" transform="translate(49.619 82.544) rotate(180)" fill="#de4632"/>
            <line id="Ligne_21" data-name="Ligne 21" x1="49.619" transform="translate(0 82.544)" fill="none" stroke="#000" stroke-miterlimit="10" stroke-width="1.2"/>
            <path id="Tracé_343" data-name="Tracé 343" d="M461.472,179.581c0,7.583-11.108,13.73-24.81,13.73s-24.81-6.147-24.81-13.73v-2.456h49.62Z" transform="translate(-411.853 -97.037)" fill="none" stroke="#000" stroke-miterlimit="10" stroke-width="1.2"/>
            <path id="Tracé_344" data-name="Tracé 344" d="M461.472,115.554,435.518,35.466l-23.665,80.088" transform="translate(-411.853 -35.466)" fill="none" stroke="#000" stroke-miterlimit="10" stroke-width="1.2"/>
            <line id="Ligne_22" data-name="Ligne 22" x1="1.144" y1="80.088" transform="translate(23.666)" fill="none" stroke="#000" stroke-miterlimit="10" stroke-width="1.2"/>
          </g>
        </g>
        <path id="Tracé_345" data-name="Tracé 345" d="M390.715,29.914h-87.72a3.611,3.611,0,0,1-3.612-3.611h0a3.611,3.611,0,0,1,3.612-3.611h87.72a3.611,3.611,0,0,1,3.611,3.611h0A3.611,3.611,0,0,1,390.715,29.914Z" transform="translate(-281.121 -22.692)" fill="#3b193d" stroke="#000" stroke-miterlimit="10" stroke-width="1.2"/>
      </g>
      <path id="Tracé_346" data-name="Tracé 346" d="M165.051,155.838c5.421,0,6.519-4.029,6.519-4.029H157.726A7.99,7.99,0,0,0,165.051,155.838Z" transform="translate(-68.892 -66.321)" fill="#3b193d" stroke="#000" stroke-miterlimit="10" stroke-width="1.2"/>
      <path id="Tracé_347" data-name="Tracé 347" d="M148.171,181.335a32.411,32.411,0,0,0,24.647,0A38.257,38.257,0,0,0,148.171,181.335Z" transform="translate(-64.739 -78.268)" fill="#3b193d" stroke="#000" stroke-miterlimit="10" stroke-width="1.2"/>
    </g>
  </g>
</svg>
