<svg xmlns="http://www.w3.org/2000/svg" width="83.834" height="83.834" viewBox="0 0 83.834 83.834">
  <path id="icons8-tiktok" d="M16.972,3A14.044,14.044,0,0,0,3,16.972V72.862A14.044,14.044,0,0,0,16.972,86.834H72.862A14.044,14.044,0,0,0,86.834,72.862V16.972A14.044,14.044,0,0,0,72.862,3ZM44.917,21.63h9.315c0,4.681,6.851,9.315,9.315,9.315v9.315a17.7,17.7,0,0,1-9.315-3.329v17.3A13.972,13.972,0,1,1,40.259,40.259v9.315a4.657,4.657,0,1,0,4.657,4.657Z" transform="translate(-3 -3)" fill="#3b193d"/>
</svg>
