<svg xmlns="http://www.w3.org/2000/svg" width="328.587" height="233.791" viewBox="0 0 328.587 233.791">
  <g id="Calque_1" transform="translate(0 71.038) rotate(-13)">
    <g id="Groupe_230" data-name="Groupe 230" transform="translate(0.6 0.6)">
      <path id="Tracé_310" data-name="Tracé 310" d="M315.2,52.719c0,22.822-70.425,41.318-157.3,41.318S.6,75.54.6,52.719a11.767,11.767,0,0,1,.923-4.5C10.05,27.515,76.809,11.393,157.9,11.393S305.745,27.516,314.272,48.218A11.766,11.766,0,0,1,315.2,52.719Z" transform="translate(-0.6 -2.391)" fill="#755d76" stroke="#000" stroke-miterlimit="10" stroke-width="1.2"/>
      <path id="Tracé_311" data-name="Tracé 311" d="M315.2,41.918v9.011a11.781,11.781,0,0,0-.923-4.5C305.745,25.725,238.987,9.6,157.9,9.6S10.05,25.725,1.523,46.428a11.767,11.767,0,0,0-.923,4.5V41.918C.6,19.1,71.025.6,157.9.6S315.2,19.1,315.2,41.918Z" transform="translate(-0.6 -0.6)" fill="#3b193d" stroke="#000" stroke-miterlimit="10" stroke-width="1.2"/>
      <path id="Tracé_312" data-name="Tracé 312" d="M59.338,47.859v56.493H29.8V63.674C29.8,57.685,40.871,52.18,59.338,47.859Z" transform="translate(-5.445 -8.44)" fill="#e8e4e8" stroke="#000" stroke-miterlimit="10" stroke-width="1.2"/>
      <path id="Tracé_313" data-name="Tracé 313" d="M94.757,41.739v61.6H65.213V46.844A293.673,293.673,0,0,1,94.757,41.739Z" transform="translate(-11.319 -7.425)" fill="#e8e4e8" stroke="#000" stroke-miterlimit="10" stroke-width="1.2"/>
      <path id="Tracé_314" data-name="Tracé 314" d="M130.177,38.379v64.4H100.633v-61.6C109.749,40.022,119.658,39.08,130.177,38.379Z" transform="translate(-17.196 -6.868)" fill="#e8e4e8" stroke="#000" stroke-miterlimit="10" stroke-width="1.2"/>
      <path id="Tracé_315" data-name="Tracé 315" d="M165.6,36.849v65.677H136.053v-64.4C145.452,37.491,155.353,37.058,165.6,36.849Z" transform="translate(-23.072 -6.614)" fill="#e8e4e8" stroke="#000" stroke-miterlimit="10" stroke-width="1.2"/>
      <path id="Tracé_316" data-name="Tracé 316" d="M201.017,36.817v65.677H171.473V36.817q7.269-.163,14.772-.158T201.017,36.817Z" transform="translate(-28.948 -6.582)" fill="#e8e4e8" stroke="#000" stroke-miterlimit="10" stroke-width="1.2"/>
      <path id="Tracé_317" data-name="Tracé 317" d="M236.436,38.125v64.4H206.892V36.849C217.136,37.058,227.027,37.491,236.436,38.125Z" transform="translate(-34.824 -6.614)" fill="#e8e4e8" stroke="#000" stroke-miterlimit="10" stroke-width="1.2"/>
      <path id="Tracé_318" data-name="Tracé 318" d="M271.856,41.182v61.6H242.312v-64.4C252.831,39.08,262.74,40.022,271.856,41.182Z" transform="translate(-40.7 -6.868)" fill="#e8e4e8" stroke="#000" stroke-miterlimit="10" stroke-width="1.2"/>
      <path id="Tracé_319" data-name="Tracé 319" d="M307.276,46.835v56.5H277.732v-61.6A296.667,296.667,0,0,1,307.276,46.835Z" transform="translate(-46.577 -7.425)" fill="#e8e4e8" stroke="#000" stroke-miterlimit="10" stroke-width="1.2"/>
      <path id="Tracé_320" data-name="Tracé 320" d="M342.7,63.677v40.679H313.152v-56.5C331.628,52.183,342.7,57.688,342.7,63.677Z" transform="translate(-52.453 -8.44)" fill="#e8e4e8" stroke="#000" stroke-miterlimit="10" stroke-width="1.2"/>
      <path id="Tracé_321" data-name="Tracé 321" d="M162.741,86.744C89.318,86.744,29.8,98.006,29.8,111.9v40.681H295.684V111.9C295.683,98.006,236.163,86.744,162.741,86.744Z" transform="translate(-5.444 -14.891)" fill="#3b193d" stroke="#000" stroke-miterlimit="10" stroke-width="1.2"/>
      <path id="Tracé_322" data-name="Tracé 322" d="M162.741,115.685c-73.422,0-132.943,8.606-132.943,19.223v.208h0v19.014h0v11.864H295.684V134.908C295.684,124.291,236.163,115.685,162.741,115.685Z" transform="translate(-5.444 -19.693)" fill="#755d76" stroke="#000" stroke-miterlimit="10" stroke-width="1.2"/>
      <ellipse id="Ellipse_15" data-name="Ellipse 15" cx="132.943" cy="25.155" rx="132.943" ry="25.155" transform="translate(24.354 121.147)" fill="#755d76" stroke="#000" stroke-miterlimit="10" stroke-width="1.2"/>
      <path id="Tracé_323" data-name="Tracé 323" d="M163.449,193.3c-35.295,0-68.445-2.594-93.343-7.305C41.6,180.6,34.07,174.29,34.07,171.706s7.532-8.892,36.037-14.286c24.9-4.711,58.048-7.306,93.343-7.306s68.444,2.594,93.342,7.306c28.505,5.394,36.037,11.7,36.037,14.286s-7.532,8.892-36.037,14.286C231.894,190.7,198.744,193.3,163.449,193.3Z" transform="translate(-6.153 -25.405)" fill="#3b193d" stroke="#000" stroke-miterlimit="10" stroke-width="1.2"/>
    </g>
  </g>
</svg>
