<svg xmlns="http://www.w3.org/2000/svg" viewBox="0 0 83.834 83.834">
  <path id="icons8-x" d="M35.849,26.231,62.075,63.6H55.1L28.923,26.231Zm50.985-9.259V72.862A13.971,13.971,0,0,1,72.862,86.834H16.972A13.971,13.971,0,0,1,3,72.862V16.972A13.971,13.971,0,0,1,16.972,3H72.862A13.971,13.971,0,0,1,86.834,16.972ZM70.71,68.2l-19.5-27.9L67.152,21.63H61.046L48.452,36.347,38.173,21.63H20.242L38.6,47.865,21.192,68.2H27.4L41.377,51.829,52.825,68.2Z" transform="translate(-3 -3)" fill="currentColor"/>
</svg>
