<?xml version="1.0" encoding="UTF-8"?>
<svg id="Calque_1" data-name="Calque 1" xmlns="http://www.w3.org/2000/svg" viewBox="0 0 500 500">
  <defs>
    <style>
      .cls-1 {
        fill: #e8e4e8;
      }
    </style>
  </defs>
  <path class="cls-1" d="M316.21,180.71c-5.85-5.58-12.94-9.91-21.27-13.01-8.33-3.1-17.64-4.86-27.93-5.27-14.43-.58-27.61,1.72-39.54,6.9-11.93,5.18-22.24,12.53-30.92,22.06-8.68,9.53-15.48,20.56-20.4,33.09-4.92,12.53-7.66,25.85-8.22,39.97-.6,15.04,1.83,27.92,7.28,38.63,5.45,10.71,13.33,19,23.63,24.87,10.3,5.87,22.35,9.08,36.17,9.63,11.44.46,21.93-.93,31.47-4.16,9.54-3.23,18.03-7.76,25.45-13.57,7.42-5.82,13.65-12.33,18.71-19.55,5.05-7.22,8.77-14.62,11.15-22.21l-41.1-1.64c-1.55,4.17-3.7,7.87-6.44,11.1-2.74,3.24-5.93,5.97-9.55,8.21-3.62,2.24-7.61,3.89-11.96,4.94-4.35,1.06-8.94,1.49-13.77,1.29-6.52-.26-12.09-1.77-16.71-4.53-4.62-2.76-8.07-6.78-10.36-12.06-2.29-5.28-3.28-11.79-2.97-19.55.32-8.13,1.76-16.26,4.32-24.39,2.55-8.12,6.19-15.53,10.92-22.22,4.72-6.69,10.49-11.98,17.29-15.86,6.8-3.88,14.62-5.64,23.44-5.29,4.37.17,8.23.94,11.55,2.31,3.33,1.36,6.09,3.28,8.3,5.75,2.21,2.47,3.82,5.4,4.84,8.78,1.02,3.39,1.4,7.19,1.16,11.4l41.1,1.64c.86-10.11-.06-19.12-2.78-27.04-2.72-7.91-7.01-14.65-12.86-20.23Z"/>
</svg>