<?xml version="1.0" encoding="UTF-8"?>
<svg id="Calque_1" data-name="Calque 1" xmlns="http://www.w3.org/2000/svg" viewBox="0 0 500 500">
  <defs>
    <style>
      .cls-1 {
        fill: #3b193d;
      }

      .cls-2 {
        fill: #e8e4e8;
      }

      .cls-3 {
        fill: #755d76;
      }
    </style>
  </defs>
  <path class="cls-1" d="M394.38,209.25c-5.07-14.72-13.25-27.54-24.32-38.09l-45.82-45.82c-10.25-9.76-22.55-17.36-36.57-22.58-12.74-4.74-26.8-7.45-41.79-8.05-2.04-.08-4.06-.12-6.06-.12-18.88,0-36.74,3.6-53.09,10.69-17.72,7.69-33.28,18.79-46.23,33-12.33,13.54-22.08,29.32-28.98,46.89-6.73,17.14-10.53,35.5-11.29,54.57-.91,22.74,3.17,43.19,12.12,60.77,6.07,11.92,13.98,22.18,23.6,30.73v.02s39.99,40.23,39.99,40.23h.02c6.85,7.14,14.72,13.27,23.59,18.32,16.55,9.44,35.59,14.65,56.56,15.48,2.03.08,4.04.12,6.03.12,14.68,0,28.69-2.23,41.64-6.61,14.31-4.84,27.35-11.83,38.74-20.76,10.86-8.51,20.21-18.31,27.78-29.12,7.67-10.95,13.46-22.57,17.21-34.53l1.75-5.59c2.72-8.7,2.44-17.81-.65-26.08,5.85-6.38,9.71-14.63,10.49-23.75l.36-4.27c1.39-16.33-.31-31.61-5.06-45.45Z"/>
  <path class="cls-3" d="M216.3,337.17c-1.68,0-3.38-.03-5.1-.1-17.38-.69-32.98-4.92-46.38-12.56-14.11-8.04-25.05-19.54-32.5-34.17-7.19-14.12-10.46-30.84-9.7-49.7.66-16.56,3.94-32.47,9.76-47.27,5.9-15.02,14.21-28.47,24.69-39.99,10.8-11.85,23.78-21.11,38.57-27.53,13.51-5.86,28.37-8.83,44.17-8.83,1.71,0,3.44.03,5.18.1,12.61.5,24.34,2.74,34.86,6.66,11.15,4.15,20.88,10.14,28.92,17.79,8.45,8.05,14.7,17.86,18.59,29.16,3.73,10.85,5.05,23.04,3.92,36.24l-.36,4.27c-.81,9.56-9,16.78-18.58,16.4l-49.94-1.99c-10.02-.4-17.77-8.94-17.19-18.95l.26-4.56c.12-2.07-.11-3.18-.25-3.66-.02-.07-.05-.14-.06-.19-.03-.01-.07-.03-.11-.04-.4-.16-1.6-.56-3.94-.65-.45-.02-.88-.03-1.31-.03-4.01,0-7.33.78-10.15,2.39-3.95,2.26-7.25,5.3-10.09,9.31-3.36,4.76-6,10.15-7.85,16.02-1.95,6.2-3.06,12.44-3.3,18.56-.23,5.68.61,8.54,1.14,9.75.56,1.29.99,1.55,1.28,1.72,1.34.8,3.45,1.28,6.11,1.38.44.02.89.02,1.33.02,2.23,0,4.33-.24,6.26-.7,2.06-.5,3.85-1.23,5.47-2.23,1.63-1.01,3.02-2.2,4.24-3.64,1.05-1.24,1.88-2.69,2.52-4.42l1.13-3.05c2.7-7.27,9.77-11.97,17.52-11.66l50.2,2c11.8.47,19.93,12.01,16.4,23.28l-1.75,5.59c-3.06,9.76-7.82,19.3-14.18,28.37-6.3,8.99-14.12,17.18-23.25,24.33-9.39,7.36-20.19,13.14-32.1,17.16-10.63,3.6-22.23,5.43-34.45,5.43Z"/>
  <path class="cls-2" d="M293.3,157.79c-5.85-5.58-12.94-9.91-21.27-13.01-8.33-3.1-17.64-4.86-27.93-5.27-14.43-.58-27.61,1.72-39.54,6.9-11.93,5.18-22.24,12.53-30.92,22.06-8.68,9.53-15.48,20.56-20.4,33.09-4.92,12.53-7.66,25.85-8.22,39.97-.6,15.04,1.83,27.92,7.28,38.63,5.45,10.71,13.33,19,23.63,24.87,10.3,5.87,22.35,9.08,36.17,9.63,11.44.46,21.93-.93,31.47-4.16,9.54-3.23,18.03-7.76,25.45-13.57,7.42-5.82,13.65-12.33,18.71-19.55,5.05-7.22,8.77-14.62,11.15-22.21l-41.1-1.64c-1.55,4.17-3.7,7.87-6.44,11.1-2.74,3.24-5.93,5.97-9.55,8.21-3.62,2.24-7.61,3.89-11.96,4.94-4.35,1.06-8.94,1.49-13.77,1.29-6.52-.26-12.09-1.77-16.71-4.53-4.62-2.76-8.07-6.78-10.36-12.06-2.29-5.28-3.28-11.79-2.97-19.55.32-8.13,1.76-16.26,4.32-24.39,2.55-8.12,6.19-15.53,10.92-22.22,4.72-6.69,10.49-11.98,17.29-15.86,6.8-3.88,14.62-5.64,23.44-5.29,4.37.17,8.23.94,11.55,2.31,3.33,1.36,6.09,3.28,8.3,5.75,2.21,2.47,3.82,5.4,4.84,8.78,1.02,3.39,1.4,7.19,1.16,11.4l41.1,1.64c.86-10.11-.06-19.12-2.78-27.04-2.72-7.91-7.01-14.65-12.86-20.23Z"/>
</svg>