<?xml version="1.0" encoding="UTF-8"?>
<svg id="Calque_1" data-name="Calque 1" xmlns="http://www.w3.org/2000/svg" viewBox="0 0 500 500">
  <defs>
    <style>
      .cls-1 {
        fill: #3b193d;
      }

      .cls-2 {
        fill: #e8e4e8;
      }

      .cls-3 {
        fill: #755d76;
      }
    </style>
  </defs>
  <path class="cls-1" d="M380.18,348.19l-2.99-60.39c-.31-6.28-2.9-11.92-6.95-16.14l-1.66-33.56c3.72-4.65,5.77-10.63,5.44-17l-2.93-55.2c-.57-10.77-5.28-20.37-12.54-27.3h0s-43.13-43.05-43.13-43.05h0c-7.47-8.37-18.32-13.62-30.35-13.62-2.91,0-5.85.32-8.71.94l-124.54,27.16c-19.55,4.26-33.01,21.86-32,41.84l9.19,182.12c.6,11.91,6.28,22.38,14.84,29.42l39.82,39.82c1.68,2.03,3.54,3.9,5.57,5.57l.14.14h.01c7.01,5.7,15.93,9.11,25.64,9.11,2.91,0,5.85-.32,8.71-.94l124.43-27.13c19.53-4.26,32.99-21.84,32-41.81Z"/>
  <path class="cls-3" d="M156.59,131.93l124.54-27.16c11.03-2.4,21.58,5.65,22.18,16.92l2.93,55.2c.07,1.29-.81,2.44-2.07,2.71l-1.85.4c-1.26.27-2.13,1.42-2.07,2.71l2.77,55.89c.08,1.63,1.6,2.79,3.19,2.44h0c1.59-.35,3.11.82,3.19,2.44l2.99,60.41c.44,8.94-5.64,16.88-14.38,18.79l-124.43,27.13c-11.04,2.41-21.61-5.67-22.18-16.96l-9.19-182.13c-.45-8.94,5.63-16.9,14.38-18.81Z"/>
  <polygon class="cls-2" points="288.17 267.93 211.5 284.65 209.63 246.85 280.21 231.46 278.58 198.56 208 213.95 206.18 178.03 282.95 161.29 281.18 127.71 164.78 153.09 173.55 326.89 289.83 301.53 288.17 267.93"/>
</svg>