<?xml version="1.0" encoding="UTF-8"?>
<svg id="Calque_1" data-name="Calque 1" xmlns="http://www.w3.org/2000/svg" viewBox="0 0 500 500">
  <defs>
    <style>
      .cls-1 {
        fill: #3b193d;
      }

      .cls-2 {
        fill: #e8e4e8;
      }

      .cls-3 {
        fill: #755d76;
      }
    </style>
  </defs>
  <path class="cls-1" d="M468.66,109.25c1.96-11.34-1.14-22.9-8.52-31.73-2.35-2.81-5.07-5.19-8.03-7.21l.02-.05-36.67-30.77c-1.61-1.61-3.35-3.05-5.18-4.35l-.43-.36-.03.04c-6.34-4.33-13.85-6.79-21.71-6.85l-167.19-1.31c-8.67-.07-17.45.28-26.09,1.04-11.56,1.01-23.17,2.78-34.51,5.25l-97.21,21.2c-18.77,4.09-31.69,20.99-30.72,40.17l8.23,163.15c.38,7.53.38,15.16.02,22.69l-2.56,52.36c-.8,19.95,2.79,37.9,10.65,53.34,5.58,10.97,12.97,20.32,21.96,28.04l-.12-.04,39.66,33.09c2.37,2.21,4.87,4.29,7.49,6.25l.49.41h.07c2.92,2.14,5.95,4.18,9.16,6.01,14.54,8.29,31.25,12.86,49.67,13.59,5.43.22,10.82.1,16.02-.36,8.94-.78,17.62-2.58,25.77-5.34,12.55-4.25,23.99-10.37,33.99-18.21,6.08-4.76,11.61-9.99,16.55-15.6.45.51.9,1.01,1.35,1.5,12.46,13.51,27.77,22.61,45.51,27.07,11.02,2.77,22.61,3.64,34.45,2.61,5.62-.49,11.39-1.43,17.14-2.78,2.48-.58,4.94-1.24,7.37-1.95,6.41,3.74,13.89,5.46,21.41,4.8h0c1.71-.15,3.43-.43,5.11-.82l37.57-8.82c12.9-3.03,23.11-12.85,26.62-25.63,3.52-12.78-.22-26.44-9.75-35.64l-4.34-4.2c4.46-11.12,7.38-22.92,8.73-35.21,1.77-16.13.72-32.62-3.14-49.04-1.23-5.25-2.77-10.34-4.56-15.15-6.98-18.7-8.69-40.03-4.94-61.67l20.68-119.5Z"/>
  <path class="cls-3" d="M386.66,356.32c6.25-12.1,10.2-25.36,11.74-39.42,1.52-13.86.6-28.09-2.73-42.28-1.05-4.46-2.32-8.7-3.83-12.73-8.56-22.95-10.09-47.94-5.91-72.08l20.68-119.5c2.01-11.61-6.88-22.26-18.67-22.35l-167.19-1.31c-18.89-.15-37.73,1.81-56.19,5.83l-97.21,21.2c-9.13,1.99-15.47,10.29-15,19.62l8.23,163.14c.41,8.22.42,16.45.02,24.67l-2.55,52.18c-.66,16.49,2.2,31.11,8.49,43.47,6.52,12.81,16.1,22.89,28.47,29.93,11.72,6.68,25.37,10.38,40.57,10.98,4.59.18,9.12.08,13.47-.3,7.36-.64,14.46-2.11,21.11-4.36,10.41-3.52,19.85-8.57,28.06-15.01,7.97-6.25,14.81-13.41,20.31-21.27.45-.64.88-1.28,1.31-1.92,3.56-5.36,11.52-5.31,14.91.16,2.5,4.03,5.3,7.74,8.41,11.11,9.78,10.6,21.78,17.74,35.67,21.23,8.85,2.22,18.21,2.92,27.83,2.08,4.67-.41,9.49-1.19,14.32-2.32,5.51-1.29,10.8-2.96,15.83-5l3.28,3.08c3.95,3.71,9.5,5.19,14.78,3.95l37.57-8.82c12.48-2.93,16.77-18.51,7.55-27.41l-14.64-14.14c.44-.8.87-1.61,1.29-2.42Z"/>
  <polygon class="cls-2" points="179.69 192.94 113.02 207.48 111.39 174.6 172.77 161.22 171.35 132.61 109.97 145.99 108.38 114.75 175.16 100.19 173.61 70.99 72.38 93.07 80 244.21 181.14 222.16 179.69 192.94"/>
  <path class="cls-2" d="M239.44,139.59c.75-5.27,1.56-10.98,2.41-17.13.86-6.14,1.75-12.33,2.67-18.58.28-1.9.56-3.73.84-5.55.32,4.23.66,8.53,1.04,12.92.74,8.56,1.51,16.47,2.32,23.76.81,7.28,1.54,13.13,2.19,17.54l10.69,64.37,29.56.1,32.09-64.22c1.55-3.33,3.47-7.5,5.76-12.51,2.29-5,4.73-10.51,7.32-16.51,2.59-6,5.2-12.17,7.83-18.51,1.17-2.82,2.29-5.58,3.39-8.31-.42,2.31-.86,4.67-1.33,7.12-1.19,6.21-2.4,12.4-3.62,18.58-1.22,6.18-2.35,11.9-3.37,17.17-1.02,5.27-1.84,9.61-2.45,13.02l-10.85,64.29,35.57.13,25.28-149.21-55.21-.2-28.56,58.02c-1.68,3.54-3.7,8.2-6.06,14.01-2.36,5.8-4.79,12.04-7.28,18.71-2.16,5.76-4.19,11.34-6.15,16.78-.12-5.38-.28-10.9-.52-16.65-.28-6.71-.61-12.98-.99-18.79-.38-5.81-.8-10.53-1.25-14.13l-9.21-58.15-55.11-.2-25.28,149.21,35.47.13,10.75-64.29c.61-3.34,1.3-7.64,2.05-12.92Z"/>
  <path class="cls-2" d="M207,261.28c-5.09-4.85-11.26-8.62-18.5-11.32-7.25-2.7-15.34-4.22-24.29-4.58-12.55-.5-24.01,1.5-34.38,6-10.38,4.5-19.34,10.9-26.89,19.19-7.55,8.29-13.47,17.88-17.74,28.78-4.28,10.89-6.66,22.48-7.15,34.76-.52,13.08,1.59,24.28,6.33,33.6,4.74,9.32,11.59,16.53,20.55,21.63,8.95,5.11,19.44,7.9,31.46,8.37,9.95.4,19.07-.81,27.37-3.62,8.3-2.81,15.68-6.75,22.13-11.8,6.45-5.06,11.88-10.72,16.27-17,4.39-6.28,7.63-12.72,9.7-19.32l-35.74-1.43c-1.35,3.62-3.22,6.84-5.6,9.66-2.39,2.81-5.16,5.19-8.31,7.14-3.15,1.95-6.62,3.38-10.4,4.3-3.78.92-7.77,1.29-11.98,1.13-5.67-.23-10.52-1.54-14.53-3.94-4.02-2.4-7.02-5.89-9.01-10.49-1.99-4.59-2.85-10.26-2.58-17,.28-7.07,1.53-14.15,3.75-21.21,2.22-7.07,5.39-13.51,9.5-19.33,4.11-5.82,9.12-10.42,15.04-13.79,5.92-3.37,12.71-4.91,20.39-4.6,3.8.15,7.15.82,10.05,2.01,2.89,1.19,5.3,2.85,7.22,5,1.92,2.15,3.32,4.7,4.21,7.64.88,2.95,1.22,6.25,1.01,9.92l35.74,1.43c.75-8.8-.06-16.63-2.42-23.51-2.37-6.88-6.09-12.74-11.18-17.59Z"/>
  <path class="cls-2" d="M360.91,248.46c-7.2-7.74-15.82-12.87-25.85-15.39-10.03-2.52-20.86-2.41-32.5.32-12.36,2.9-22.95,7.89-31.79,14.97-8.84,7.08-15.81,15.6-20.92,25.55-5.11,9.95-8.29,20.75-9.53,32.39-1.25,11.65-.46,23.49,2.37,35.52,2.99,12.75,8.05,22.98,15.18,30.71,7.13,7.73,15.75,12.86,25.84,15.39,10.1,2.54,21,2.43,32.71-.32,8.92-2.09,16.9-5.3,23.97-9.6l11.91,11.17,28.78-6.75-21.69-20.95c3.65-4.39,6.83-9.15,9.5-14.32,5.14-9.96,8.35-20.76,9.63-32.42,1.28-11.65.51-23.5-2.32-35.53-2.99-12.75-8.09-22.99-15.29-30.74ZM343.51,308.53c-.15,7.41-1.37,14.47-3.67,21.19-1.19,3.46-2.71,6.67-4.55,9.64l-10.5-10.42-25.46,5.98,18.85,19.6c-2.31,1-4.73,1.89-7.38,2.51-5.66,1.33-10.7,1.35-15.12.05-4.42-1.3-8.19-3.89-11.3-7.8-3.11-3.9-5.42-9.07-6.93-15.51-1.6-6.83-2.32-13.92-2.16-21.26.16-7.34,1.41-14.38,3.74-21.1,2.33-6.72,5.88-12.53,10.63-17.42,4.75-4.89,10.94-8.23,18.54-10.01,5.59-1.31,10.6-1.32,15.02-.03,4.42,1.3,8.17,3.88,11.24,7.76,3.07,3.88,5.37,9.07,6.9,15.57,1.59,6.76,2.31,13.85,2.16,21.26Z"/>
</svg>