<?xml version="1.0" encoding="UTF-8"?>
<svg id="Calque_1" data-name="Calque 1" xmlns="http://www.w3.org/2000/svg" viewBox="0 0 500 500">
  <defs>
    <style>
      .cls-1 {
        fill: #3b193d;
      }

      .cls-2 {
        fill: #755d76;
      }
    </style>
  </defs>
  <path class="cls-1" d="M468.66,109.25c1.96-11.34-1.14-22.9-8.52-31.73-2.35-2.81-5.07-5.19-8.03-7.21l.02-.05-36.67-30.77c-1.61-1.61-3.35-3.05-5.18-4.35l-.43-.36-.03.04c-6.34-4.33-13.85-6.79-21.71-6.85l-167.19-1.31c-8.67-.07-17.45.28-26.09,1.04-11.56,1.01-23.17,2.78-34.51,5.25l-97.21,21.2c-18.77,4.09-31.69,20.99-30.72,40.17l8.23,163.15c.38,7.53.38,15.16.02,22.69l-2.56,52.36c-.8,19.95,2.79,37.9,10.65,53.34,5.58,10.97,12.97,20.32,21.96,28.04l-.12-.04,39.66,33.09c2.37,2.21,4.87,4.29,7.49,6.25l.49.41h.07c2.92,2.14,5.95,4.18,9.16,6.01,14.54,8.29,31.25,12.86,49.67,13.59,5.43.22,10.82.1,16.02-.36,8.94-.78,17.62-2.58,25.77-5.34,12.55-4.25,23.99-10.37,33.99-18.21,6.08-4.76,11.61-9.99,16.55-15.6.45.51.9,1.01,1.35,1.5,12.46,13.51,27.77,22.61,45.51,27.07,11.02,2.77,22.61,3.64,34.45,2.61,5.62-.49,11.39-1.43,17.14-2.78,2.48-.58,4.94-1.24,7.37-1.95,6.41,3.74,13.89,5.46,21.41,4.8h0c1.71-.15,3.43-.43,5.11-.82l37.57-8.82c12.9-3.03,23.11-12.85,26.62-25.63,3.52-12.78-.22-26.44-9.75-35.64l-4.34-4.2c4.46-11.12,7.38-22.92,8.73-35.21,1.77-16.13.72-32.62-3.14-49.04-1.23-5.25-2.77-10.34-4.56-15.15-6.98-18.7-8.69-40.03-4.94-61.67l20.68-119.5Z"/>
  <path class="cls-2" d="M386.66,356.32c6.25-12.1,10.2-25.36,11.74-39.42,1.52-13.86.6-28.09-2.73-42.28-1.05-4.46-2.32-8.7-3.83-12.73-8.56-22.95-10.09-47.94-5.91-72.08l20.68-119.5c2.01-11.61-6.88-22.26-18.67-22.35l-167.19-1.31c-18.89-.15-37.73,1.81-56.19,5.83l-97.21,21.2c-9.13,1.99-15.47,10.29-15,19.62l8.23,163.14c.41,8.22.42,16.45.02,24.67l-2.55,52.18c-.66,16.49,2.2,31.11,8.49,43.47,6.52,12.81,16.1,22.89,28.47,29.93,11.72,6.68,25.37,10.38,40.57,10.98,4.59.18,9.12.08,13.47-.3,7.36-.64,14.46-2.11,21.11-4.36,10.41-3.52,19.85-8.57,28.06-15.01,7.97-6.25,14.81-13.41,20.31-21.27.45-.64.88-1.28,1.31-1.92,3.56-5.36,11.52-5.31,14.91.16,2.5,4.03,5.3,7.74,8.41,11.11,9.78,10.6,21.78,17.74,35.67,21.23,8.85,2.22,18.21,2.92,27.83,2.08,4.67-.41,9.49-1.19,14.32-2.32,5.51-1.29,10.8-2.96,15.83-5l3.28,3.08c3.95,3.71,9.5,5.19,14.78,3.95l37.57-8.82c12.48-2.93,16.77-18.51,7.55-27.41l-14.64-14.14c.44-.8.87-1.61,1.29-2.42Z"/>
</svg>