<?xml version="1.0" encoding="UTF-8"?>
<svg id="Calque_1" data-name="Calque 1" xmlns="http://www.w3.org/2000/svg" viewBox="0 0 500 500">
  <defs>
    <style>
      .cls-1 {
        fill: #e8e4e8;
      }
    </style>
  </defs>
  <path class="cls-1" d="M193.04,246.8c.87-6.06,1.79-12.63,2.78-19.69.99-7.06,2.01-14.18,3.07-21.36.32-2.18.64-4.29.96-6.38.36,4.86.76,9.81,1.2,14.85.85,9.84,1.74,18.94,2.67,27.32.93,8.38,1.77,15.1,2.52,20.17l12.3,74.01,33.99.12,36.9-73.84c1.78-3.83,3.99-8.63,6.62-14.38,2.63-5.75,5.44-12.08,8.42-18.98,2.98-6.9,5.98-14,9.01-21.28,1.34-3.24,2.63-6.41,3.9-9.56-.49,2.65-.99,5.37-1.53,8.19-1.37,7.14-2.76,14.26-4.17,21.36-1.41,7.1-2.7,13.68-3.87,19.75-1.18,6.06-2.11,11.05-2.82,14.97l-12.47,73.93,40.9.15,29.07-171.57-63.49-.23-32.84,66.71c-1.93,4.07-4.26,9.43-6.97,16.11-2.71,6.67-5.5,13.85-8.37,21.51-2.48,6.63-4.82,13.04-7.07,19.29-.13-6.18-.32-12.54-.59-19.15-.32-7.72-.7-14.92-1.13-21.61-.44-6.69-.92-12.1-1.44-16.25l-10.59-66.86-63.37-.23-29.07,171.57,40.79.15,12.36-73.93c.71-3.84,1.49-8.79,2.36-14.86Z"/>
</svg>