<?xml version="1.0" encoding="UTF-8"?>
<svg id="Calque_1" data-name="Calque 1" xmlns="http://www.w3.org/2000/svg" viewBox="0 0 500 500">
  <defs>
    <style>
      .cls-1 {
        fill: #3b193d;
      }

      .cls-2 {
        fill: #e8e4e8;
      }

      .cls-3 {
        fill: #755d76;
      }
    </style>
  </defs>
  <path class="cls-1" d="M426.39,158.82c-1.21-1.44-2.55-2.73-3.95-3.95l-48.24-48.24c-6.9-8.2-17.01-12.92-27.73-12.96l-78.82-.28c-11.16,0-21.38,4.96-28.19,13.34-6.67-8.31-16.89-13.5-28.26-13.54l-77.82-.27c-17.82,0-32.92,12.75-35.9,30.33l-31.92,188.41c-1.79,10.57,1.14,21.33,8.05,29.53,1.21,1.44,2.56,2.73,3.95,3.95l48.23,48.23c6.9,8.2,17.01,12.92,27.73,12.96l213.08.76c17.82,0,32.92-12.76,35.9-30.33l31.92-188.41c1.79-10.57-1.14-21.33-8.05-29.53Z"/>
  <path class="cls-3" d="M255.1,123.62l-3.83,7.78c-6.03,12.25-24.24,9.49-26.38-3.99h0c-1.07-6.78-6.91-11.78-13.77-11.8l-77.68-.27c-6.85-.02-12.7,4.91-13.85,11.66l-31.92,188.41c-1.44,8.52,5.11,16.3,13.75,16.33l212.95.76c6.85.02,12.7-4.91,13.85-11.66l31.92-188.41c1.44-8.52-5.1-16.3-13.75-16.33l-78.69-.28c-5.35-.02-10.24,3.01-12.6,7.81Z"/>
  <path class="cls-2" d="M166.94,220.71c.87-6.06,1.79-12.63,2.78-19.69.99-7.06,2.01-14.18,3.07-21.36.32-2.18.64-4.29.96-6.38.36,4.86.76,9.81,1.2,14.85.85,9.84,1.74,18.94,2.67,27.32.93,8.38,1.77,15.1,2.52,20.17l12.3,74.01,33.99.12,36.9-73.84c1.78-3.83,3.99-8.63,6.62-14.38,2.63-5.75,5.44-12.08,8.42-18.98,2.98-6.9,5.98-14,9.01-21.28,1.34-3.24,2.63-6.41,3.9-9.56-.49,2.65-.99,5.37-1.53,8.19-1.37,7.14-2.76,14.26-4.17,21.36-1.41,7.1-2.7,13.68-3.87,19.75-1.18,6.06-2.11,11.05-2.82,14.97l-12.47,73.93,40.9.15,29.07-171.57-63.49-.23-32.84,66.71c-1.93,4.07-4.26,9.43-6.97,16.11-2.71,6.67-5.5,13.85-8.37,21.51-2.48,6.63-4.82,13.04-7.07,19.29-.13-6.18-.32-12.54-.59-19.15-.32-7.72-.7-14.92-1.13-21.61-.44-6.69-.92-12.1-1.44-16.25l-10.59-66.86-63.37-.23-29.07,171.57,40.79.15,12.36-73.93c.71-3.84,1.49-8.79,2.36-14.86Z"/>
</svg>