<?xml version="1.0" encoding="UTF-8"?>
<svg id="Calque_1" data-name="Calque 1" xmlns="http://www.w3.org/2000/svg" viewBox="0 0 500 500">
  <defs>
    <style>
      .cls-1 {
        fill: #e8e4e8;
      }
    </style>
  </defs>
  <path class="cls-1" d="M308.06,178.66c-8.28-8.9-18.19-14.8-29.72-17.7-11.53-2.9-23.98-2.77-37.37.37-14.21,3.33-26.39,9.08-36.55,17.22-10.16,8.15-18.18,17.94-24.05,29.37-5.88,11.44-9.53,23.86-10.96,37.25-1.43,13.39-.52,27.01,2.72,40.84,3.44,14.66,9.26,26.43,17.46,35.31,8.2,8.88,18.11,14.79,29.72,17.7,11.61,2.92,24.15,2.79,37.61-.36,10.26-2.41,19.43-6.1,27.56-11.04l13.69,12.84,33.09-7.77-24.94-24.09c4.19-5.05,7.85-10.52,10.92-16.47,5.91-11.45,9.6-23.87,11.08-37.28,1.47-13.4.58-27.02-2.67-40.85-3.44-14.66-9.3-26.44-17.58-35.34ZM288.06,247.74c-.17,8.52-1.58,16.64-4.22,24.37-1.37,3.98-3.12,7.67-5.24,11.08l-12.08-11.99-29.28,6.87,21.68,22.54c-2.66,1.16-5.44,2.17-8.49,2.89-6.51,1.53-12.3,1.55-17.38.06-5.08-1.49-9.41-4.48-12.99-8.96-3.58-4.49-6.23-10.43-7.97-17.83-1.84-7.85-2.67-16-2.48-24.45.19-8.45,1.62-16.53,4.3-24.27,2.68-7.73,6.76-14.41,12.22-20.03,5.47-5.62,12.57-9.46,21.32-11.51,6.43-1.51,12.19-1.52,17.27-.03,5.08,1.49,9.39,4.46,12.92,8.92,3.53,4.46,6.17,10.43,7.93,17.9,1.83,7.78,2.65,15.93,2.48,24.45Z"/>
</svg>