<?xml version="1.0" encoding="UTF-8"?>
<svg id="Calque_1" data-name="Calque 1" xmlns="http://www.w3.org/2000/svg" viewBox="0 0 500 500">
  <defs>
    <style>
      .cls-1 {
        fill: #3b193d;
      }

      .cls-2 {
        fill: #e8e4e8;
      }

      .cls-3 {
        fill: #755d76;
      }
    </style>
  </defs>
  <path class="cls-1" d="M388.89,327.15l-.42-.41c5.25-12.91,8.69-26.61,10.25-40.9,2.02-18.41.82-37.25-3.58-55.99-5.22-22.28-14.78-41-28.41-55.65-1.81-1.95-3.67-3.81-5.58-5.59l-50.5-50.56-.03.03c-13.48-13.13-29.48-22.14-47.7-26.71-9.08-2.28-18.56-3.44-28.16-3.44s-20.09,1.22-30.38,3.64c-20.7,4.86-38.99,13.57-54.35,25.88-15.08,12.09-27.15,26.85-35.89,43.87-8.38,16.31-13.65,34.14-15.67,52.97-1.97,18.37-.74,37.16,3.65,55.85,5.21,22.21,14.69,40.88,28.16,55.48,1.92,2.08,3.91,4.05,5.94,5.94l46.24,46.24c14.18,15.37,31.59,25.72,51.74,30.78,9.12,2.29,18.63,3.45,28.28,3.45s20.18-1.23,30.5-3.65c3.16-.74,6.29-1.58,9.36-2.52,6.52,3.62,13.89,5.55,21.5,5.55,3.41,0,6.82-.4,10.14-1.18l34.21-8.03c15.81-3.71,28.31-15.74,32.63-31.4,4.31-15.66-.27-32.39-11.95-43.68Z"/>
  <path class="cls-3" d="M254.15,328.53c-5.85,2.39-12.02,4.35-18.46,5.86-8.65,2.03-17.19,3.06-25.38,3.06s-15.49-.93-22.82-2.78c-15.85-3.98-29.56-12.14-40.73-24.24-10.82-11.72-18.49-27-22.81-45.4-3.81-16.23-4.88-32.5-3.19-48.35,1.72-16.08,6.2-31.26,13.31-45.11,7.29-14.2,17.37-26.52,29.97-36.62,12.74-10.21,28.03-17.46,45.45-21.55,8.61-2.02,17.1-3.05,25.26-3.05s15.41.93,22.7,2.76c15.74,3.95,29.42,12.09,40.67,24.17,10.94,11.76,18.68,27.07,23,45.5,3.82,16.25,4.87,32.55,3.12,48.42-1.76,16.08-6.29,31.27-13.44,45.12-.55,1.06-1.11,2.12-1.69,3.16l12.01,11.6c12.49,12.06,6.67,33.16-10.23,37.13l-34.21,8.03c-7.15,1.68-14.66-.33-20.02-5.35l-2.52-2.36ZM230.3,191.68c-1.16,0-2.53.18-4.08.55-4.53,1.06-7.92,2.8-10.36,5.31-3.18,3.27-5.51,7.12-7.12,11.75-1.91,5.49-2.94,11.35-3.07,17.41-.02,1.16-.03,2.32,0,3.47l33.6-7.89c.01-.36.02-.73.03-1.09.13-6.61-.51-12.96-1.89-18.88-1.3-5.52-2.86-8.07-3.68-9.1-.87-1.1-1.37-1.25-1.66-1.33-.45-.13-1.05-.2-1.76-.2Z"/>
  <path class="cls-2" d="M281.72,152.57c-8.28-8.9-18.19-14.8-29.72-17.7-11.53-2.9-23.98-2.77-37.37.37-14.21,3.33-26.39,9.08-36.55,17.22-10.16,8.15-18.18,17.94-24.05,29.37-5.88,11.44-9.53,23.86-10.96,37.25-1.43,13.39-.52,27.01,2.72,40.84,3.44,14.66,9.26,26.43,17.46,35.31,8.2,8.88,18.11,14.79,29.72,17.7,11.61,2.92,24.15,2.79,37.61-.36,10.26-2.41,19.43-6.1,27.56-11.04l13.69,12.84,33.09-7.77-24.94-24.09c4.19-5.05,7.85-10.52,10.92-16.47,5.91-11.45,9.6-23.87,11.08-37.28,1.47-13.4.58-27.02-2.67-40.85-3.44-14.66-9.3-26.44-17.58-35.34ZM261.71,221.64c-.17,8.52-1.58,16.64-4.22,24.37-1.37,3.98-3.12,7.67-5.24,11.08l-12.08-11.99-29.28,6.87,21.68,22.54c-2.66,1.16-5.44,2.17-8.49,2.89-6.51,1.53-12.3,1.55-17.38.06-5.08-1.49-9.41-4.48-12.99-8.96-3.58-4.49-6.23-10.43-7.97-17.83-1.84-7.85-2.67-16-2.48-24.45.19-8.45,1.62-16.53,4.3-24.27,2.68-7.73,6.76-14.41,12.22-20.03,5.47-5.62,12.57-9.46,21.32-11.51,6.43-1.51,12.19-1.52,17.27-.03,5.08,1.49,9.39,4.46,12.92,8.92,3.53,4.46,6.17,10.43,7.93,17.9,1.83,7.78,2.65,15.93,2.48,24.45Z"/>
</svg>